%TF.GenerationSoftware,Altium Limited,Altium Designer,24.8.2 (39)*%
G04 Layer_Color=32896*
%FSLAX45Y45*%
%MOMM*%
%TF.SameCoordinates,AEF890BE-CC7D-4D31-97F1-A5BAF979AF91*%
%TF.FilePolarity,Positive*%
%TF.FileFunction,Legend,Bot*%
%TF.Part,Single*%
G01*
G75*
%TA.AperFunction,NonConductor*%
%ADD10C,0.17780*%
D10*
X26162000Y2412962D02*
Y2235200D01*
Y2412962D02*
X26238184D01*
X26263577Y2404497D01*
X26272043Y2396032D01*
X26280508Y2379102D01*
Y2362173D01*
X26272043Y2345243D01*
X26263577Y2336778D01*
X26238184Y2328313D01*
X26162000D02*
X26238184D01*
X26263577Y2319849D01*
X26272043Y2311384D01*
X26280508Y2294454D01*
Y2269059D01*
X26272043Y2252130D01*
X26263577Y2243665D01*
X26238184Y2235200D01*
X26162000D01*
X26430338Y2412962D02*
X26320294D01*
Y2235200D01*
X26430338D01*
X26320294Y2328313D02*
X26388013D01*
X26578470Y2387567D02*
X26561542Y2404497D01*
X26536148Y2412962D01*
X26502286D01*
X26476892Y2404497D01*
X26459964Y2387567D01*
Y2370638D01*
X26468427Y2353708D01*
X26476892Y2345243D01*
X26493823Y2336778D01*
X26544611Y2319849D01*
X26561542Y2311384D01*
X26570007Y2302919D01*
X26578470Y2285989D01*
Y2260595D01*
X26561542Y2243665D01*
X26536148Y2235200D01*
X26502286D01*
X26476892Y2243665D01*
X26459964Y2260595D01*
X26677509Y2412962D02*
Y2235200D01*
X26618256Y2412962D02*
X26736765D01*
X26757925D02*
Y2285989D01*
X26766391Y2260595D01*
X26783319Y2243665D01*
X26808716Y2235200D01*
X26825644D01*
X26851038Y2243665D01*
X26867969Y2260595D01*
X26876434Y2285989D01*
Y2412962D01*
X27035574D02*
X26925531D01*
Y2235200D01*
X27035574D01*
X26925531Y2328313D02*
X26993250D01*
X27192172Y2370638D02*
X27183707Y2387567D01*
X27166779Y2404497D01*
X27149847Y2412962D01*
X27115988D01*
X27099060Y2404497D01*
X27082129Y2387567D01*
X27073666Y2370638D01*
X27065201Y2345243D01*
Y2302919D01*
X27073666Y2277524D01*
X27082129Y2260595D01*
X27099060Y2243665D01*
X27115988Y2235200D01*
X27149847D01*
X27166779Y2243665D01*
X27183707Y2260595D01*
X27192172Y2277524D01*
X27242114Y2412962D02*
Y2235200D01*
X27360623Y2412962D02*
X27242114Y2294454D01*
X27284439Y2336778D02*
X27360623Y2235200D01*
X27408875Y2252130D02*
X27400409Y2243665D01*
X27408875Y2235200D01*
X27417337Y2243665D01*
X27408875Y2252130D01*
X27595947Y2412962D02*
Y2235200D01*
Y2412962D02*
X27672131D01*
X27697525Y2404497D01*
X27705988Y2396032D01*
X27714453Y2379102D01*
Y2362173D01*
X27705988Y2345243D01*
X27697525Y2336778D01*
X27672131Y2328313D01*
X27595947D02*
X27672131D01*
X27697525Y2319849D01*
X27705988Y2311384D01*
X27714453Y2294454D01*
Y2269059D01*
X27705988Y2252130D01*
X27697525Y2243665D01*
X27672131Y2235200D01*
X27595947D01*
X27805029Y2412962D02*
X27788098Y2404497D01*
X27771167Y2387567D01*
X27762704Y2370638D01*
X27754239Y2345243D01*
Y2302919D01*
X27762704Y2277524D01*
X27771167Y2260595D01*
X27788098Y2243665D01*
X27805029Y2235200D01*
X27838885D01*
X27855817Y2243665D01*
X27872748Y2260595D01*
X27881213Y2277524D01*
X27889676Y2302919D01*
Y2345243D01*
X27881213Y2370638D01*
X27872748Y2387567D01*
X27855817Y2404497D01*
X27838885Y2412962D01*
X27805029D01*
X27990408D02*
Y2235200D01*
X27931155Y2412962D02*
X28049661D01*
X28130078D02*
Y2235200D01*
X28070825Y2412962D02*
X28189331D01*
X28261282D02*
X28244354Y2404497D01*
X28227423Y2387567D01*
X28218958Y2370638D01*
X28210495Y2345243D01*
Y2302919D01*
X28218958Y2277524D01*
X28227423Y2260595D01*
X28244354Y2243665D01*
X28261282Y2235200D01*
X28295142D01*
X28312073Y2243665D01*
X28329001Y2260595D01*
X28337466Y2277524D01*
X28345932Y2302919D01*
Y2345243D01*
X28337466Y2370638D01*
X28329001Y2387567D01*
X28312073Y2404497D01*
X28295142Y2412962D01*
X28261282D01*
X28387411D02*
Y2235200D01*
Y2412962D02*
X28455130Y2235200D01*
X28522849Y2412962D02*
X28455130Y2235200D01*
X28522849Y2412962D02*
Y2235200D01*
X26263577Y888962D02*
X26178931D01*
X26170465Y812778D01*
X26178931Y821243D01*
X26204324Y829708D01*
X26229718D01*
X26255112Y821243D01*
X26272043Y804313D01*
X26280508Y778919D01*
Y761989D01*
X26272043Y736595D01*
X26255112Y719665D01*
X26229718Y711200D01*
X26204324D01*
X26178931Y719665D01*
X26170465Y728130D01*
X26162000Y745059D01*
%TF.MD5,096b76595974b880c6b76a66d063c9f4*%
M02*
