%TF.GenerationSoftware,Altium Limited,Altium Designer,24.8.2 (39)*%
G04 Layer_Color=0*
%FSLAX45Y45*%
%MOMM*%
%TF.SameCoordinates,AEF890BE-CC7D-4D31-97F1-A5BAF979AF91*%
%TF.FilePolarity,Positive*%
%TF.FileFunction,Plated,1,2,PTH,Drill*%
%TF.Part,Single*%
G01*
G75*
%TA.AperFunction,OtherDrill,Pad Free-57 (162mm,92mm)*%
%ADD25C,3.00000*%
%TA.AperFunction,OtherDrill,Pad Free-56 (123mm,92mm)*%
%ADD26C,3.00000*%
%TA.AperFunction,OtherDrill,Pad Free-55 (123mm,115mm)*%
%ADD27C,3.00000*%
%TA.AperFunction,ComponentDrill*%
%ADD28C,1.00000*%
%ADD29C,1.30000*%
D25*
X16200000Y9200000D02*
D03*
D26*
X12300000D02*
D03*
D27*
Y11500000D02*
D03*
D28*
X15494000Y9652000D02*
D03*
Y9906000D02*
D03*
Y10160000D02*
D03*
Y10414000D02*
D03*
X14986000Y9652000D02*
D03*
Y9906000D02*
D03*
Y10160000D02*
D03*
Y10414000D02*
D03*
D29*
X12953999Y11658000D02*
D03*
Y11404000D02*
D03*
Y11150000D02*
D03*
Y10896000D02*
D03*
Y10642000D02*
D03*
Y10388000D02*
D03*
Y10134000D02*
D03*
Y9880000D02*
D03*
X14478000D02*
D03*
Y10134000D02*
D03*
Y10388000D02*
D03*
Y10642000D02*
D03*
Y10896000D02*
D03*
Y11150000D02*
D03*
Y11404000D02*
D03*
Y11658000D02*
D03*
%TF.MD5,707f618c0a5ee4190ee6f314bb6e7aa8*%
M02*
