%TF.GenerationSoftware,Altium Limited,Altium Designer,24.8.2 (39)*%
G04 Layer_Color=65535*
%FSLAX45Y45*%
%MOMM*%
%TF.SameCoordinates,AEF890BE-CC7D-4D31-97F1-A5BAF979AF91*%
%TF.FilePolarity,Positive*%
%TF.FileFunction,Legend,Top*%
%TF.Part,Single*%
G01*
G75*
%TA.AperFunction,NonConductor*%
%ADD10C,0.17780*%
%ADD16C,0.20000*%
%ADD17C,0.12700*%
%ADD18C,0.40000*%
%ADD19C,0.35000*%
G36*
X15298009Y9336510D02*
X15276489D01*
Y9356411D01*
X15298009D01*
Y9336510D01*
D02*
G37*
G36*
X14523967Y9336509D02*
X14502448D01*
Y9356411D01*
X14523967D01*
Y9336509D01*
D02*
G37*
G36*
X13593143Y9336509D02*
X13571625D01*
Y9356410D01*
X13593143D01*
Y9336509D01*
D02*
G37*
G36*
X14727832Y9358352D02*
X14729613Y9358190D01*
X14731715Y9358029D01*
X14733820Y9357705D01*
X14736246Y9357381D01*
X14741423Y9356249D01*
X14744012Y9355440D01*
X14746600Y9354631D01*
X14749190Y9353498D01*
X14751616Y9352204D01*
X14753882Y9350748D01*
X14755984Y9349130D01*
X14756146Y9348968D01*
X14756470Y9348644D01*
X14756956Y9348159D01*
X14757603Y9347512D01*
X14758412Y9346541D01*
X14759383Y9345408D01*
X14760355Y9344114D01*
X14761485Y9342658D01*
X14762457Y9340878D01*
X14763428Y9339098D01*
X14764398Y9336995D01*
X14765207Y9334730D01*
X14766016Y9332464D01*
X14766664Y9329876D01*
X14767149Y9327287D01*
X14767311Y9324375D01*
X14744659Y9323566D01*
Y9323727D01*
Y9323889D01*
X14744336Y9325022D01*
X14744012Y9326478D01*
X14743365Y9328258D01*
X14742557Y9330361D01*
X14741423Y9332303D01*
X14739967Y9334244D01*
X14738348Y9335862D01*
X14738187Y9336024D01*
X14737540Y9336509D01*
X14736407Y9337157D01*
X14734789Y9337804D01*
X14732848Y9338451D01*
X14730421Y9339098D01*
X14727509Y9339584D01*
X14724110Y9339745D01*
X14722493D01*
X14720712Y9339584D01*
X14718610Y9339260D01*
X14716183Y9338775D01*
X14713594Y9337966D01*
X14711166Y9336995D01*
X14708902Y9335539D01*
X14708740Y9335377D01*
X14708417Y9335053D01*
X14707768Y9334568D01*
X14707121Y9333759D01*
X14706474Y9332788D01*
X14705827Y9331494D01*
X14705504Y9330199D01*
X14705342Y9328581D01*
Y9328419D01*
Y9327934D01*
X14705504Y9327125D01*
X14705827Y9326316D01*
X14706151Y9325184D01*
X14706638Y9324051D01*
X14707446Y9322918D01*
X14708578Y9321786D01*
X14708740Y9321624D01*
X14709549Y9321139D01*
X14710034Y9320815D01*
X14710843Y9320491D01*
X14711652Y9320006D01*
X14712785Y9319521D01*
X14714079Y9319035D01*
X14715535Y9318388D01*
X14717316Y9317741D01*
X14719095Y9317094D01*
X14721359Y9316446D01*
X14723787Y9315799D01*
X14726376Y9315152D01*
X14729288Y9314343D01*
X14729449D01*
X14730096Y9314181D01*
X14730907Y9314019D01*
X14732039Y9313696D01*
X14733333Y9313372D01*
X14734950Y9312887D01*
X14736731Y9312401D01*
X14738512Y9311916D01*
X14742393Y9310622D01*
X14746439Y9309327D01*
X14750322Y9307871D01*
X14751939Y9307062D01*
X14753558Y9306253D01*
X14753720D01*
X14753882Y9306091D01*
X14754852Y9305444D01*
X14756310Y9304473D01*
X14758089Y9303179D01*
X14760030Y9301561D01*
X14762132Y9299619D01*
X14764236Y9297354D01*
X14766016Y9294766D01*
X14766177Y9294442D01*
X14766664Y9293471D01*
X14767473Y9292015D01*
X14768282Y9289912D01*
X14769090Y9287323D01*
X14769901Y9284249D01*
X14770386Y9280851D01*
X14770547Y9276968D01*
Y9276806D01*
Y9276482D01*
Y9275997D01*
Y9275350D01*
X14770386Y9274541D01*
X14770222Y9273408D01*
X14769901Y9271143D01*
X14769252Y9268231D01*
X14768282Y9265156D01*
X14766824Y9262082D01*
X14765047Y9258846D01*
Y9258685D01*
X14764722Y9258523D01*
X14764075Y9257552D01*
X14762781Y9255934D01*
X14761163Y9254154D01*
X14759059Y9252051D01*
X14756310Y9250109D01*
X14753397Y9248168D01*
X14749837Y9246388D01*
X14749675D01*
X14749352Y9246226D01*
X14748866Y9246064D01*
X14748058Y9245741D01*
X14747086Y9245417D01*
X14745953Y9245094D01*
X14744659Y9244770D01*
X14743204Y9244446D01*
X14741423Y9243961D01*
X14739642Y9243637D01*
X14735437Y9242990D01*
X14730743Y9242505D01*
X14725568Y9242343D01*
X14723463D01*
X14722008Y9242505D01*
X14720229Y9242667D01*
X14718286Y9242828D01*
X14716022Y9243152D01*
X14713594Y9243637D01*
X14708255Y9244770D01*
X14705504Y9245579D01*
X14702914Y9246388D01*
X14700165Y9247520D01*
X14697575Y9248815D01*
X14695149Y9250271D01*
X14692883Y9252051D01*
X14692722Y9252213D01*
X14692398Y9252536D01*
X14691751Y9253022D01*
X14691104Y9253831D01*
X14690134Y9254963D01*
X14689162Y9256258D01*
X14688029Y9257714D01*
X14686897Y9259332D01*
X14685765Y9261273D01*
X14684631Y9263377D01*
X14683499Y9265804D01*
X14682367Y9268392D01*
X14681558Y9271143D01*
X14680586Y9274217D01*
X14679939Y9277453D01*
X14679456Y9280851D01*
X14701459Y9282954D01*
Y9282792D01*
X14701620Y9282469D01*
Y9281822D01*
X14701784Y9281174D01*
X14702431Y9279233D01*
X14703239Y9276806D01*
X14704210Y9274055D01*
X14705666Y9271305D01*
X14707285Y9268878D01*
X14709387Y9266613D01*
X14709711Y9266451D01*
X14710519Y9265804D01*
X14711813Y9264995D01*
X14713756Y9264024D01*
X14716183Y9263053D01*
X14718933Y9262244D01*
X14722169Y9261597D01*
X14725891Y9261435D01*
X14727670D01*
X14729613Y9261759D01*
X14732039Y9262082D01*
X14734628Y9262568D01*
X14737378Y9263377D01*
X14739967Y9264509D01*
X14742232Y9265965D01*
X14742557Y9266127D01*
X14743204Y9266774D01*
X14744012Y9267745D01*
X14745145Y9269040D01*
X14746115Y9270658D01*
X14747086Y9272599D01*
X14747733Y9274541D01*
X14747894Y9276806D01*
Y9276968D01*
Y9277453D01*
X14747733Y9278262D01*
X14747571Y9279233D01*
X14747247Y9280204D01*
X14746924Y9281336D01*
X14746277Y9282469D01*
X14745468Y9283601D01*
X14745306Y9283763D01*
X14744983Y9284087D01*
X14744498Y9284572D01*
X14743687Y9285219D01*
X14742557Y9286028D01*
X14741100Y9286837D01*
X14739482Y9287646D01*
X14737378Y9288455D01*
X14737216D01*
X14736569Y9288779D01*
X14735437Y9289103D01*
X14734628Y9289426D01*
X14733656Y9289588D01*
X14732524Y9289912D01*
X14731230Y9290397D01*
X14729774Y9290721D01*
X14728156Y9291206D01*
X14726215Y9291691D01*
X14724110Y9292177D01*
X14721846Y9292824D01*
X14719257Y9293471D01*
X14719095D01*
X14718448Y9293633D01*
X14717477Y9293957D01*
X14716344Y9294280D01*
X14714888Y9294766D01*
X14713107Y9295251D01*
X14711330Y9295898D01*
X14709225Y9296545D01*
X14705019Y9298163D01*
X14700974Y9300105D01*
X14698869Y9301076D01*
X14697090Y9302208D01*
X14695311Y9303341D01*
X14693855Y9304473D01*
X14693694Y9304635D01*
X14693369Y9304959D01*
X14692883Y9305444D01*
X14692236Y9306091D01*
X14691428Y9307062D01*
X14690619Y9308195D01*
X14689648Y9309327D01*
X14688840Y9310784D01*
X14686897Y9314181D01*
X14685278Y9318064D01*
X14684631Y9320168D01*
X14684148Y9322271D01*
X14683823Y9324698D01*
X14683661Y9327125D01*
Y9327287D01*
Y9327449D01*
Y9327934D01*
Y9328581D01*
X14683984Y9330199D01*
X14684308Y9332303D01*
X14684795Y9334730D01*
X14685603Y9337480D01*
X14686736Y9340393D01*
X14688353Y9343143D01*
Y9343305D01*
X14688515Y9343467D01*
X14689323Y9344437D01*
X14690295Y9345732D01*
X14691913Y9347350D01*
X14693855Y9349130D01*
X14696281Y9351071D01*
X14699033Y9352851D01*
X14702267Y9354469D01*
X14702431D01*
X14702753Y9354631D01*
X14703239Y9354793D01*
X14703886Y9355116D01*
X14704857Y9355440D01*
X14705827Y9355763D01*
X14707121Y9356087D01*
X14708578Y9356572D01*
X14711813Y9357220D01*
X14715535Y9357867D01*
X14719742Y9358352D01*
X14724434Y9358514D01*
X14726376D01*
X14727832Y9358352D01*
D02*
G37*
G36*
X15003212Y9244446D02*
X14983311D01*
Y9256258D01*
X14983150Y9255934D01*
X14982503Y9255125D01*
X14981371Y9253831D01*
X14979913Y9252374D01*
X14978294Y9250756D01*
X14976192Y9248977D01*
X14973927Y9247359D01*
X14971500Y9245903D01*
X14971176Y9245741D01*
X14970367Y9245417D01*
X14968912Y9244932D01*
X14967293Y9244285D01*
X14965190Y9243637D01*
X14962762Y9243152D01*
X14960336Y9242828D01*
X14957747Y9242667D01*
X14956453D01*
X14955482Y9242828D01*
X14954189Y9242990D01*
X14952893Y9243314D01*
X14951276Y9243637D01*
X14949495Y9244123D01*
X14947716Y9244608D01*
X14945773Y9245417D01*
X14943832Y9246226D01*
X14941730Y9247359D01*
X14939787Y9248653D01*
X14937685Y9250109D01*
X14935744Y9251889D01*
X14933801Y9253831D01*
X14933640Y9253992D01*
X14933316Y9254316D01*
X14932829Y9254963D01*
X14932346Y9255934D01*
X14931535Y9257067D01*
X14930727Y9258523D01*
X14929756Y9260141D01*
X14928947Y9262082D01*
X14927975Y9264186D01*
X14927005Y9266451D01*
X14926196Y9269040D01*
X14925549Y9271790D01*
X14924902Y9274864D01*
X14924417Y9278100D01*
X14924094Y9281498D01*
X14923930Y9285219D01*
Y9285381D01*
Y9286190D01*
Y9287161D01*
X14924094Y9288617D01*
X14924255Y9290397D01*
X14924417Y9292339D01*
X14924741Y9294604D01*
X14925064Y9296869D01*
X14926196Y9302046D01*
X14927005Y9304635D01*
X14927975Y9307224D01*
X14929109Y9309813D01*
X14930403Y9312240D01*
X14931859Y9314505D01*
X14933476Y9316608D01*
X14933640Y9316770D01*
X14933963Y9317094D01*
X14934448Y9317579D01*
X14935257Y9318388D01*
X14936227Y9319197D01*
X14937361Y9320006D01*
X14938655Y9320977D01*
X14940273Y9322109D01*
X14941891Y9323080D01*
X14943832Y9324051D01*
X14947878Y9325831D01*
X14950304Y9326478D01*
X14952731Y9326963D01*
X14955321Y9327287D01*
X14958070Y9327449D01*
X14959364D01*
X14960336Y9327287D01*
X14961469Y9327125D01*
X14962926Y9326802D01*
X14964381Y9326478D01*
X14966161Y9325993D01*
X14967940Y9325507D01*
X14969882Y9324698D01*
X14971823Y9323727D01*
X14973766Y9322757D01*
X14975868Y9321300D01*
X14977811Y9319844D01*
X14979752Y9318064D01*
X14981693Y9316123D01*
Y9356411D01*
X15003212D01*
Y9244446D01*
D02*
G37*
G36*
X13298347Y9244446D02*
X13278445D01*
Y9256257D01*
X13278284Y9255934D01*
X13277637Y9255125D01*
X13276505Y9253830D01*
X13275047Y9252374D01*
X13273430Y9250756D01*
X13271327Y9248976D01*
X13269061Y9247358D01*
X13266634Y9245902D01*
X13266312Y9245740D01*
X13265501Y9245417D01*
X13264046Y9244931D01*
X13262428Y9244284D01*
X13260324Y9243637D01*
X13257896Y9243152D01*
X13255470Y9242828D01*
X13252882Y9242666D01*
X13251587D01*
X13250616Y9242828D01*
X13249323Y9242990D01*
X13248029Y9243313D01*
X13246410Y9243637D01*
X13244630Y9244122D01*
X13242850Y9244608D01*
X13240907Y9245417D01*
X13238966Y9246226D01*
X13236864Y9247358D01*
X13234921Y9248653D01*
X13232819Y9250109D01*
X13230878Y9251889D01*
X13228935Y9253830D01*
X13228773Y9253992D01*
X13228450Y9254316D01*
X13227965Y9254963D01*
X13227480Y9255934D01*
X13226669Y9257066D01*
X13225861Y9258523D01*
X13224890Y9260140D01*
X13224081Y9262082D01*
X13223111Y9264185D01*
X13222141Y9266451D01*
X13221330Y9269039D01*
X13220683Y9271790D01*
X13220036Y9274864D01*
X13219551Y9278100D01*
X13219228Y9281498D01*
X13219066Y9285219D01*
Y9285381D01*
Y9286190D01*
Y9287161D01*
X13219228Y9288617D01*
X13219389Y9290397D01*
X13219551Y9292338D01*
X13219875Y9294603D01*
X13220198Y9296869D01*
X13221330Y9302046D01*
X13222141Y9304635D01*
X13223111Y9307224D01*
X13224243Y9309812D01*
X13225539Y9312239D01*
X13226994Y9314505D01*
X13228612Y9316608D01*
X13228773Y9316770D01*
X13229097Y9317093D01*
X13229584Y9317579D01*
X13230392Y9318388D01*
X13231361Y9319197D01*
X13232495Y9320006D01*
X13233789Y9320977D01*
X13235406Y9322109D01*
X13237025Y9323080D01*
X13238966Y9324051D01*
X13243011Y9325830D01*
X13245439Y9326478D01*
X13247865Y9326963D01*
X13250455Y9327287D01*
X13253204Y9327448D01*
X13254500D01*
X13255470Y9327287D01*
X13256602Y9327125D01*
X13258060Y9326801D01*
X13259515Y9326478D01*
X13261295Y9325992D01*
X13263075Y9325507D01*
X13265016Y9324698D01*
X13266959Y9323727D01*
X13268900Y9322756D01*
X13271004Y9321300D01*
X13272945Y9319844D01*
X13274886Y9318064D01*
X13276828Y9316123D01*
Y9356410D01*
X13298347D01*
Y9244446D01*
D02*
G37*
G36*
X15621281Y9327287D02*
X15623061Y9326964D01*
X15625327Y9326478D01*
X15627753Y9325669D01*
X15630180Y9324698D01*
X15632768Y9323242D01*
X15625974Y9304635D01*
X15625810Y9304797D01*
X15625002Y9305121D01*
X15624031Y9305768D01*
X15622737Y9306415D01*
X15621120Y9307062D01*
X15619501Y9307710D01*
X15617722Y9308033D01*
X15615941Y9308195D01*
X15615294D01*
X15614323Y9308033D01*
X15613353Y9307871D01*
X15612219Y9307548D01*
X15610925Y9307062D01*
X15609631Y9306415D01*
X15608337Y9305606D01*
X15608176Y9305444D01*
X15607851Y9305121D01*
X15607204Y9304474D01*
X15606557Y9303503D01*
X15605748Y9302370D01*
X15604939Y9300752D01*
X15604131Y9298811D01*
X15603484Y9296546D01*
Y9296222D01*
X15603320Y9295737D01*
X15603159Y9295251D01*
Y9294442D01*
X15602997Y9293471D01*
X15602837Y9292177D01*
X15602673Y9290721D01*
X15602512Y9289103D01*
X15602350Y9286999D01*
X15602190Y9284896D01*
Y9282307D01*
X15602026Y9279557D01*
X15601865Y9276483D01*
Y9273085D01*
Y9269363D01*
Y9244447D01*
X15580347D01*
Y9325669D01*
X15600247D01*
Y9314182D01*
X15600409Y9314343D01*
X15601056Y9315314D01*
X15602026Y9316770D01*
X15603320Y9318550D01*
X15604614Y9320330D01*
X15606233Y9322110D01*
X15607690Y9323728D01*
X15609308Y9324860D01*
X15609470Y9325022D01*
X15609955Y9325346D01*
X15610925Y9325669D01*
X15612057Y9326155D01*
X15613353Y9326640D01*
X15614970Y9327125D01*
X15616589Y9327287D01*
X15618530Y9327449D01*
X15619824D01*
X15621281Y9327287D01*
D02*
G37*
G36*
X13916415Y9327287D02*
X13918195Y9326963D01*
X13920461Y9326478D01*
X13922887Y9325669D01*
X13925314Y9324698D01*
X13927904Y9323242D01*
X13921107Y9304635D01*
X13920946Y9304797D01*
X13920135Y9305121D01*
X13919167Y9305768D01*
X13917871Y9306415D01*
X13916254Y9307062D01*
X13914635Y9307709D01*
X13912856Y9308033D01*
X13911076Y9308195D01*
X13910429D01*
X13909457Y9308033D01*
X13908487Y9307871D01*
X13907355Y9307548D01*
X13906059Y9307062D01*
X13904765Y9306415D01*
X13903471Y9305606D01*
X13903310Y9305444D01*
X13902986Y9305121D01*
X13902339Y9304473D01*
X13901692Y9303503D01*
X13900883Y9302370D01*
X13900073Y9300752D01*
X13899265Y9298810D01*
X13898618Y9296545D01*
Y9296222D01*
X13898456Y9295736D01*
X13898294Y9295251D01*
Y9294442D01*
X13898132Y9293471D01*
X13897971Y9292177D01*
X13897807Y9290721D01*
X13897647Y9289103D01*
X13897485Y9286999D01*
X13897324Y9284896D01*
Y9282307D01*
X13897160Y9279556D01*
X13896999Y9276482D01*
Y9273085D01*
Y9269363D01*
Y9244446D01*
X13875481D01*
Y9325669D01*
X13895381D01*
Y9314181D01*
X13895543Y9314343D01*
X13896190Y9315314D01*
X13897160Y9316770D01*
X13898456Y9318550D01*
X13899750Y9320330D01*
X13901369Y9322109D01*
X13902824Y9323727D01*
X13904442Y9324860D01*
X13904604Y9325022D01*
X13905089Y9325345D01*
X13906059Y9325669D01*
X13907193Y9326154D01*
X13908487Y9326640D01*
X13910104Y9327125D01*
X13911723Y9327287D01*
X13913664Y9327449D01*
X13914960D01*
X13916415Y9327287D01*
D02*
G37*
G36*
X14594997D02*
X14596776Y9327125D01*
X14598717Y9326802D01*
X14600821Y9326316D01*
X14603085Y9325669D01*
X14605351Y9324860D01*
X14605675Y9324698D01*
X14606322Y9324375D01*
X14607454Y9323889D01*
X14608749Y9323080D01*
X14610205Y9322109D01*
X14611661Y9320977D01*
X14613116Y9319682D01*
X14614412Y9318226D01*
X14614574Y9318064D01*
X14614897Y9317579D01*
X14615382Y9316770D01*
X14616029Y9315637D01*
X14616840Y9314343D01*
X14617487Y9312725D01*
X14618134Y9311107D01*
X14618617Y9309166D01*
Y9309004D01*
X14618781Y9308195D01*
X14619104Y9307062D01*
X14619266Y9305444D01*
X14619589Y9303503D01*
X14619751Y9300914D01*
X14619913Y9298163D01*
Y9294766D01*
Y9244446D01*
X14598393D01*
Y9285705D01*
Y9285867D01*
Y9286352D01*
Y9286999D01*
Y9287808D01*
Y9288941D01*
Y9290073D01*
X14598232Y9292824D01*
X14598070Y9295574D01*
X14597746Y9298487D01*
X14597423Y9300914D01*
X14597261Y9301885D01*
X14596938Y9302694D01*
Y9302855D01*
X14596614Y9303341D01*
X14596291Y9303988D01*
X14595805Y9304959D01*
X14594350Y9306900D01*
X14593539Y9307871D01*
X14592407Y9308680D01*
X14592245Y9308842D01*
X14591922Y9309004D01*
X14591275Y9309327D01*
X14590305Y9309813D01*
X14589171Y9310298D01*
X14588039Y9310622D01*
X14586581Y9310784D01*
X14584964Y9310945D01*
X14583994D01*
X14583023Y9310784D01*
X14581729Y9310622D01*
X14580112Y9310136D01*
X14578493Y9309651D01*
X14576714Y9308842D01*
X14574933Y9307871D01*
X14574771Y9307709D01*
X14574286Y9307386D01*
X14573477Y9306577D01*
X14572507Y9305768D01*
X14571535Y9304473D01*
X14570564Y9303179D01*
X14569594Y9301399D01*
X14568945Y9299619D01*
Y9299458D01*
X14568623Y9298649D01*
X14568462Y9297354D01*
X14568137Y9295413D01*
X14567976Y9294280D01*
X14567815Y9292824D01*
X14567651Y9291368D01*
Y9289588D01*
X14567490Y9287808D01*
X14567328Y9285705D01*
Y9283440D01*
Y9281013D01*
Y9244446D01*
X14545808D01*
Y9325669D01*
X14565710D01*
Y9313696D01*
X14565872Y9313858D01*
X14566196Y9314343D01*
X14566843Y9314990D01*
X14567651Y9315799D01*
X14568623Y9316932D01*
X14569917Y9318064D01*
X14571373Y9319359D01*
X14572990Y9320653D01*
X14574771Y9321786D01*
X14576875Y9323080D01*
X14578978Y9324213D01*
X14581406Y9325345D01*
X14583994Y9326154D01*
X14586581Y9326802D01*
X14589494Y9327287D01*
X14592407Y9327449D01*
X14593539D01*
X14594997Y9327287D01*
D02*
G37*
G36*
X14403751D02*
X14405530Y9327125D01*
X14407472Y9326802D01*
X14409575Y9326316D01*
X14411841Y9325669D01*
X14414107Y9324860D01*
X14414429Y9324698D01*
X14415077Y9324375D01*
X14416209Y9323889D01*
X14417503Y9323080D01*
X14418961Y9322109D01*
X14420416Y9320977D01*
X14421872Y9319682D01*
X14423166Y9318226D01*
X14423328Y9318064D01*
X14423653Y9317579D01*
X14424136Y9316770D01*
X14424783Y9315637D01*
X14425594Y9314343D01*
X14426241Y9312725D01*
X14426888Y9311107D01*
X14427373Y9309166D01*
Y9309004D01*
X14427534Y9308195D01*
X14427859Y9307062D01*
X14428020Y9305444D01*
X14428345Y9303503D01*
X14428506Y9300914D01*
X14428668Y9298163D01*
Y9294766D01*
Y9244446D01*
X14407149D01*
Y9285705D01*
Y9285867D01*
Y9286352D01*
Y9286999D01*
Y9287808D01*
Y9288941D01*
Y9290073D01*
X14406987Y9292824D01*
X14406825Y9295574D01*
X14406500Y9298487D01*
X14406178Y9300914D01*
X14406017Y9301885D01*
X14405692Y9302694D01*
Y9302855D01*
X14405370Y9303341D01*
X14405045Y9303988D01*
X14404559Y9304959D01*
X14403104Y9306900D01*
X14402295Y9307871D01*
X14401163Y9308680D01*
X14400999Y9308842D01*
X14400677Y9309004D01*
X14400029Y9309327D01*
X14399059Y9309813D01*
X14397926Y9310298D01*
X14396793Y9310622D01*
X14395337Y9310784D01*
X14393719Y9310945D01*
X14392747D01*
X14391779Y9310784D01*
X14390483Y9310622D01*
X14388866Y9310136D01*
X14387247Y9309651D01*
X14385468Y9308842D01*
X14383688Y9307871D01*
X14383527Y9307709D01*
X14383041Y9307386D01*
X14382233Y9306577D01*
X14381261Y9305768D01*
X14380290Y9304473D01*
X14379318Y9303179D01*
X14378348Y9301399D01*
X14377701Y9299619D01*
Y9299458D01*
X14377377Y9298649D01*
X14377216Y9297354D01*
X14376892Y9295413D01*
X14376730Y9294280D01*
X14376569Y9292824D01*
X14376407Y9291368D01*
Y9289588D01*
X14376245Y9287808D01*
X14376083Y9285705D01*
Y9283440D01*
Y9281013D01*
Y9244446D01*
X14354564D01*
Y9325669D01*
X14374464D01*
Y9313696D01*
X14374628Y9313858D01*
X14374951Y9314343D01*
X14375598Y9314990D01*
X14376407Y9315799D01*
X14377377Y9316932D01*
X14378671Y9318064D01*
X14380128Y9319359D01*
X14381746Y9320653D01*
X14383527Y9321786D01*
X14385629Y9323080D01*
X14387733Y9324213D01*
X14390160Y9325345D01*
X14392747Y9326154D01*
X14395337Y9326802D01*
X14398250Y9327287D01*
X14401163Y9327449D01*
X14402295D01*
X14403751Y9327287D01*
D02*
G37*
G36*
X15440714Y9327287D02*
X15442332Y9327125D01*
X15444112Y9326964D01*
X15446053Y9326802D01*
X15450098Y9326155D01*
X15454143Y9325184D01*
X15458026Y9323728D01*
X15459805Y9322919D01*
X15461424Y9321948D01*
X15461586D01*
X15461748Y9321624D01*
X15462720Y9320977D01*
X15464175Y9319683D01*
X15465793Y9317903D01*
X15467734Y9315800D01*
X15469514Y9313049D01*
X15471294Y9309813D01*
X15472588Y9306092D01*
X15452364Y9302370D01*
Y9302532D01*
X15452040Y9303179D01*
X15451717Y9303988D01*
X15451231Y9304959D01*
X15450584Y9306253D01*
X15449612Y9307386D01*
X15448642Y9308519D01*
X15447348Y9309489D01*
X15447186Y9309651D01*
X15446701Y9309975D01*
X15445892Y9310298D01*
X15444759Y9310784D01*
X15443303Y9311269D01*
X15441524Y9311755D01*
X15439420Y9311916D01*
X15436993Y9312078D01*
X15435538D01*
X15434081Y9311916D01*
X15432301Y9311755D01*
X15430197Y9311431D01*
X15428256Y9311107D01*
X15426476Y9310460D01*
X15424858Y9309651D01*
X15424696D01*
X15424535Y9309328D01*
X15423724Y9308519D01*
X15422755Y9307062D01*
X15422594Y9306253D01*
X15422430Y9305283D01*
Y9305121D01*
Y9304959D01*
X15422755Y9303988D01*
X15423402Y9302694D01*
X15423888Y9302047D01*
X15424535Y9301399D01*
X15424696Y9301238D01*
X15425343Y9301076D01*
X15425667Y9300752D01*
X15426314Y9300590D01*
X15427122Y9300267D01*
X15428094Y9299782D01*
X15429388Y9299458D01*
X15430682Y9298973D01*
X15432301Y9298487D01*
X15434242Y9298002D01*
X15436346Y9297355D01*
X15438773Y9296707D01*
X15441524Y9296060D01*
X15444597Y9295251D01*
X15444759D01*
X15445406Y9295089D01*
X15446214Y9294928D01*
X15447348Y9294604D01*
X15448804Y9294119D01*
X15450423Y9293795D01*
X15453983Y9292662D01*
X15458026Y9291206D01*
X15461909Y9289588D01*
X15463850Y9288617D01*
X15465631Y9287808D01*
X15467087Y9286676D01*
X15468542Y9285705D01*
X15468867Y9285381D01*
X15469676Y9284734D01*
X15470647Y9283440D01*
X15471941Y9281660D01*
X15473236Y9279395D01*
X15474207Y9276644D01*
X15475015Y9273408D01*
X15475339Y9269849D01*
Y9269687D01*
Y9269363D01*
Y9268716D01*
X15475177Y9267907D01*
X15475015Y9267098D01*
X15474854Y9265966D01*
X15474207Y9263215D01*
X15473074Y9260303D01*
X15472266Y9258685D01*
X15471455Y9257067D01*
X15470323Y9255449D01*
X15469029Y9253831D01*
X15467574Y9252213D01*
X15465955Y9250595D01*
X15465793Y9250433D01*
X15465469Y9250271D01*
X15464984Y9249948D01*
X15464175Y9249301D01*
X15463203Y9248815D01*
X15462071Y9248168D01*
X15460616Y9247359D01*
X15458997Y9246712D01*
X15457217Y9245903D01*
X15455115Y9245256D01*
X15452849Y9244447D01*
X15450423Y9243961D01*
X15447672Y9243476D01*
X15444759Y9242990D01*
X15441685Y9242829D01*
X15438449Y9242667D01*
X15436832D01*
X15435698Y9242829D01*
X15434242D01*
X15432623Y9242990D01*
X15430844Y9243152D01*
X15428903Y9243476D01*
X15424696Y9244285D01*
X15420328Y9245417D01*
X15415959Y9247035D01*
X15414017Y9248168D01*
X15412076Y9249301D01*
X15411914Y9249462D01*
X15411591Y9249624D01*
X15411105Y9249948D01*
X15410620Y9250595D01*
X15408839Y9252051D01*
X15406898Y9254154D01*
X15404794Y9256743D01*
X15402853Y9259817D01*
X15401074Y9263539D01*
X15399617Y9267584D01*
X15421136Y9270820D01*
Y9270496D01*
X15421460Y9269849D01*
X15421783Y9268716D01*
X15422269Y9267260D01*
X15423077Y9265642D01*
X15424049Y9264186D01*
X15425182Y9262568D01*
X15426637Y9261274D01*
X15426799Y9261112D01*
X15427448Y9260788D01*
X15428416Y9260303D01*
X15429712Y9259817D01*
X15431329Y9259170D01*
X15433434Y9258685D01*
X15435698Y9258361D01*
X15438449Y9258199D01*
X15439743D01*
X15441360Y9258361D01*
X15443141Y9258523D01*
X15445084Y9258847D01*
X15447186Y9259494D01*
X15449129Y9260141D01*
X15450906Y9261112D01*
X15451070Y9261274D01*
X15451393Y9261597D01*
X15451878Y9262083D01*
X15452364Y9262730D01*
X15452849Y9263539D01*
X15453334Y9264510D01*
X15453658Y9265642D01*
X15453819Y9266937D01*
Y9267098D01*
Y9267422D01*
X15453658Y9268393D01*
X15453172Y9269687D01*
X15452202Y9270981D01*
X15451878Y9271305D01*
X15451393Y9271467D01*
X15450746Y9271952D01*
X15449776Y9272276D01*
X15448480Y9272761D01*
X15447025Y9273247D01*
X15445084Y9273732D01*
X15444759D01*
X15443950Y9274056D01*
X15442656Y9274379D01*
X15440875Y9274703D01*
X15438773Y9275188D01*
X15436507Y9275835D01*
X15433919Y9276483D01*
X15431168Y9277292D01*
X15425505Y9278910D01*
X15422755Y9279719D01*
X15420166Y9280689D01*
X15417738Y9281498D01*
X15415474Y9282469D01*
X15413531Y9283440D01*
X15412076Y9284249D01*
X15411914Y9284411D01*
X15411591Y9284572D01*
X15411267Y9284896D01*
X15410620Y9285543D01*
X15409003Y9286999D01*
X15407384Y9289103D01*
X15405605Y9291692D01*
X15403986Y9294766D01*
X15403339Y9296546D01*
X15403015Y9298487D01*
X15402692Y9300429D01*
X15402530Y9302532D01*
Y9302694D01*
Y9303017D01*
Y9303503D01*
X15402692Y9304312D01*
X15402853Y9305121D01*
X15403015Y9306253D01*
X15403500Y9308680D01*
X15404471Y9311431D01*
X15406088Y9314343D01*
X15406898Y9315961D01*
X15408031Y9317417D01*
X15409325Y9318874D01*
X15410780Y9320168D01*
X15410944Y9320330D01*
X15411105Y9320492D01*
X15411591Y9320815D01*
X15412399Y9321301D01*
X15413208Y9321786D01*
X15414342Y9322433D01*
X15415636Y9323080D01*
X15417091Y9323889D01*
X15418871Y9324537D01*
X15420813Y9325184D01*
X15422916Y9325831D01*
X15425182Y9326316D01*
X15427769Y9326802D01*
X15430521Y9327125D01*
X15433434Y9327449D01*
X15439420D01*
X15440714Y9327287D01*
D02*
G37*
G36*
X13735849Y9327287D02*
X13737466Y9327125D01*
X13739246Y9326963D01*
X13741188Y9326802D01*
X13745233Y9326154D01*
X13749278Y9325184D01*
X13753162Y9323727D01*
X13754941Y9322918D01*
X13756560Y9321948D01*
X13756721D01*
X13756882Y9321624D01*
X13757854Y9320977D01*
X13759309Y9319682D01*
X13760927Y9317903D01*
X13762869Y9315799D01*
X13764648Y9313049D01*
X13766428Y9309813D01*
X13767723Y9306091D01*
X13747498Y9302370D01*
Y9302532D01*
X13747174Y9303179D01*
X13746851Y9303988D01*
X13746365Y9304959D01*
X13745718Y9306253D01*
X13744746Y9307386D01*
X13743777Y9308518D01*
X13742482Y9309489D01*
X13742320Y9309651D01*
X13741835Y9309975D01*
X13741026Y9310298D01*
X13739894Y9310784D01*
X13738437Y9311269D01*
X13736658Y9311754D01*
X13734554Y9311916D01*
X13732127Y9312078D01*
X13730672D01*
X13729214Y9311916D01*
X13727435Y9311754D01*
X13725333Y9311431D01*
X13723390Y9311107D01*
X13721609Y9310460D01*
X13719992Y9309651D01*
X13719830D01*
X13719669Y9309327D01*
X13718860Y9308518D01*
X13717889Y9307062D01*
X13717728Y9306253D01*
X13717564Y9305282D01*
Y9305121D01*
Y9304959D01*
X13717889Y9303988D01*
X13718536Y9302694D01*
X13719022Y9302046D01*
X13719669Y9301399D01*
X13719830Y9301237D01*
X13720477Y9301076D01*
X13720801Y9300752D01*
X13721449Y9300590D01*
X13722258Y9300267D01*
X13723228Y9299781D01*
X13724522Y9299458D01*
X13725816Y9298972D01*
X13727435Y9298487D01*
X13729378Y9298001D01*
X13731480Y9297354D01*
X13733907Y9296707D01*
X13736658Y9296060D01*
X13739732Y9295251D01*
X13739894D01*
X13740541Y9295089D01*
X13741350Y9294927D01*
X13742482Y9294604D01*
X13743938Y9294118D01*
X13745557Y9293795D01*
X13749117Y9292662D01*
X13753162Y9291206D01*
X13757043Y9289588D01*
X13758986Y9288617D01*
X13760765Y9287808D01*
X13762222Y9286676D01*
X13763678Y9285705D01*
X13764001Y9285381D01*
X13764810Y9284734D01*
X13765781Y9283440D01*
X13767076Y9281660D01*
X13768370Y9279395D01*
X13769341Y9276644D01*
X13770151Y9273408D01*
X13770473Y9269849D01*
Y9269687D01*
Y9269363D01*
Y9268716D01*
X13770312Y9267907D01*
X13770151Y9267098D01*
X13769987Y9265965D01*
X13769341Y9263215D01*
X13768208Y9260303D01*
X13767400Y9258685D01*
X13766589Y9257067D01*
X13765459Y9255449D01*
X13764163Y9253831D01*
X13762708Y9252213D01*
X13761089Y9250595D01*
X13760927Y9250433D01*
X13760603Y9250271D01*
X13760118Y9249947D01*
X13759309Y9249300D01*
X13758337Y9248815D01*
X13757207Y9248168D01*
X13755750Y9247359D01*
X13754132Y9246712D01*
X13752351Y9245903D01*
X13750249Y9245255D01*
X13747983Y9244446D01*
X13745557Y9243961D01*
X13742805Y9243476D01*
X13739894Y9242990D01*
X13736819Y9242828D01*
X13733583Y9242667D01*
X13731966D01*
X13730833Y9242828D01*
X13729378D01*
X13727759Y9242990D01*
X13725980Y9243152D01*
X13724037Y9243476D01*
X13719830Y9244285D01*
X13715462Y9245417D01*
X13711093Y9247035D01*
X13709152Y9248168D01*
X13707210Y9249300D01*
X13707050Y9249462D01*
X13706725Y9249624D01*
X13706239Y9249947D01*
X13705754Y9250595D01*
X13703973Y9252051D01*
X13702032Y9254154D01*
X13699928Y9256743D01*
X13697987Y9259817D01*
X13696208Y9263538D01*
X13694753Y9267583D01*
X13716270Y9270819D01*
Y9270496D01*
X13716595Y9269849D01*
X13716917Y9268716D01*
X13717404Y9267260D01*
X13718213Y9265642D01*
X13719183Y9264186D01*
X13720316Y9262568D01*
X13721771Y9261273D01*
X13721935Y9261112D01*
X13722581Y9260788D01*
X13723552Y9260303D01*
X13724846Y9259817D01*
X13726463Y9259170D01*
X13728568Y9258685D01*
X13730833Y9258361D01*
X13733583Y9258199D01*
X13734879D01*
X13736496Y9258361D01*
X13738277Y9258523D01*
X13740218Y9258846D01*
X13742320Y9259494D01*
X13744263Y9260141D01*
X13746042Y9261112D01*
X13746204Y9261273D01*
X13746527Y9261597D01*
X13747012Y9262082D01*
X13747498Y9262730D01*
X13747983Y9263538D01*
X13748470Y9264509D01*
X13748792Y9265642D01*
X13748953Y9266936D01*
Y9267098D01*
Y9267422D01*
X13748792Y9268392D01*
X13748306Y9269687D01*
X13747336Y9270981D01*
X13747012Y9271305D01*
X13746527Y9271467D01*
X13745880Y9271952D01*
X13744910Y9272276D01*
X13743616Y9272761D01*
X13742159Y9273246D01*
X13740218Y9273732D01*
X13739894D01*
X13739085Y9274055D01*
X13737790Y9274379D01*
X13736011Y9274703D01*
X13733907Y9275188D01*
X13731642Y9275835D01*
X13729053Y9276482D01*
X13726302Y9277291D01*
X13720641Y9278909D01*
X13717889Y9279718D01*
X13715300Y9280689D01*
X13712872Y9281498D01*
X13710608Y9282469D01*
X13708667Y9283440D01*
X13707210Y9284249D01*
X13707050Y9284410D01*
X13706725Y9284572D01*
X13706401Y9284896D01*
X13705754Y9285543D01*
X13704137Y9286999D01*
X13702518Y9289103D01*
X13700739Y9291691D01*
X13699120Y9294766D01*
X13698473Y9296545D01*
X13698151Y9298487D01*
X13697826Y9300428D01*
X13697664Y9302532D01*
Y9302694D01*
Y9303017D01*
Y9303503D01*
X13697826Y9304312D01*
X13697987Y9305121D01*
X13698151Y9306253D01*
X13698634Y9308680D01*
X13699606Y9311431D01*
X13701224Y9314343D01*
X13702032Y9315961D01*
X13703165Y9317417D01*
X13704460Y9318873D01*
X13705916Y9320168D01*
X13706078Y9320330D01*
X13706239Y9320491D01*
X13706725Y9320815D01*
X13707533Y9321300D01*
X13708344Y9321786D01*
X13709476Y9322433D01*
X13710770Y9323080D01*
X13712225Y9323889D01*
X13714006Y9324536D01*
X13715947Y9325184D01*
X13718051Y9325831D01*
X13720316Y9326316D01*
X13722905Y9326802D01*
X13725655Y9327125D01*
X13728568Y9327449D01*
X13734554D01*
X13735849Y9327287D01*
D02*
G37*
G36*
X13031218Y9327287D02*
X13032835Y9327125D01*
X13034616Y9326963D01*
X13036559Y9326801D01*
X13040604Y9326154D01*
X13044649Y9325183D01*
X13048531Y9323727D01*
X13050310Y9322918D01*
X13051929Y9321947D01*
X13052090D01*
X13052252Y9321624D01*
X13053223Y9320977D01*
X13054678Y9319682D01*
X13056297Y9317902D01*
X13058240Y9315799D01*
X13060017Y9313048D01*
X13061798Y9309812D01*
X13063092Y9306091D01*
X13042868Y9302370D01*
Y9302532D01*
X13042545Y9303179D01*
X13042221Y9303988D01*
X13041734Y9304959D01*
X13041087Y9306253D01*
X13040117Y9307385D01*
X13039146Y9308518D01*
X13037852Y9309489D01*
X13037691Y9309651D01*
X13037206Y9309974D01*
X13036395Y9310298D01*
X13035263Y9310783D01*
X13033807Y9311269D01*
X13032027Y9311754D01*
X13029924Y9311916D01*
X13027496Y9312078D01*
X13026041D01*
X13024585Y9311916D01*
X13022804Y9311754D01*
X13020702Y9311430D01*
X13018761Y9311107D01*
X13016980Y9310460D01*
X13015363Y9309651D01*
X13015199D01*
X13015038Y9309327D01*
X13014229Y9308518D01*
X13013258Y9307062D01*
X13013097Y9306253D01*
X13012935Y9305282D01*
Y9305120D01*
Y9304959D01*
X13013258Y9303988D01*
X13013905Y9302693D01*
X13014391Y9302046D01*
X13015038Y9301399D01*
X13015199Y9301237D01*
X13015846Y9301075D01*
X13016171Y9300752D01*
X13016818Y9300590D01*
X13017627Y9300266D01*
X13018597Y9299781D01*
X13019891Y9299457D01*
X13021187Y9298972D01*
X13022804Y9298487D01*
X13024747Y9298001D01*
X13026849Y9297354D01*
X13029277Y9296707D01*
X13032027Y9296060D01*
X13035101Y9295251D01*
X13035263D01*
X13035910Y9295089D01*
X13036719Y9294927D01*
X13037852Y9294603D01*
X13039308Y9294118D01*
X13040926Y9293794D01*
X13044485Y9292662D01*
X13048531Y9291206D01*
X13052414Y9289588D01*
X13054355Y9288617D01*
X13056136Y9287808D01*
X13057591Y9286675D01*
X13059048Y9285705D01*
X13059370Y9285381D01*
X13060181Y9284734D01*
X13061151Y9283439D01*
X13062445Y9281660D01*
X13063741Y9279394D01*
X13064709Y9276644D01*
X13065520Y9273408D01*
X13065843Y9269848D01*
Y9269687D01*
Y9269363D01*
Y9268716D01*
X13065681Y9267907D01*
X13065520Y9267098D01*
X13065358Y9265965D01*
X13064709Y9263215D01*
X13063577Y9260302D01*
X13062769Y9258684D01*
X13061960Y9257066D01*
X13060828Y9255448D01*
X13059534Y9253830D01*
X13058076Y9252212D01*
X13056459Y9250594D01*
X13056297Y9250433D01*
X13055972Y9250271D01*
X13055489Y9249947D01*
X13054678Y9249300D01*
X13053708Y9248815D01*
X13052576Y9248167D01*
X13051118Y9247358D01*
X13049501Y9246711D01*
X13047722Y9245902D01*
X13045618Y9245255D01*
X13043353Y9244446D01*
X13040926Y9243961D01*
X13038176Y9243475D01*
X13035263Y9242990D01*
X13032188Y9242828D01*
X13028954Y9242666D01*
X13027335D01*
X13026202Y9242828D01*
X13024747D01*
X13023128Y9242990D01*
X13021349Y9243152D01*
X13019408Y9243475D01*
X13015199Y9244284D01*
X13010832Y9245417D01*
X13006464Y9247035D01*
X13004523Y9248167D01*
X13002580Y9249300D01*
X13002419Y9249462D01*
X13002095Y9249624D01*
X13001608Y9249947D01*
X13001125Y9250594D01*
X12999344Y9252051D01*
X12997403Y9254154D01*
X12995299Y9256743D01*
X12993358Y9259817D01*
X12991579Y9263538D01*
X12990121Y9267583D01*
X13011641Y9270819D01*
Y9270496D01*
X13011964Y9269848D01*
X13012288Y9268716D01*
X13012773Y9267260D01*
X13013582Y9265642D01*
X13014552Y9264185D01*
X13015686Y9262567D01*
X13017142Y9261273D01*
X13017303Y9261111D01*
X13017950Y9260788D01*
X13018922Y9260302D01*
X13020216Y9259817D01*
X13021834Y9259170D01*
X13023936Y9258684D01*
X13026202Y9258361D01*
X13028954Y9258199D01*
X13030247D01*
X13031865Y9258361D01*
X13033646Y9258523D01*
X13035587Y9258846D01*
X13037691Y9259493D01*
X13039632Y9260140D01*
X13041412Y9261111D01*
X13041573Y9261273D01*
X13041898Y9261597D01*
X13042381Y9262082D01*
X13042868Y9262729D01*
X13043353Y9263538D01*
X13043839Y9264509D01*
X13044162Y9265642D01*
X13044324Y9266936D01*
Y9267098D01*
Y9267421D01*
X13044162Y9268392D01*
X13043677Y9269687D01*
X13042706Y9270981D01*
X13042381Y9271305D01*
X13041898Y9271466D01*
X13041251Y9271952D01*
X13040279Y9272275D01*
X13038985Y9272761D01*
X13037527Y9273246D01*
X13035587Y9273732D01*
X13035263D01*
X13034454Y9274055D01*
X13033160Y9274379D01*
X13031380Y9274702D01*
X13029277Y9275188D01*
X13027013Y9275835D01*
X13024423Y9276482D01*
X13021672Y9277291D01*
X13016010Y9278909D01*
X13013258Y9279718D01*
X13010670Y9280689D01*
X13008243Y9281498D01*
X13005978Y9282469D01*
X13004036Y9283439D01*
X13002580Y9284248D01*
X13002419Y9284410D01*
X13002095Y9284572D01*
X13001772Y9284896D01*
X13001125Y9285543D01*
X12999506Y9286999D01*
X12997888Y9289102D01*
X12996107Y9291691D01*
X12994490Y9294765D01*
X12993843Y9296545D01*
X12993520Y9298487D01*
X12993196Y9300428D01*
X12993034Y9302532D01*
Y9302693D01*
Y9303017D01*
Y9303502D01*
X12993196Y9304311D01*
X12993358Y9305120D01*
X12993520Y9306253D01*
X12994005Y9308680D01*
X12994975Y9311430D01*
X12996594Y9314343D01*
X12997403Y9315961D01*
X12998535Y9317417D01*
X12999829Y9318873D01*
X13001286Y9320168D01*
X13001447Y9320329D01*
X13001608Y9320491D01*
X13002095Y9320815D01*
X13002904Y9321300D01*
X13003712Y9321786D01*
X13004845Y9322433D01*
X13006140Y9323080D01*
X13007596Y9323889D01*
X13009377Y9324536D01*
X13011317Y9325183D01*
X13013422Y9325830D01*
X13015686Y9326316D01*
X13018274Y9326801D01*
X13021025Y9327125D01*
X13023936Y9327448D01*
X13029924D01*
X13031218Y9327287D01*
D02*
G37*
G36*
X14086140Y9244446D02*
X14061710D01*
X14021584Y9356411D01*
X14046014D01*
X14074492Y9273570D01*
X14101836Y9356411D01*
X14125945D01*
X14086140Y9244446D01*
D02*
G37*
G36*
X15239114Y9244447D02*
X15218404D01*
X15204489Y9296546D01*
X15190736Y9244447D01*
X15169864D01*
X15144299Y9325669D01*
X15165010D01*
X15180219Y9272438D01*
X15194296Y9325669D01*
X15215005D01*
X15228435Y9272438D01*
X15243968Y9325669D01*
X15265163D01*
X15239114Y9244447D01*
D02*
G37*
G36*
X13534248Y9244446D02*
X13513538D01*
X13499623Y9296545D01*
X13485870Y9244446D01*
X13464999D01*
X13439435Y9325669D01*
X13460146D01*
X13475354Y9272437D01*
X13489430Y9325669D01*
X13510139D01*
X13523570Y9272437D01*
X13539102Y9325669D01*
X13560298D01*
X13534248Y9244446D01*
D02*
G37*
G36*
X12952100D02*
X12932683D01*
X12900000Y9325669D01*
X12922490D01*
X12937862Y9284087D01*
X12942229Y9270334D01*
X12942390Y9270496D01*
X12942554Y9271143D01*
X12942877Y9272114D01*
X12943201Y9273084D01*
X12944009Y9275511D01*
X12944333Y9276482D01*
X12944495Y9277291D01*
Y9277453D01*
X12944656Y9277938D01*
X12944818Y9278585D01*
X12945142Y9279394D01*
X12945789Y9281660D01*
X12946761Y9284087D01*
X12962292Y9325669D01*
X12984297D01*
X12952100Y9244446D01*
D02*
G37*
G36*
X15298009Y9244447D02*
X15276489D01*
Y9325669D01*
X15298009D01*
Y9244447D01*
D02*
G37*
G36*
X15132812D02*
X15111293D01*
Y9356411D01*
X15132812D01*
Y9244447D01*
D02*
G37*
G36*
X14876848Y9327287D02*
X14878142D01*
X14881378Y9326963D01*
X14884776Y9326640D01*
X14888336Y9325993D01*
X14891733Y9325022D01*
X14893190Y9324536D01*
X14894646Y9323889D01*
X14894807D01*
X14894969Y9323727D01*
X14895778Y9323242D01*
X14897073Y9322595D01*
X14898529Y9321624D01*
X14900310Y9320330D01*
X14901927Y9318873D01*
X14903383Y9317094D01*
X14904677Y9315314D01*
X14904839Y9314990D01*
X14905164Y9314343D01*
X14905647Y9312887D01*
X14905811Y9312078D01*
X14906134Y9310945D01*
X14906458Y9309813D01*
X14906619Y9308357D01*
X14906943Y9306739D01*
X14907104Y9304959D01*
X14907266Y9303017D01*
X14907428Y9300914D01*
X14907590Y9298649D01*
Y9296060D01*
X14907266Y9270981D01*
Y9270819D01*
Y9270496D01*
Y9270010D01*
Y9269201D01*
Y9267260D01*
X14907428Y9264995D01*
Y9262406D01*
X14907751Y9259817D01*
X14907913Y9257228D01*
X14908237Y9255125D01*
Y9254963D01*
X14908398Y9254316D01*
X14908722Y9253183D01*
X14909045Y9251889D01*
X14909692Y9250271D01*
X14910339Y9248491D01*
X14911150Y9246550D01*
X14912120Y9244446D01*
X14890924D01*
Y9244608D01*
X14890762Y9244770D01*
X14890601Y9245417D01*
X14890277Y9246064D01*
X14889954Y9246873D01*
X14889630Y9248006D01*
X14889307Y9249300D01*
X14888821Y9250756D01*
Y9250918D01*
X14888660Y9251080D01*
X14888498Y9251727D01*
X14888174Y9252536D01*
X14888013Y9253183D01*
X14887689Y9253022D01*
X14887041Y9252374D01*
X14885909Y9251404D01*
X14884453Y9250271D01*
X14882674Y9248977D01*
X14880731Y9247520D01*
X14878465Y9246388D01*
X14876201Y9245255D01*
X14875877Y9245094D01*
X14875069Y9244932D01*
X14873775Y9244446D01*
X14872156Y9243961D01*
X14870213Y9243476D01*
X14867949Y9243152D01*
X14865359Y9242828D01*
X14862772Y9242667D01*
X14861639D01*
X14860667Y9242828D01*
X14859697D01*
X14858403Y9242990D01*
X14855653Y9243476D01*
X14852417Y9244285D01*
X14849181Y9245417D01*
X14845946Y9247035D01*
X14843031Y9249300D01*
Y9249462D01*
X14842709Y9249624D01*
X14841901Y9250595D01*
X14840767Y9252051D01*
X14839473Y9253992D01*
X14838177Y9256419D01*
X14837045Y9259332D01*
X14836237Y9262730D01*
X14836075Y9264509D01*
X14835913Y9266451D01*
Y9266774D01*
Y9267583D01*
X14836075Y9268878D01*
X14836398Y9270496D01*
X14836722Y9272437D01*
X14837209Y9274379D01*
X14838017Y9276482D01*
X14839149Y9278586D01*
X14839311Y9278909D01*
X14839796Y9279556D01*
X14840443Y9280527D01*
X14841576Y9281660D01*
X14842709Y9282954D01*
X14844327Y9284410D01*
X14846106Y9285705D01*
X14848210Y9286837D01*
X14848534Y9286999D01*
X14849342Y9287323D01*
X14850636Y9287808D01*
X14852579Y9288617D01*
X14855005Y9289426D01*
X14857918Y9290235D01*
X14861478Y9291044D01*
X14865359Y9291853D01*
X14865521D01*
X14866008Y9292015D01*
X14866817Y9292177D01*
X14867787Y9292339D01*
X14869083Y9292500D01*
X14870538Y9292824D01*
X14873775Y9293633D01*
X14877171Y9294442D01*
X14880731Y9295251D01*
X14883804Y9296222D01*
X14885262Y9296707D01*
X14886394Y9297192D01*
Y9299296D01*
Y9299619D01*
Y9300267D01*
X14886232Y9301399D01*
X14886070Y9302855D01*
X14885585Y9304312D01*
X14885100Y9305768D01*
X14884291Y9307062D01*
X14883157Y9308195D01*
X14882996Y9308357D01*
X14882510Y9308680D01*
X14881702Y9309004D01*
X14880569Y9309651D01*
X14878951Y9310136D01*
X14877010Y9310460D01*
X14874583Y9310784D01*
X14871671Y9310945D01*
X14870700D01*
X14869730Y9310784D01*
X14868436Y9310622D01*
X14866978Y9310298D01*
X14865359Y9309975D01*
X14863904Y9309327D01*
X14862610Y9308518D01*
X14862448Y9308357D01*
X14862125Y9308033D01*
X14861478Y9307548D01*
X14860831Y9306739D01*
X14859859Y9305606D01*
X14859050Y9304150D01*
X14858241Y9302532D01*
X14857433Y9300590D01*
X14838177Y9304150D01*
Y9304312D01*
X14838341Y9304635D01*
X14838503Y9305282D01*
X14838826Y9306091D01*
X14839149Y9307062D01*
X14839635Y9308195D01*
X14840767Y9310784D01*
X14842384Y9313534D01*
X14844327Y9316446D01*
X14846593Y9319197D01*
X14849342Y9321624D01*
X14849504D01*
X14849666Y9321948D01*
X14850151Y9322109D01*
X14850800Y9322595D01*
X14851768Y9322918D01*
X14852740Y9323404D01*
X14854034Y9324051D01*
X14855328Y9324536D01*
X14856947Y9325022D01*
X14858727Y9325669D01*
X14860667Y9326154D01*
X14862933Y9326478D01*
X14865199Y9326963D01*
X14867787Y9327125D01*
X14870377Y9327449D01*
X14875716D01*
X14876848Y9327287D01*
D02*
G37*
G36*
X14523967Y9244446D02*
X14502448D01*
Y9325669D01*
X14523967D01*
Y9244446D01*
D02*
G37*
G36*
X14245674D02*
X14224155D01*
Y9356411D01*
X14245674D01*
Y9244446D01*
D02*
G37*
G36*
X14172380Y9327287D02*
X14173674D01*
X14176910Y9326963D01*
X14180309Y9326640D01*
X14183867Y9325993D01*
X14187265Y9325022D01*
X14188721Y9324536D01*
X14190176Y9323889D01*
X14190340D01*
X14190501Y9323727D01*
X14191310Y9323242D01*
X14192604Y9322595D01*
X14194061Y9321624D01*
X14195840Y9320330D01*
X14197458Y9318873D01*
X14198914Y9317094D01*
X14200209Y9315314D01*
X14200371Y9314990D01*
X14200694Y9314343D01*
X14201180Y9312887D01*
X14201341Y9312078D01*
X14201665Y9310945D01*
X14201990Y9309813D01*
X14202150Y9308357D01*
X14202473Y9306739D01*
X14202637Y9304959D01*
X14202798Y9303017D01*
X14202959Y9300914D01*
X14203120Y9298649D01*
Y9296060D01*
X14202798Y9270981D01*
Y9270819D01*
Y9270496D01*
Y9270010D01*
Y9269201D01*
Y9267260D01*
X14202959Y9264995D01*
Y9262406D01*
X14203284Y9259817D01*
X14203445Y9257228D01*
X14203767Y9255125D01*
Y9254963D01*
X14203931Y9254316D01*
X14204254Y9253183D01*
X14204578Y9251889D01*
X14205225Y9250271D01*
X14205872Y9248491D01*
X14206680Y9246550D01*
X14207652Y9244446D01*
X14186456D01*
Y9244608D01*
X14186295Y9244770D01*
X14186131Y9245417D01*
X14185809Y9246064D01*
X14185484Y9246873D01*
X14185162Y9248006D01*
X14184837Y9249300D01*
X14184354Y9250756D01*
Y9250918D01*
X14184190Y9251080D01*
X14184029Y9251727D01*
X14183705Y9252536D01*
X14183543Y9253183D01*
X14183220Y9253022D01*
X14182573Y9252374D01*
X14181441Y9251404D01*
X14179984Y9250271D01*
X14178204Y9248977D01*
X14176263Y9247520D01*
X14173997Y9246388D01*
X14171732Y9245255D01*
X14171410Y9245094D01*
X14170599Y9244932D01*
X14169305Y9244446D01*
X14167686Y9243961D01*
X14165746Y9243476D01*
X14163481Y9243152D01*
X14160892Y9242828D01*
X14158302Y9242667D01*
X14157172D01*
X14156200Y9242828D01*
X14155229D01*
X14153935Y9242990D01*
X14151184Y9243476D01*
X14147948Y9244285D01*
X14144711Y9245417D01*
X14141476Y9247035D01*
X14138564Y9249300D01*
Y9249462D01*
X14138240Y9249624D01*
X14137431Y9250595D01*
X14136299Y9252051D01*
X14135004Y9253992D01*
X14133710Y9256419D01*
X14132578Y9259332D01*
X14131767Y9262730D01*
X14131606Y9264509D01*
X14131445Y9266451D01*
Y9266774D01*
Y9267583D01*
X14131606Y9268878D01*
X14131931Y9270496D01*
X14132254Y9272437D01*
X14132739Y9274379D01*
X14133548Y9276482D01*
X14134682Y9278586D01*
X14134842Y9278909D01*
X14135329Y9279556D01*
X14135976Y9280527D01*
X14137108Y9281660D01*
X14138240Y9282954D01*
X14139857Y9284410D01*
X14141638Y9285705D01*
X14143741Y9286837D01*
X14144064Y9286999D01*
X14144875Y9287323D01*
X14146169Y9287808D01*
X14148109Y9288617D01*
X14150537Y9289426D01*
X14153448Y9290235D01*
X14157008Y9291044D01*
X14160892Y9291853D01*
X14161053D01*
X14161539Y9292015D01*
X14162347Y9292177D01*
X14163319Y9292339D01*
X14164613Y9292500D01*
X14166069Y9292824D01*
X14169305Y9293633D01*
X14172704Y9294442D01*
X14176263Y9295251D01*
X14179337Y9296222D01*
X14180794Y9296707D01*
X14181926Y9297192D01*
Y9299296D01*
Y9299619D01*
Y9300267D01*
X14181764Y9301399D01*
X14181602Y9302855D01*
X14181117Y9304312D01*
X14180630Y9305768D01*
X14179822Y9307062D01*
X14178690Y9308195D01*
X14178528Y9308357D01*
X14178043Y9308680D01*
X14177234Y9309004D01*
X14176102Y9309651D01*
X14174483Y9310136D01*
X14172540Y9310460D01*
X14170114Y9310784D01*
X14167203Y9310945D01*
X14166231D01*
X14165260Y9310784D01*
X14163966Y9310622D01*
X14162511Y9310298D01*
X14160892Y9309975D01*
X14159436Y9309327D01*
X14158141Y9308518D01*
X14157980Y9308357D01*
X14157655Y9308033D01*
X14157008Y9307548D01*
X14156361Y9306739D01*
X14155391Y9305606D01*
X14154582Y9304150D01*
X14153773Y9302532D01*
X14152963Y9300590D01*
X14133710Y9304150D01*
Y9304312D01*
X14133871Y9304635D01*
X14134033Y9305282D01*
X14134357Y9306091D01*
X14134682Y9307062D01*
X14135165Y9308195D01*
X14136299Y9310784D01*
X14137917Y9313534D01*
X14139857Y9316446D01*
X14142123Y9319197D01*
X14144875Y9321624D01*
X14145036D01*
X14145198Y9321948D01*
X14145683Y9322109D01*
X14146330Y9322595D01*
X14147301Y9322918D01*
X14148273Y9323404D01*
X14149567Y9324051D01*
X14150861Y9324536D01*
X14152478Y9325022D01*
X14154259Y9325669D01*
X14156200Y9326154D01*
X14158466Y9326478D01*
X14160730Y9326963D01*
X14163319Y9327125D01*
X14165907Y9327449D01*
X14171246D01*
X14172380Y9327287D01*
D02*
G37*
G36*
X13593143Y9244446D02*
X13571625D01*
Y9325669D01*
X13593143D01*
Y9244446D01*
D02*
G37*
G36*
X13427946D02*
X13406429D01*
Y9356410D01*
X13427946D01*
Y9244446D01*
D02*
G37*
G36*
X13171983Y9327287D02*
X13173277D01*
X13176514Y9326963D01*
X13179910Y9326639D01*
X13183470Y9325992D01*
X13186868Y9325021D01*
X13188324Y9324536D01*
X13189780Y9323889D01*
X13189941D01*
X13190105Y9323727D01*
X13190913Y9323242D01*
X13192207Y9322595D01*
X13193663Y9321624D01*
X13195444Y9320329D01*
X13197061Y9318873D01*
X13198517Y9317093D01*
X13199812Y9315314D01*
X13199974Y9314990D01*
X13200298Y9314343D01*
X13200783Y9312887D01*
X13200945Y9312078D01*
X13201268Y9310945D01*
X13201591Y9309812D01*
X13201753Y9308356D01*
X13202077Y9306738D01*
X13202238Y9304959D01*
X13202402Y9303017D01*
X13202562Y9300914D01*
X13202724Y9298648D01*
Y9296060D01*
X13202402Y9270981D01*
Y9270819D01*
Y9270496D01*
Y9270010D01*
Y9269201D01*
Y9267260D01*
X13202562Y9264994D01*
Y9262406D01*
X13202885Y9259817D01*
X13203049Y9257228D01*
X13203371Y9255125D01*
Y9254963D01*
X13203532Y9254316D01*
X13203857Y9253183D01*
X13204179Y9251889D01*
X13204828Y9250271D01*
X13205475Y9248491D01*
X13206284Y9246549D01*
X13207256Y9244446D01*
X13186060D01*
Y9244608D01*
X13185896Y9244770D01*
X13185735Y9245417D01*
X13185413Y9246064D01*
X13185088Y9246873D01*
X13184766Y9248006D01*
X13184441Y9249300D01*
X13183955Y9250756D01*
Y9250918D01*
X13183794Y9251080D01*
X13183632Y9251727D01*
X13183308Y9252536D01*
X13183147Y9253183D01*
X13182823Y9253021D01*
X13182176Y9252374D01*
X13181042Y9251403D01*
X13179587Y9250271D01*
X13177808Y9248976D01*
X13175867Y9247520D01*
X13173601Y9246388D01*
X13171335Y9245255D01*
X13171011Y9245093D01*
X13170203Y9244931D01*
X13168909Y9244446D01*
X13167290Y9243961D01*
X13165349Y9243475D01*
X13163084Y9243152D01*
X13160495Y9242828D01*
X13157906Y9242666D01*
X13156773D01*
X13155803Y9242828D01*
X13154832D01*
X13153539Y9242990D01*
X13150787Y9243475D01*
X13147551Y9244284D01*
X13144315Y9245417D01*
X13141080Y9247035D01*
X13138167Y9249300D01*
Y9249462D01*
X13137843Y9249624D01*
X13137035Y9250594D01*
X13135902Y9252051D01*
X13134607Y9253992D01*
X13133313Y9256419D01*
X13132179Y9259331D01*
X13131371Y9262729D01*
X13131209Y9264509D01*
X13131049Y9266451D01*
Y9266774D01*
Y9267583D01*
X13131209Y9268878D01*
X13131532Y9270496D01*
X13131857Y9272437D01*
X13132343Y9274379D01*
X13133151Y9276482D01*
X13134283Y9278585D01*
X13134445Y9278909D01*
X13134930Y9279556D01*
X13135577Y9280527D01*
X13136711Y9281660D01*
X13137843Y9282954D01*
X13139461Y9284410D01*
X13141241Y9285705D01*
X13143344Y9286837D01*
X13143668Y9286999D01*
X13144476Y9287323D01*
X13145770Y9287808D01*
X13147713Y9288617D01*
X13150140Y9289426D01*
X13153052Y9290235D01*
X13156612Y9291044D01*
X13160495Y9291853D01*
X13160657D01*
X13161142Y9292015D01*
X13161951Y9292176D01*
X13162923Y9292338D01*
X13164217Y9292500D01*
X13165672Y9292824D01*
X13168909Y9293633D01*
X13172305Y9294442D01*
X13175867Y9295251D01*
X13178940Y9296221D01*
X13180396Y9296707D01*
X13181529Y9297192D01*
Y9299296D01*
Y9299619D01*
Y9300266D01*
X13181367Y9301399D01*
X13181206Y9302855D01*
X13180721Y9304311D01*
X13180234Y9305768D01*
X13179425Y9307062D01*
X13178293Y9308194D01*
X13178131Y9308356D01*
X13177644Y9308680D01*
X13176836Y9309003D01*
X13175703Y9309651D01*
X13174086Y9310136D01*
X13172144Y9310460D01*
X13169717Y9310783D01*
X13166805Y9310945D01*
X13165834D01*
X13164864Y9310783D01*
X13163570Y9310621D01*
X13162112Y9310298D01*
X13160495Y9309974D01*
X13159039Y9309327D01*
X13157744Y9308518D01*
X13157584Y9308356D01*
X13157259Y9308033D01*
X13156612Y9307547D01*
X13155965Y9306738D01*
X13154994Y9305606D01*
X13154185Y9304150D01*
X13153375Y9302532D01*
X13152567Y9300590D01*
X13133313Y9304150D01*
Y9304311D01*
X13133475Y9304635D01*
X13133636Y9305282D01*
X13133960Y9306091D01*
X13134283Y9307062D01*
X13134769Y9308194D01*
X13135902Y9310783D01*
X13137520Y9313534D01*
X13139461Y9316446D01*
X13141727Y9319197D01*
X13144476Y9321624D01*
X13144640D01*
X13144800Y9321947D01*
X13145287Y9322109D01*
X13145934Y9322595D01*
X13146904Y9322918D01*
X13147874Y9323404D01*
X13149168Y9324051D01*
X13150462Y9324536D01*
X13152081Y9325021D01*
X13153860Y9325669D01*
X13155803Y9326154D01*
X13158067Y9326478D01*
X13160333Y9326963D01*
X13162923Y9327125D01*
X13165511Y9327448D01*
X13170850D01*
X13171983Y9327287D01*
D02*
G37*
G36*
X15528085Y9327287D02*
X15529541Y9327125D01*
X15531322Y9326802D01*
X15533263Y9326478D01*
X15535365Y9325993D01*
X15537631Y9325346D01*
X15539896Y9324537D01*
X15542323Y9323566D01*
X15544749Y9322271D01*
X15547015Y9320977D01*
X15549281Y9319359D01*
X15551546Y9317417D01*
X15553487Y9315314D01*
X15553648Y9315152D01*
X15553973Y9314829D01*
X15554459Y9314020D01*
X15555106Y9313049D01*
X15555914Y9311755D01*
X15556723Y9310298D01*
X15557693Y9308357D01*
X15558665Y9306253D01*
X15559636Y9303826D01*
X15560606Y9301076D01*
X15561415Y9298164D01*
X15562224Y9294766D01*
X15562872Y9291206D01*
X15563358Y9287323D01*
X15563681Y9283278D01*
Y9278748D01*
X15509964D01*
Y9278586D01*
Y9278262D01*
Y9277777D01*
X15510126Y9277130D01*
X15510287Y9275512D01*
X15510611Y9273247D01*
X15511258Y9270981D01*
X15512228Y9268393D01*
X15513361Y9265966D01*
X15514980Y9263862D01*
X15515141Y9263701D01*
X15515950Y9263053D01*
X15516920Y9262244D01*
X15518378Y9261274D01*
X15520157Y9260303D01*
X15522421Y9259494D01*
X15524849Y9258847D01*
X15527438Y9258685D01*
X15528247D01*
X15529218Y9258847D01*
X15530350Y9259008D01*
X15531645Y9259332D01*
X15533101Y9259817D01*
X15534557Y9260465D01*
X15535851Y9261435D01*
X15536012Y9261597D01*
X15536499Y9261921D01*
X15537146Y9262568D01*
X15537793Y9263539D01*
X15538763Y9264833D01*
X15539574Y9266289D01*
X15540382Y9268231D01*
X15541191Y9270334D01*
X15562547Y9266775D01*
Y9266613D01*
X15562386Y9266289D01*
X15562064Y9265642D01*
X15561739Y9264833D01*
X15561253Y9263862D01*
X15560768Y9262730D01*
X15559312Y9260141D01*
X15557532Y9257229D01*
X15555267Y9254154D01*
X15552518Y9251404D01*
X15549442Y9248815D01*
X15549281D01*
X15549120Y9248492D01*
X15548473Y9248330D01*
X15547824Y9247844D01*
X15547015Y9247359D01*
X15545883Y9246874D01*
X15544749Y9246388D01*
X15543294Y9245741D01*
X15540057Y9244608D01*
X15536337Y9243638D01*
X15531969Y9242990D01*
X15527277Y9242667D01*
X15526305D01*
X15525334Y9242829D01*
X15523878D01*
X15522098Y9243152D01*
X15519995Y9243476D01*
X15517731Y9243799D01*
X15515465Y9244447D01*
X15512875Y9245094D01*
X15510287Y9246065D01*
X15507698Y9247197D01*
X15505110Y9248492D01*
X15502521Y9250110D01*
X15500095Y9251889D01*
X15497990Y9253993D01*
X15495888Y9256420D01*
X15495724Y9256581D01*
X15495564Y9256905D01*
X15495239Y9257552D01*
X15494592Y9258361D01*
X15494107Y9259494D01*
X15493460Y9260788D01*
X15492651Y9262244D01*
X15492004Y9264024D01*
X15491196Y9265966D01*
X15490549Y9268069D01*
X15489738Y9270334D01*
X15489255Y9272923D01*
X15488768Y9275512D01*
X15488283Y9278262D01*
X15488121Y9281337D01*
X15487959Y9284411D01*
Y9284572D01*
Y9285220D01*
Y9286352D01*
X15488121Y9287808D01*
X15488283Y9289426D01*
X15488445Y9291368D01*
X15488768Y9293471D01*
X15489255Y9295898D01*
X15490549Y9300914D01*
X15491357Y9303503D01*
X15492328Y9306253D01*
X15493622Y9308842D01*
X15495078Y9311269D01*
X15496696Y9313696D01*
X15498476Y9315961D01*
X15498637Y9316123D01*
X15498961Y9316447D01*
X15499609Y9317094D01*
X15500418Y9317741D01*
X15501389Y9318550D01*
X15502682Y9319521D01*
X15504140Y9320653D01*
X15505757Y9321786D01*
X15507536Y9322757D01*
X15509641Y9323889D01*
X15511743Y9324860D01*
X15514169Y9325669D01*
X15516597Y9326316D01*
X15519348Y9326964D01*
X15522098Y9327287D01*
X15525011Y9327449D01*
X15526791D01*
X15528085Y9327287D01*
D02*
G37*
G36*
X15353990D02*
X15355447Y9327125D01*
X15357227Y9326802D01*
X15359167Y9326478D01*
X15361272Y9325993D01*
X15363536Y9325346D01*
X15365802Y9324537D01*
X15368230Y9323566D01*
X15370656Y9322271D01*
X15372922Y9320977D01*
X15375186Y9319359D01*
X15377451Y9317417D01*
X15379393Y9315314D01*
X15379555Y9315152D01*
X15379878Y9314829D01*
X15380363Y9314020D01*
X15381010Y9313049D01*
X15381821Y9311755D01*
X15382629Y9310298D01*
X15383598Y9308357D01*
X15384570Y9306253D01*
X15385541Y9303826D01*
X15386513Y9301076D01*
X15387321Y9298164D01*
X15388130Y9294766D01*
X15388777Y9291206D01*
X15389262Y9287323D01*
X15389586Y9283278D01*
Y9278748D01*
X15335869D01*
Y9278586D01*
Y9278262D01*
Y9277777D01*
X15336031Y9277130D01*
X15336192Y9275512D01*
X15336516Y9273247D01*
X15337163Y9270981D01*
X15338133Y9268393D01*
X15339267Y9265966D01*
X15340884Y9263862D01*
X15341048Y9263701D01*
X15341856Y9263053D01*
X15342825Y9262244D01*
X15344283Y9261274D01*
X15346062Y9260303D01*
X15348328Y9259494D01*
X15350754Y9258847D01*
X15353343Y9258685D01*
X15354152D01*
X15355122Y9258847D01*
X15356256Y9259008D01*
X15357550Y9259332D01*
X15359006Y9259817D01*
X15360461Y9260465D01*
X15361757Y9261435D01*
X15361919Y9261597D01*
X15362404Y9261921D01*
X15363051Y9262568D01*
X15363698Y9263539D01*
X15364668Y9264833D01*
X15365479Y9266289D01*
X15366287Y9268231D01*
X15367096Y9270334D01*
X15388454Y9266775D01*
Y9266613D01*
X15388292Y9266289D01*
X15387968Y9265642D01*
X15387643Y9264833D01*
X15387160Y9263862D01*
X15386674Y9262730D01*
X15385217Y9260141D01*
X15383438Y9257229D01*
X15381172Y9254154D01*
X15378423Y9251404D01*
X15375348Y9248815D01*
X15375186D01*
X15375024Y9248492D01*
X15374377Y9248330D01*
X15373730Y9247844D01*
X15372922Y9247359D01*
X15371788Y9246874D01*
X15370656Y9246388D01*
X15369199Y9245741D01*
X15365964Y9244608D01*
X15362242Y9243638D01*
X15357874Y9242990D01*
X15353181Y9242667D01*
X15352211D01*
X15351241Y9242829D01*
X15349783D01*
X15348004Y9243152D01*
X15345900Y9243476D01*
X15343636Y9243799D01*
X15341370Y9244447D01*
X15338782Y9245094D01*
X15336192Y9246065D01*
X15333604Y9247197D01*
X15331015Y9248492D01*
X15328426Y9250110D01*
X15325999Y9251889D01*
X15323895Y9253993D01*
X15321793Y9256420D01*
X15321631Y9256581D01*
X15321469Y9256905D01*
X15321146Y9257552D01*
X15320499Y9258361D01*
X15320013Y9259494D01*
X15319366Y9260788D01*
X15318558Y9262244D01*
X15317909Y9264024D01*
X15317101Y9265966D01*
X15316454Y9268069D01*
X15315643Y9270334D01*
X15315160Y9272923D01*
X15314673Y9275512D01*
X15314188Y9278262D01*
X15314026Y9281337D01*
X15313864Y9284411D01*
Y9284572D01*
Y9285220D01*
Y9286352D01*
X15314026Y9287808D01*
X15314188Y9289426D01*
X15314349Y9291368D01*
X15314673Y9293471D01*
X15315160Y9295898D01*
X15316454Y9300914D01*
X15317262Y9303503D01*
X15318233Y9306253D01*
X15319527Y9308842D01*
X15320984Y9311269D01*
X15322601Y9313696D01*
X15324380Y9315961D01*
X15324544Y9316123D01*
X15324867Y9316447D01*
X15325514Y9317094D01*
X15326323Y9317741D01*
X15327293Y9318550D01*
X15328587Y9319521D01*
X15330045Y9320653D01*
X15331662Y9321786D01*
X15333443Y9322757D01*
X15335545Y9323889D01*
X15337650Y9324860D01*
X15340076Y9325669D01*
X15342503Y9326316D01*
X15345253Y9326964D01*
X15348004Y9327287D01*
X15350916Y9327449D01*
X15352696D01*
X15353990Y9327287D01*
D02*
G37*
G36*
X15058224Y9327287D02*
X15059680Y9327125D01*
X15061459Y9326802D01*
X15063400Y9326478D01*
X15065504Y9325993D01*
X15067770Y9325345D01*
X15070035Y9324536D01*
X15072462Y9323566D01*
X15074889Y9322271D01*
X15077155Y9320977D01*
X15079419Y9319359D01*
X15081683Y9317417D01*
X15083626Y9315314D01*
X15083788Y9315152D01*
X15084111Y9314829D01*
X15084596Y9314020D01*
X15085245Y9313049D01*
X15086053Y9311755D01*
X15086862Y9310298D01*
X15087833Y9308357D01*
X15088803Y9306253D01*
X15089774Y9303826D01*
X15090746Y9301076D01*
X15091554Y9298164D01*
X15092363Y9294766D01*
X15093010Y9291206D01*
X15093497Y9287323D01*
X15093819Y9283278D01*
Y9278748D01*
X15040102Y9278748D01*
Y9278586D01*
Y9278262D01*
Y9277777D01*
X15040263Y9277130D01*
X15040427Y9275512D01*
X15040749Y9273246D01*
X15041397Y9270981D01*
X15042368Y9268392D01*
X15043500Y9265965D01*
X15045119Y9263862D01*
X15045280Y9263700D01*
X15046089Y9263053D01*
X15047060Y9262244D01*
X15048515Y9261273D01*
X15050296Y9260303D01*
X15052560Y9259494D01*
X15054988Y9258846D01*
X15057576Y9258685D01*
X15058385D01*
X15059357Y9258846D01*
X15060489Y9259008D01*
X15061783Y9259332D01*
X15063239Y9259817D01*
X15064696Y9260464D01*
X15065990Y9261435D01*
X15066151Y9261597D01*
X15066637Y9261921D01*
X15067284Y9262568D01*
X15067932Y9263538D01*
X15068903Y9264833D01*
X15069711Y9266289D01*
X15070520Y9268231D01*
X15071329Y9270334D01*
X15092686Y9266775D01*
Y9266613D01*
X15092525Y9266289D01*
X15092201Y9265642D01*
X15091878Y9264833D01*
X15091393Y9263862D01*
X15090907Y9262730D01*
X15089452Y9260141D01*
X15087671Y9257229D01*
X15085406Y9254154D01*
X15082655Y9251404D01*
X15079581Y9248815D01*
X15079419D01*
X15079257Y9248492D01*
X15078610Y9248329D01*
X15077963Y9247844D01*
X15077155Y9247359D01*
X15076021Y9246873D01*
X15074889Y9246388D01*
X15073433Y9245741D01*
X15070197Y9244608D01*
X15066475Y9243637D01*
X15062106Y9242990D01*
X15057414Y9242667D01*
X15056444D01*
X15055473Y9242828D01*
X15054018D01*
X15052237Y9243152D01*
X15050134Y9243476D01*
X15047868Y9243799D01*
X15045602Y9244446D01*
X15043015Y9245094D01*
X15040427Y9246064D01*
X15037837Y9247197D01*
X15035248Y9248491D01*
X15032660Y9250109D01*
X15030232Y9251889D01*
X15028130Y9253992D01*
X15026025Y9256419D01*
X15025864Y9256581D01*
X15025702Y9256905D01*
X15025378Y9257552D01*
X15024731Y9258361D01*
X15024246Y9259494D01*
X15023599Y9260788D01*
X15022791Y9262244D01*
X15022144Y9264024D01*
X15021333Y9265965D01*
X15020686Y9268069D01*
X15019878Y9270334D01*
X15019392Y9272923D01*
X15018907Y9275512D01*
X15018420Y9278262D01*
X15018260Y9281336D01*
X15018098Y9284410D01*
Y9284572D01*
Y9285219D01*
Y9286352D01*
X15018260Y9287808D01*
X15018420Y9289426D01*
X15018584Y9291368D01*
X15018907Y9293471D01*
X15019392Y9295898D01*
X15020686Y9300914D01*
X15021495Y9303503D01*
X15022466Y9306253D01*
X15023761Y9308842D01*
X15025217Y9311269D01*
X15026836Y9313696D01*
X15028615Y9315961D01*
X15028777Y9316123D01*
X15029100Y9316446D01*
X15029747Y9317094D01*
X15030556Y9317741D01*
X15031528Y9318550D01*
X15032822Y9319521D01*
X15034277Y9320653D01*
X15035896Y9321786D01*
X15037675Y9322757D01*
X15039780Y9323889D01*
X15041882Y9324860D01*
X15044308Y9325669D01*
X15046736Y9326316D01*
X15049487Y9326963D01*
X15052237Y9327287D01*
X15055148Y9327449D01*
X15056929D01*
X15058224Y9327287D01*
D02*
G37*
G36*
X14812129Y9325669D02*
X14826852D01*
Y9308518D01*
X14812129D01*
Y9275673D01*
Y9275512D01*
Y9275188D01*
Y9274703D01*
Y9274055D01*
Y9272437D01*
Y9270496D01*
X14812291Y9268554D01*
Y9266613D01*
Y9265156D01*
X14812453Y9264509D01*
Y9264186D01*
X14812614Y9263862D01*
X14812938Y9263215D01*
X14813423Y9262406D01*
X14814394Y9261435D01*
X14814719Y9261273D01*
X14815366Y9260950D01*
X14816496Y9260626D01*
X14817953Y9260464D01*
X14818600D01*
X14819247Y9260626D01*
X14820219Y9260788D01*
X14821513Y9260950D01*
X14822969Y9261273D01*
X14824750Y9261759D01*
X14826691Y9262406D01*
X14828632Y9245741D01*
X14828470D01*
X14828310Y9245579D01*
X14827338Y9245255D01*
X14825720Y9244770D01*
X14823618Y9244285D01*
X14821190Y9243637D01*
X14818277Y9243152D01*
X14815041Y9242828D01*
X14811642Y9242667D01*
X14810674D01*
X14809540Y9242828D01*
X14808084Y9242990D01*
X14806467Y9243152D01*
X14804686Y9243476D01*
X14802905Y9243961D01*
X14801128Y9244608D01*
X14800964Y9244770D01*
X14800317Y9244932D01*
X14799509Y9245417D01*
X14798538Y9245903D01*
X14796272Y9247520D01*
X14795140Y9248491D01*
X14794170Y9249624D01*
X14794006Y9249786D01*
X14793846Y9250271D01*
X14793523Y9250918D01*
X14793037Y9251889D01*
X14792551Y9253022D01*
X14792065Y9254478D01*
X14791582Y9256096D01*
X14791257Y9257876D01*
Y9258037D01*
X14791095Y9258685D01*
Y9259655D01*
X14790933Y9261273D01*
X14790771Y9263377D01*
Y9265965D01*
X14790610Y9267422D01*
Y9269201D01*
Y9270981D01*
Y9273085D01*
Y9308518D01*
X14780740D01*
Y9325669D01*
X14790610D01*
Y9341849D01*
X14812129Y9354469D01*
Y9325669D01*
D02*
G37*
G36*
X14473000D02*
X14487724D01*
Y9308518D01*
X14473000D01*
Y9275673D01*
Y9275512D01*
Y9275188D01*
Y9274703D01*
Y9274055D01*
Y9272437D01*
Y9270496D01*
X14473161Y9268554D01*
Y9266613D01*
Y9265156D01*
X14473325Y9264509D01*
Y9264186D01*
X14473486Y9263862D01*
X14473808Y9263215D01*
X14474295Y9262406D01*
X14475266Y9261435D01*
X14475589Y9261273D01*
X14476236Y9260950D01*
X14477370Y9260626D01*
X14478825Y9260464D01*
X14479472D01*
X14480119Y9260626D01*
X14481090Y9260788D01*
X14482385Y9260950D01*
X14483841Y9261273D01*
X14485622Y9261759D01*
X14487563Y9262406D01*
X14489503Y9245741D01*
X14489342D01*
X14489180Y9245579D01*
X14488210Y9245255D01*
X14486591Y9244770D01*
X14484488Y9244285D01*
X14482060Y9243637D01*
X14479149Y9243152D01*
X14475912Y9242828D01*
X14472514Y9242667D01*
X14471544D01*
X14470412Y9242828D01*
X14468954Y9242990D01*
X14467337Y9243152D01*
X14465558Y9243476D01*
X14463779Y9243961D01*
X14461998Y9244608D01*
X14461836Y9244770D01*
X14461189Y9244932D01*
X14460381Y9245417D01*
X14459409Y9245903D01*
X14457144Y9247520D01*
X14456010Y9248491D01*
X14455042Y9249624D01*
X14454880Y9249786D01*
X14454716Y9250271D01*
X14454393Y9250918D01*
X14453908Y9251889D01*
X14453423Y9253022D01*
X14452937Y9254478D01*
X14452452Y9256096D01*
X14452129Y9257876D01*
Y9258037D01*
X14451967Y9258685D01*
Y9259655D01*
X14451805Y9261273D01*
X14451643Y9263377D01*
Y9265965D01*
X14451482Y9267422D01*
Y9269201D01*
Y9270981D01*
Y9273085D01*
Y9308518D01*
X14441611D01*
Y9325669D01*
X14451482D01*
Y9341849D01*
X14473000Y9354469D01*
Y9325669D01*
D02*
G37*
G36*
X14301656Y9327287D02*
X14303111Y9327125D01*
X14304892Y9326802D01*
X14306834Y9326478D01*
X14308937Y9325993D01*
X14311201Y9325345D01*
X14313467Y9324536D01*
X14315894Y9323566D01*
X14318321Y9322271D01*
X14320587Y9320977D01*
X14322852Y9319359D01*
X14325117Y9317417D01*
X14327058Y9315314D01*
X14327220Y9315152D01*
X14327544Y9314828D01*
X14328029Y9314019D01*
X14328676Y9313049D01*
X14329485Y9311754D01*
X14330293Y9310298D01*
X14331265Y9308357D01*
X14332236Y9306253D01*
X14333208Y9303826D01*
X14334178Y9301076D01*
X14334987Y9298163D01*
X14335796Y9294766D01*
X14336443Y9291206D01*
X14336928Y9287323D01*
X14337251Y9283278D01*
Y9278748D01*
X14283534D01*
Y9278586D01*
Y9278262D01*
Y9277777D01*
X14283698Y9277130D01*
X14283858Y9275512D01*
X14284183Y9273246D01*
X14284830Y9270981D01*
X14285800Y9268392D01*
X14286932Y9265965D01*
X14288551Y9263862D01*
X14288712Y9263700D01*
X14289520Y9263053D01*
X14290492Y9262244D01*
X14291948Y9261273D01*
X14293729Y9260303D01*
X14295993Y9259494D01*
X14298421Y9258846D01*
X14301009Y9258685D01*
X14301817D01*
X14302789Y9258846D01*
X14303922Y9259008D01*
X14305215Y9259332D01*
X14306673Y9259817D01*
X14308128Y9260464D01*
X14309422Y9261435D01*
X14309584Y9261597D01*
X14310069Y9261921D01*
X14310716Y9262568D01*
X14311365Y9263538D01*
X14312335Y9264833D01*
X14313144Y9266289D01*
X14313953Y9268231D01*
X14314761Y9270334D01*
X14336119Y9266774D01*
Y9266613D01*
X14335957Y9266289D01*
X14335634Y9265642D01*
X14335310Y9264833D01*
X14334825Y9263862D01*
X14334338Y9262730D01*
X14332883Y9260141D01*
X14331104Y9257228D01*
X14328838Y9254154D01*
X14326088Y9251404D01*
X14323013Y9248815D01*
X14322852D01*
X14322690Y9248491D01*
X14322043Y9248329D01*
X14321396Y9247844D01*
X14320587Y9247359D01*
X14319453Y9246873D01*
X14318321Y9246388D01*
X14316866Y9245741D01*
X14313629Y9244608D01*
X14309908Y9243637D01*
X14305539Y9242990D01*
X14300847Y9242667D01*
X14299876D01*
X14298906Y9242828D01*
X14297449D01*
X14295670Y9243152D01*
X14293565Y9243476D01*
X14291301Y9243799D01*
X14289037Y9244446D01*
X14286447Y9245094D01*
X14283858Y9246064D01*
X14281270Y9247197D01*
X14278680Y9248491D01*
X14276093Y9250109D01*
X14273665Y9251889D01*
X14271562Y9253992D01*
X14269458Y9256419D01*
X14269296Y9256581D01*
X14269135Y9256905D01*
X14268811Y9257552D01*
X14268164Y9258361D01*
X14267679Y9259494D01*
X14267030Y9260788D01*
X14266222Y9262244D01*
X14265575Y9264024D01*
X14264766Y9265965D01*
X14264119Y9268069D01*
X14263310Y9270334D01*
X14262825Y9272923D01*
X14262338Y9275512D01*
X14261855Y9278262D01*
X14261691Y9281336D01*
X14261530Y9284410D01*
Y9284572D01*
Y9285219D01*
Y9286352D01*
X14261691Y9287808D01*
X14261855Y9289426D01*
X14262016Y9291368D01*
X14262338Y9293471D01*
X14262825Y9295898D01*
X14264119Y9300914D01*
X14264928Y9303503D01*
X14265900Y9306253D01*
X14267194Y9308842D01*
X14268649Y9311269D01*
X14270267Y9313696D01*
X14272047Y9315961D01*
X14272209Y9316123D01*
X14272533Y9316446D01*
X14273180Y9317094D01*
X14273988Y9317741D01*
X14274960Y9318550D01*
X14276254Y9319521D01*
X14277710Y9320653D01*
X14279327Y9321786D01*
X14281108Y9322757D01*
X14283211Y9323889D01*
X14285315Y9324860D01*
X14287743Y9325669D01*
X14290169Y9326316D01*
X14292918Y9326963D01*
X14295670Y9327287D01*
X14298582Y9327449D01*
X14300362D01*
X14301656Y9327287D01*
D02*
G37*
G36*
X13823219D02*
X13824677Y9327125D01*
X13826456Y9326802D01*
X13828397Y9326478D01*
X13830499Y9325993D01*
X13832767Y9325345D01*
X13835031Y9324536D01*
X13837457Y9323566D01*
X13839885Y9322271D01*
X13842149Y9320977D01*
X13844415Y9319359D01*
X13846680Y9317417D01*
X13848622Y9315314D01*
X13848784Y9315152D01*
X13849107Y9314828D01*
X13849593Y9314019D01*
X13850240Y9313049D01*
X13851048Y9311754D01*
X13851859Y9310298D01*
X13852829Y9308357D01*
X13853799Y9306253D01*
X13854770Y9303826D01*
X13855740Y9301076D01*
X13856551Y9298163D01*
X13857359Y9294766D01*
X13858006Y9291206D01*
X13858492Y9287323D01*
X13858815Y9283278D01*
Y9278748D01*
X13805098D01*
Y9278586D01*
Y9278262D01*
Y9277777D01*
X13805260Y9277130D01*
X13805421Y9275512D01*
X13805745Y9273246D01*
X13806393Y9270981D01*
X13807362Y9268392D01*
X13808496Y9265965D01*
X13810114Y9263862D01*
X13810275Y9263700D01*
X13811086Y9263053D01*
X13812054Y9262244D01*
X13813512Y9261273D01*
X13815291Y9260303D01*
X13817557Y9259494D01*
X13819984Y9258846D01*
X13822572Y9258685D01*
X13823381D01*
X13824352Y9258846D01*
X13825485Y9259008D01*
X13826779Y9259332D01*
X13828235Y9259817D01*
X13829691Y9260464D01*
X13830986Y9261435D01*
X13831148Y9261597D01*
X13831633Y9261921D01*
X13832280Y9262568D01*
X13832927Y9263538D01*
X13833897Y9264833D01*
X13834708Y9266289D01*
X13835516Y9268231D01*
X13836325Y9270334D01*
X13857681Y9266774D01*
Y9266613D01*
X13857521Y9266289D01*
X13857198Y9265642D01*
X13856873Y9264833D01*
X13856387Y9263862D01*
X13855904Y9262730D01*
X13854446Y9260141D01*
X13852667Y9257228D01*
X13850401Y9254154D01*
X13847652Y9251404D01*
X13844577Y9248815D01*
X13844415D01*
X13844254Y9248491D01*
X13843607Y9248329D01*
X13842960Y9247844D01*
X13842149Y9247359D01*
X13841017Y9246873D01*
X13839885Y9246388D01*
X13838429Y9245741D01*
X13835193Y9244608D01*
X13831471Y9243637D01*
X13827103Y9242990D01*
X13822411Y9242667D01*
X13821440D01*
X13820470Y9242828D01*
X13819012D01*
X13817233Y9243152D01*
X13815131Y9243476D01*
X13812865Y9243799D01*
X13810599Y9244446D01*
X13808009Y9245094D01*
X13805421Y9246064D01*
X13802834Y9247197D01*
X13800244Y9248491D01*
X13797655Y9250109D01*
X13795229Y9251889D01*
X13793124Y9253992D01*
X13791022Y9256419D01*
X13790860Y9256581D01*
X13790698Y9256905D01*
X13790375Y9257552D01*
X13789726Y9258361D01*
X13789243Y9259494D01*
X13788596Y9260788D01*
X13787785Y9262244D01*
X13787138Y9264024D01*
X13786330Y9265965D01*
X13785683Y9268069D01*
X13784872Y9270334D01*
X13784389Y9272923D01*
X13783904Y9275512D01*
X13783417Y9278262D01*
X13783255Y9281336D01*
X13783093Y9284410D01*
Y9284572D01*
Y9285219D01*
Y9286352D01*
X13783255Y9287808D01*
X13783417Y9289426D01*
X13783578Y9291368D01*
X13783904Y9293471D01*
X13784389Y9295898D01*
X13785683Y9300914D01*
X13786491Y9303503D01*
X13787462Y9306253D01*
X13788757Y9308842D01*
X13790213Y9311269D01*
X13791830Y9313696D01*
X13793610Y9315961D01*
X13793771Y9316123D01*
X13794096Y9316446D01*
X13794743Y9317094D01*
X13795552Y9317741D01*
X13796523Y9318550D01*
X13797816Y9319521D01*
X13799274Y9320653D01*
X13800891Y9321786D01*
X13802670Y9322757D01*
X13804774Y9323889D01*
X13806879Y9324860D01*
X13809305Y9325669D01*
X13811732Y9326316D01*
X13814482Y9326963D01*
X13817233Y9327287D01*
X13820145Y9327449D01*
X13821925D01*
X13823219Y9327287D01*
D02*
G37*
G36*
X13649126D02*
X13650581Y9327125D01*
X13652361Y9326802D01*
X13654301Y9326478D01*
X13656406Y9325993D01*
X13658672Y9325345D01*
X13660936Y9324536D01*
X13663364Y9323566D01*
X13665790Y9322271D01*
X13668056Y9320977D01*
X13670320Y9319359D01*
X13672586Y9317417D01*
X13674527Y9315314D01*
X13674689Y9315152D01*
X13675014Y9314828D01*
X13675497Y9314019D01*
X13676144Y9313049D01*
X13676955Y9311754D01*
X13677763Y9310298D01*
X13678734Y9308357D01*
X13679704Y9306253D01*
X13680675Y9303826D01*
X13681647Y9301076D01*
X13682455Y9298163D01*
X13683264Y9294766D01*
X13683911Y9291206D01*
X13684396Y9287323D01*
X13684720Y9283278D01*
Y9278748D01*
X13631003D01*
Y9278586D01*
Y9278262D01*
Y9277777D01*
X13631165Y9277130D01*
X13631326Y9275512D01*
X13631651Y9273246D01*
X13632298Y9270981D01*
X13633269Y9268392D01*
X13634401Y9265965D01*
X13636018Y9263862D01*
X13636182Y9263700D01*
X13636990Y9263053D01*
X13637961Y9262244D01*
X13639417Y9261273D01*
X13641197Y9260303D01*
X13643462Y9259494D01*
X13645889Y9258846D01*
X13648479Y9258685D01*
X13649287D01*
X13650256Y9258846D01*
X13651390Y9259008D01*
X13652684Y9259332D01*
X13654141Y9259817D01*
X13655597Y9260464D01*
X13656891Y9261435D01*
X13657053Y9261597D01*
X13657538Y9261921D01*
X13658186Y9262568D01*
X13658833Y9263538D01*
X13659804Y9264833D01*
X13660612Y9266289D01*
X13661421Y9268231D01*
X13662230Y9270334D01*
X13683588Y9266774D01*
Y9266613D01*
X13683426Y9266289D01*
X13683102Y9265642D01*
X13682779Y9264833D01*
X13682294Y9263862D01*
X13681808Y9262730D01*
X13680351Y9260141D01*
X13678572Y9257228D01*
X13676308Y9254154D01*
X13673557Y9251404D01*
X13670482Y9248815D01*
X13670320D01*
X13670158Y9248491D01*
X13669511Y9248329D01*
X13668864Y9247844D01*
X13668056Y9247359D01*
X13666924Y9246873D01*
X13665790Y9246388D01*
X13664334Y9245741D01*
X13661098Y9244608D01*
X13657378Y9243637D01*
X13653008Y9242990D01*
X13648315Y9242667D01*
X13647345D01*
X13646375Y9242828D01*
X13644917D01*
X13643138Y9243152D01*
X13641035Y9243476D01*
X13638770Y9243799D01*
X13636505Y9244446D01*
X13633916Y9245094D01*
X13631326Y9246064D01*
X13628738Y9247197D01*
X13626151Y9248491D01*
X13623561Y9250109D01*
X13621133Y9251889D01*
X13619031Y9253992D01*
X13616927Y9256419D01*
X13616765Y9256581D01*
X13616603Y9256905D01*
X13616280Y9257552D01*
X13615633Y9258361D01*
X13615147Y9259493D01*
X13614500Y9260788D01*
X13613692Y9262244D01*
X13613045Y9264024D01*
X13612234Y9265965D01*
X13611588Y9268069D01*
X13610779Y9270334D01*
X13610294Y9272923D01*
X13609808Y9275511D01*
X13609323Y9278262D01*
X13609161Y9281336D01*
X13609000Y9284410D01*
Y9284572D01*
Y9285219D01*
Y9286352D01*
X13609161Y9287808D01*
X13609323Y9289426D01*
X13609483Y9291367D01*
X13609808Y9293471D01*
X13610294Y9295898D01*
X13611588Y9300914D01*
X13612396Y9303502D01*
X13613367Y9306253D01*
X13614662Y9308842D01*
X13616118Y9311269D01*
X13617735Y9313696D01*
X13619516Y9315961D01*
X13619678Y9316123D01*
X13620001Y9316446D01*
X13620648Y9317093D01*
X13621457Y9317741D01*
X13622427Y9318550D01*
X13623723Y9319520D01*
X13625179Y9320653D01*
X13626797Y9321786D01*
X13628577Y9322757D01*
X13630679Y9323889D01*
X13632784Y9324860D01*
X13635210Y9325669D01*
X13637637Y9326316D01*
X13640388Y9326963D01*
X13643138Y9327287D01*
X13646051Y9327449D01*
X13647830D01*
X13649126Y9327287D01*
D02*
G37*
G36*
X13353358Y9327287D02*
X13354814Y9327125D01*
X13356593Y9326801D01*
X13358536Y9326478D01*
X13360638Y9325992D01*
X13362904Y9325345D01*
X13365169Y9324536D01*
X13367596Y9323565D01*
X13370023Y9322271D01*
X13372289Y9320977D01*
X13374554Y9319359D01*
X13376819Y9317417D01*
X13378760Y9315314D01*
X13378922Y9315152D01*
X13379247Y9314828D01*
X13379732Y9314019D01*
X13380379Y9313048D01*
X13381187Y9311754D01*
X13381996Y9310298D01*
X13382967Y9308356D01*
X13383939Y9306253D01*
X13384909Y9303826D01*
X13385880Y9301075D01*
X13386688Y9298163D01*
X13387497Y9294765D01*
X13388145Y9291206D01*
X13388631Y9287323D01*
X13388954Y9283278D01*
Y9278747D01*
X13335237D01*
Y9278585D01*
Y9278262D01*
Y9277776D01*
X13335399Y9277129D01*
X13335561Y9275511D01*
X13335884Y9273246D01*
X13336531Y9270981D01*
X13337502Y9268392D01*
X13338634Y9265965D01*
X13340253Y9263862D01*
X13340414Y9263700D01*
X13341223Y9263053D01*
X13342194Y9262244D01*
X13343649Y9261273D01*
X13345430Y9260302D01*
X13347694Y9259493D01*
X13350122Y9258846D01*
X13352711Y9258684D01*
X13353520D01*
X13354491Y9258846D01*
X13355623Y9259008D01*
X13356918Y9259331D01*
X13358374Y9259817D01*
X13359830Y9260464D01*
X13361124Y9261435D01*
X13361285Y9261597D01*
X13361772Y9261920D01*
X13362419Y9262567D01*
X13363066Y9263538D01*
X13364037Y9264833D01*
X13364845Y9266289D01*
X13365656Y9268230D01*
X13366464Y9270334D01*
X13387820Y9266774D01*
Y9266612D01*
X13387659Y9266289D01*
X13387337Y9265642D01*
X13387012Y9264833D01*
X13386526Y9263862D01*
X13386041Y9262729D01*
X13384586Y9260140D01*
X13382805Y9257228D01*
X13380540Y9254154D01*
X13377789Y9251403D01*
X13374715Y9248815D01*
X13374554D01*
X13374393Y9248491D01*
X13373746Y9248329D01*
X13373097Y9247844D01*
X13372289Y9247358D01*
X13371156Y9246873D01*
X13370023Y9246388D01*
X13368567Y9245740D01*
X13365331Y9244608D01*
X13361610Y9243637D01*
X13357240Y9242990D01*
X13352550Y9242666D01*
X13351578D01*
X13350607Y9242828D01*
X13349152D01*
X13347372Y9243152D01*
X13345268Y9243475D01*
X13343002Y9243799D01*
X13340738Y9244446D01*
X13338148Y9245093D01*
X13335561Y9246064D01*
X13332973Y9247197D01*
X13330383Y9248491D01*
X13327794Y9250109D01*
X13325368Y9251889D01*
X13323264Y9253992D01*
X13321159Y9256419D01*
X13320999Y9256581D01*
X13320837Y9256905D01*
X13320512Y9257552D01*
X13319865Y9258361D01*
X13319382Y9259493D01*
X13318733Y9260788D01*
X13317924Y9262244D01*
X13317278Y9264024D01*
X13316467Y9265965D01*
X13315820Y9268069D01*
X13315012Y9270334D01*
X13314526Y9272923D01*
X13314041Y9275511D01*
X13313556Y9278262D01*
X13313394Y9281336D01*
X13313232Y9284410D01*
Y9284572D01*
Y9285219D01*
Y9286352D01*
X13313394Y9287808D01*
X13313556Y9289426D01*
X13313718Y9291367D01*
X13314041Y9293471D01*
X13314526Y9295898D01*
X13315820Y9300914D01*
X13316631Y9303502D01*
X13317601Y9306253D01*
X13318895Y9308842D01*
X13320351Y9311269D01*
X13321970Y9313696D01*
X13323749Y9315961D01*
X13323911Y9316123D01*
X13324234Y9316446D01*
X13324883Y9317093D01*
X13325691Y9317741D01*
X13326662Y9318550D01*
X13327956Y9319520D01*
X13329411Y9320653D01*
X13331030Y9321786D01*
X13332809Y9322756D01*
X13334914Y9323889D01*
X13337016Y9324860D01*
X13339442Y9325669D01*
X13341870Y9326316D01*
X13344621Y9326963D01*
X13347372Y9327287D01*
X13350284Y9327448D01*
X13352065D01*
X13353358Y9327287D01*
D02*
G37*
G36*
X13107263Y9325669D02*
X13121986D01*
Y9308518D01*
X13107263D01*
Y9275673D01*
Y9275511D01*
Y9275188D01*
Y9274702D01*
Y9274055D01*
Y9272437D01*
Y9270496D01*
X13107425Y9268554D01*
Y9266612D01*
Y9265156D01*
X13107587Y9264509D01*
Y9264185D01*
X13107748Y9263862D01*
X13108072Y9263215D01*
X13108559Y9262406D01*
X13109529Y9261435D01*
X13109853Y9261273D01*
X13110500Y9260949D01*
X13111632Y9260626D01*
X13113087Y9260464D01*
X13113734D01*
X13114381Y9260626D01*
X13115353Y9260788D01*
X13116647Y9260949D01*
X13118105Y9261273D01*
X13119884Y9261758D01*
X13121825Y9262406D01*
X13123767Y9245740D01*
X13123605D01*
X13123444Y9245579D01*
X13122472Y9245255D01*
X13120854Y9244770D01*
X13118752Y9244284D01*
X13116324Y9243637D01*
X13113412Y9243152D01*
X13110176Y9242828D01*
X13106778Y9242666D01*
X13105807D01*
X13104675Y9242828D01*
X13103218Y9242990D01*
X13101601Y9243152D01*
X13099821Y9243475D01*
X13098041Y9243961D01*
X13096262Y9244608D01*
X13096098Y9244770D01*
X13095451Y9244931D01*
X13094643Y9245417D01*
X13093672Y9245902D01*
X13091406Y9247520D01*
X13090276Y9248491D01*
X13089304Y9249624D01*
X13089142Y9249785D01*
X13088980Y9250271D01*
X13088657Y9250918D01*
X13088171Y9251889D01*
X13087686Y9253021D01*
X13087199Y9254478D01*
X13086716Y9256096D01*
X13086391Y9257875D01*
Y9258037D01*
X13086230Y9258684D01*
Y9259655D01*
X13086069Y9261273D01*
X13085905Y9263376D01*
Y9265965D01*
X13085744Y9267421D01*
Y9269201D01*
Y9270981D01*
Y9273084D01*
Y9308518D01*
X13075874D01*
Y9325669D01*
X13085744D01*
Y9341848D01*
X13107263Y9354469D01*
Y9325669D01*
D02*
G37*
G36*
X15650728Y9358191D02*
X15651051Y9357543D01*
X15651698Y9356734D01*
X15652509Y9355440D01*
X15653477Y9353984D01*
X15654611Y9352204D01*
X15655743Y9350101D01*
X15657037Y9347836D01*
X15658495Y9345247D01*
X15659950Y9342496D01*
X15661407Y9339746D01*
X15662863Y9336671D01*
X15665775Y9330200D01*
X15668364Y9323404D01*
Y9323242D01*
X15668687Y9322595D01*
X15669011Y9321624D01*
X15669334Y9320168D01*
X15669820Y9318550D01*
X15670467Y9316608D01*
X15670953Y9314343D01*
X15671600Y9311755D01*
X15672247Y9309166D01*
X15672733Y9306253D01*
X15673380Y9303017D01*
X15673865Y9299782D01*
X15674512Y9293148D01*
X15674837Y9286029D01*
Y9285867D01*
Y9285381D01*
Y9284411D01*
Y9283278D01*
X15674673Y9281822D01*
X15674512Y9280042D01*
X15674350Y9277939D01*
X15674190Y9275674D01*
X15674026Y9273247D01*
X15673541Y9270658D01*
X15673218Y9267745D01*
X15672733Y9264833D01*
X15671439Y9258523D01*
X15669820Y9251727D01*
Y9251566D01*
X15669496Y9250757D01*
X15669173Y9249786D01*
X15668687Y9248330D01*
X15668040Y9246388D01*
X15667232Y9244285D01*
X15666422Y9241858D01*
X15665289Y9239107D01*
X15663995Y9236195D01*
X15662701Y9232959D01*
X15661082Y9229723D01*
X15659465Y9226163D01*
X15657523Y9222604D01*
X15655582Y9218883D01*
X15653477Y9215161D01*
X15651051Y9211440D01*
X15636166D01*
Y9211602D01*
X15636490Y9212087D01*
X15636813Y9212734D01*
X15637137Y9213705D01*
X15637784Y9214838D01*
X15638269Y9216132D01*
X15639726Y9219206D01*
X15641182Y9222604D01*
X15642638Y9226163D01*
X15643932Y9229561D01*
X15645065Y9232474D01*
Y9232635D01*
X15645227Y9232797D01*
X15645551Y9233768D01*
X15646036Y9235224D01*
X15646683Y9237166D01*
X15647330Y9239593D01*
X15648138Y9242505D01*
X15648949Y9245579D01*
X15649757Y9248977D01*
Y9249139D01*
X15649919Y9249462D01*
Y9249948D01*
X15650081Y9250595D01*
X15650566Y9252375D01*
X15651051Y9254802D01*
X15651537Y9257552D01*
X15652184Y9260626D01*
X15653156Y9266937D01*
Y9267098D01*
Y9267260D01*
X15653317Y9267745D01*
Y9268393D01*
X15653477Y9270172D01*
X15653802Y9272276D01*
X15653964Y9275026D01*
X15654126Y9277939D01*
X15654288Y9281175D01*
Y9284411D01*
Y9284572D01*
Y9285220D01*
Y9286190D01*
Y9287485D01*
X15654126Y9289103D01*
Y9291044D01*
X15653964Y9293148D01*
X15653802Y9295575D01*
X15653641Y9298164D01*
X15653317Y9300914D01*
X15652509Y9306739D01*
X15651537Y9312725D01*
X15650243Y9318874D01*
Y9319035D01*
X15650081Y9319683D01*
X15649757Y9320492D01*
X15649434Y9321786D01*
X15649110Y9323404D01*
X15648463Y9325184D01*
X15647816Y9327449D01*
X15647008Y9329876D01*
X15646036Y9332626D01*
X15645065Y9335701D01*
X15643932Y9338937D01*
X15642638Y9342334D01*
X15641182Y9346056D01*
X15639565Y9349939D01*
X15637946Y9354146D01*
X15636005Y9358352D01*
X15650566D01*
X15650728Y9358191D01*
D02*
G37*
G36*
X14016406Y9358029D02*
X14016083Y9357381D01*
X14015598Y9356087D01*
X14014951Y9354469D01*
X14013979Y9352527D01*
X14013010Y9350100D01*
X14012038Y9347512D01*
X14010905Y9344761D01*
X14009612Y9341687D01*
X14008478Y9338451D01*
X14006052Y9331817D01*
X14003947Y9325184D01*
X14002977Y9321948D01*
X14002168Y9318873D01*
Y9318712D01*
X14002007Y9318226D01*
X14001843Y9317255D01*
X14001521Y9316123D01*
X14001196Y9314505D01*
X14000874Y9312725D01*
X14000549Y9310784D01*
X14000227Y9308518D01*
X13999902Y9306091D01*
X13999579Y9303341D01*
X13999255Y9300590D01*
X13998932Y9297516D01*
X13998447Y9291206D01*
X13998285Y9284410D01*
Y9284249D01*
Y9283925D01*
Y9283116D01*
Y9282307D01*
Y9281174D01*
X13998447Y9279718D01*
Y9278262D01*
X13998608Y9276482D01*
X13998770Y9272599D01*
X13999255Y9268231D01*
X13999741Y9263538D01*
X14000549Y9258685D01*
Y9258523D01*
X14000713Y9258037D01*
Y9257390D01*
X14001035Y9256419D01*
X14001196Y9255287D01*
X14001521Y9253992D01*
X14001843Y9252374D01*
X14002168Y9250756D01*
X14003139Y9246873D01*
X14004111Y9242667D01*
X14005405Y9238298D01*
X14006860Y9233929D01*
Y9233768D01*
X14007022Y9233606D01*
X14007184Y9233120D01*
X14007346Y9232473D01*
X14007669Y9231664D01*
X14008154Y9230694D01*
X14008478Y9229561D01*
X14009125Y9228267D01*
X14009773Y9226649D01*
X14010420Y9225031D01*
X14011229Y9223251D01*
X14012038Y9221147D01*
X14013010Y9219044D01*
X14013979Y9216617D01*
X14015112Y9214190D01*
X14016406Y9211440D01*
X14001683D01*
X14001521Y9211601D01*
X14001196Y9212249D01*
X14000549Y9213219D01*
X13999741Y9214514D01*
X13998770Y9216132D01*
X13997638Y9218073D01*
X13996342Y9220338D01*
X13995049Y9222765D01*
X13993593Y9225354D01*
X13992137Y9228267D01*
X13990680Y9231341D01*
X13989062Y9234415D01*
X13986311Y9241210D01*
X13983723Y9248168D01*
Y9248329D01*
X13983400Y9248977D01*
X13983238Y9250109D01*
X13982751Y9251404D01*
X13982268Y9253183D01*
X13981783Y9255125D01*
X13981296Y9257390D01*
X13980811Y9259817D01*
X13980164Y9262568D01*
X13979678Y9265480D01*
X13978706Y9271628D01*
X13978059Y9278262D01*
X13977737Y9284896D01*
Y9285219D01*
Y9285867D01*
Y9286999D01*
X13977898Y9288617D01*
Y9290559D01*
X13978059Y9292986D01*
X13978384Y9295574D01*
X13978706Y9298487D01*
X13979031Y9301561D01*
X13979517Y9304797D01*
X13980811Y9311916D01*
X13982751Y9319197D01*
X13983885Y9322918D01*
X13985179Y9326640D01*
Y9326802D01*
X13985503Y9327449D01*
X13985826Y9328258D01*
X13986311Y9329552D01*
X13986958Y9331008D01*
X13987769Y9332788D01*
X13988739Y9334891D01*
X13989709Y9336995D01*
X13990842Y9339422D01*
X13992137Y9341849D01*
X13994887Y9347188D01*
X13998285Y9352851D01*
X14001843Y9358352D01*
X14016568D01*
X14016406Y9358029D01*
D02*
G37*
G36*
X13570976Y9166556D02*
X13549457D01*
Y9186458D01*
X13570976D01*
Y9166556D01*
D02*
G37*
G36*
X13859949Y9166233D02*
X13846518D01*
X13857198Y9189047D01*
X13881143D01*
X13859949Y9166233D01*
D02*
G37*
G36*
X13528748Y9157334D02*
X13530527Y9157010D01*
X13532793Y9156525D01*
X13535219Y9155716D01*
X13537646Y9154745D01*
X13540234Y9153289D01*
X13533440Y9134682D01*
X13533276Y9134844D01*
X13532468Y9135168D01*
X13531499Y9135815D01*
X13530203Y9136462D01*
X13528584Y9137109D01*
X13526967Y9137756D01*
X13525188Y9138080D01*
X13523409Y9138242D01*
X13522762D01*
X13521790Y9138080D01*
X13520819Y9137918D01*
X13519685Y9137595D01*
X13518391Y9137109D01*
X13517097Y9136462D01*
X13515804Y9135653D01*
X13515640Y9135491D01*
X13515318Y9135168D01*
X13514671Y9134520D01*
X13514024Y9133550D01*
X13513216Y9132417D01*
X13512405Y9130799D01*
X13511597Y9128858D01*
X13510950Y9126592D01*
Y9126269D01*
X13510788Y9125783D01*
X13510626Y9125298D01*
Y9124489D01*
X13510464Y9123518D01*
X13510303Y9122224D01*
X13510139Y9120768D01*
X13509979Y9119150D01*
X13509818Y9117046D01*
X13509656Y9114943D01*
Y9112354D01*
X13509492Y9109604D01*
X13509331Y9106529D01*
Y9103132D01*
Y9099410D01*
Y9074493D01*
X13487811D01*
Y9155716D01*
X13507713D01*
Y9144228D01*
X13507875Y9144390D01*
X13508522Y9145361D01*
X13509492Y9146817D01*
X13510788Y9148597D01*
X13512082Y9150377D01*
X13513699Y9152156D01*
X13515157Y9153774D01*
X13516774Y9154907D01*
X13516936Y9155069D01*
X13517421Y9155392D01*
X13518391Y9155716D01*
X13519525Y9156201D01*
X13520819Y9156687D01*
X13522437Y9157172D01*
X13524055Y9157334D01*
X13525996Y9157496D01*
X13527290D01*
X13528748Y9157334D01*
D02*
G37*
G36*
X13988252Y9145038D02*
X13988416Y9145199D01*
X13988739Y9145523D01*
X13989386Y9146170D01*
X13990033Y9146979D01*
X13991167Y9147950D01*
X13992297Y9148921D01*
X13993755Y9150053D01*
X13995210Y9151348D01*
X13996991Y9152480D01*
X13998932Y9153613D01*
X14003139Y9155554D01*
X14005405Y9156363D01*
X14007831Y9157011D01*
X14010420Y9157334D01*
X14013010Y9157496D01*
X14014304D01*
X14015759Y9157334D01*
X14017538Y9157172D01*
X14019643Y9156849D01*
X14021745Y9156202D01*
X14024173Y9155554D01*
X14026437Y9154584D01*
X14026761Y9154422D01*
X14027409Y9154098D01*
X14028542Y9153451D01*
X14029836Y9152642D01*
X14031293Y9151671D01*
X14032748Y9150539D01*
X14034204Y9149083D01*
X14035498Y9147626D01*
X14035660Y9147465D01*
X14035983Y9146817D01*
X14036469Y9146008D01*
X14037115Y9144876D01*
X14037926Y9143420D01*
X14038573Y9141802D01*
X14039220Y9140022D01*
X14039705Y9138080D01*
Y9137918D01*
X14039867Y9137109D01*
X14040028Y9135815D01*
X14040352Y9134197D01*
X14040514Y9131932D01*
X14040675Y9129181D01*
X14040839Y9125945D01*
Y9122062D01*
Y9074494D01*
X14019319D01*
Y9117208D01*
Y9117370D01*
Y9117694D01*
Y9118341D01*
Y9119312D01*
Y9120282D01*
Y9121415D01*
X14019157Y9124004D01*
X14018996Y9126754D01*
X14018832Y9129505D01*
X14018510Y9131770D01*
X14018185Y9132579D01*
X14018024Y9133388D01*
Y9133550D01*
X14017702Y9134035D01*
X14017377Y9134521D01*
X14017053Y9135330D01*
X14015598Y9137109D01*
X14014787Y9138080D01*
X14013657Y9138889D01*
X14013493Y9139051D01*
X14013170Y9139213D01*
X14012361Y9139536D01*
X14011552Y9140022D01*
X14010420Y9140345D01*
X14009125Y9140669D01*
X14007507Y9140831D01*
X14005888Y9140993D01*
X14004919D01*
X14003947Y9140831D01*
X14002654Y9140669D01*
X14001196Y9140345D01*
X13999579Y9139860D01*
X13997961Y9139213D01*
X13996342Y9138242D01*
X13996182Y9138080D01*
X13995695Y9137757D01*
X13994887Y9137109D01*
X13994078Y9136300D01*
X13992946Y9135168D01*
X13991975Y9133874D01*
X13991003Y9132256D01*
X13990195Y9130476D01*
Y9130314D01*
X13989871Y9129505D01*
X13989548Y9128372D01*
X13989224Y9126593D01*
X13988901Y9124489D01*
X13988577Y9121739D01*
X13988416Y9118665D01*
X13988252Y9115105D01*
Y9074494D01*
X13966734D01*
Y9186458D01*
X13988252D01*
Y9145038D01*
D02*
G37*
G36*
X13804774Y9167528D02*
X13771768D01*
Y9074494D01*
X13749117D01*
Y9167528D01*
X13715947D01*
Y9186458D01*
X13804774D01*
Y9167528D01*
D02*
G37*
G36*
X13613853Y9127078D02*
X13638931Y9155716D01*
X13665305D01*
X13637476Y9125945D01*
X13667245Y9074494D01*
X13644109D01*
X13623561Y9110898D01*
X13613853Y9100381D01*
Y9074493D01*
X13592334D01*
Y9186458D01*
X13613853D01*
Y9127078D01*
D02*
G37*
G36*
X13570976Y9074493D02*
X13549457D01*
Y9155716D01*
X13570976D01*
Y9074493D01*
D02*
G37*
G36*
X13467587Y9167527D02*
X13407237D01*
Y9142772D01*
X13463380D01*
Y9123842D01*
X13407237D01*
Y9093424D01*
X13469691D01*
Y9074493D01*
X13384586D01*
Y9186458D01*
X13467587D01*
Y9167527D01*
D02*
G37*
G36*
X13214374Y9145037D02*
X13214536Y9145199D01*
X13214859Y9145523D01*
X13215506Y9146170D01*
X13216153Y9146979D01*
X13217287Y9147950D01*
X13218419Y9148920D01*
X13219875Y9150053D01*
X13221330Y9151347D01*
X13223111Y9152480D01*
X13225052Y9153613D01*
X13229259Y9155554D01*
X13231525Y9156363D01*
X13233951Y9157010D01*
X13236540Y9157334D01*
X13239130Y9157496D01*
X13240424D01*
X13241879Y9157334D01*
X13243658Y9157172D01*
X13245763Y9156849D01*
X13247865Y9156201D01*
X13250293Y9155554D01*
X13252557Y9154583D01*
X13252882Y9154422D01*
X13253529Y9154098D01*
X13254662Y9153451D01*
X13255956Y9152642D01*
X13257413Y9151671D01*
X13258868Y9150538D01*
X13260324Y9149082D01*
X13261620Y9147626D01*
X13261780Y9147464D01*
X13262103Y9146817D01*
X13262589Y9146008D01*
X13263237Y9144876D01*
X13264046Y9143419D01*
X13264693Y9141801D01*
X13265340Y9140022D01*
X13265825Y9138080D01*
Y9137918D01*
X13265987Y9137109D01*
X13266148Y9135815D01*
X13266473Y9134197D01*
X13266634Y9131932D01*
X13266795Y9129181D01*
X13266959Y9125945D01*
Y9122062D01*
Y9074493D01*
X13245439D01*
Y9117208D01*
Y9117370D01*
Y9117693D01*
Y9118341D01*
Y9119311D01*
Y9120282D01*
Y9121415D01*
X13245277Y9124004D01*
X13245116Y9126754D01*
X13244952Y9129505D01*
X13244630Y9131770D01*
X13244305Y9132579D01*
X13244144Y9133388D01*
Y9133550D01*
X13243822Y9134035D01*
X13243497Y9134520D01*
X13243175Y9135329D01*
X13241718Y9137109D01*
X13240907Y9138080D01*
X13239777Y9138889D01*
X13239613Y9139051D01*
X13239291Y9139213D01*
X13238483Y9139536D01*
X13237672Y9140022D01*
X13236540Y9140345D01*
X13235246Y9140669D01*
X13233627Y9140831D01*
X13232010Y9140992D01*
X13231039D01*
X13230067Y9140831D01*
X13228773Y9140669D01*
X13227316Y9140345D01*
X13225699Y9139860D01*
X13224081Y9139213D01*
X13222464Y9138242D01*
X13222302Y9138080D01*
X13221815Y9137756D01*
X13221007Y9137109D01*
X13220198Y9136300D01*
X13219066Y9135168D01*
X13218095Y9133873D01*
X13217123Y9132255D01*
X13216315Y9130476D01*
Y9130314D01*
X13215993Y9129505D01*
X13215668Y9128372D01*
X13215344Y9126592D01*
X13215021Y9124489D01*
X13214697Y9121738D01*
X13214536Y9118664D01*
X13214374Y9115105D01*
Y9074493D01*
X13192854D01*
Y9186458D01*
X13214374D01*
Y9145037D01*
D02*
G37*
G36*
X13937450Y9155716D02*
X13952173D01*
Y9138566D01*
X13937450D01*
Y9105721D01*
Y9105559D01*
Y9105235D01*
Y9104750D01*
Y9104103D01*
Y9102485D01*
Y9100543D01*
X13937611Y9098602D01*
Y9096660D01*
Y9095204D01*
X13937772Y9094557D01*
Y9094233D01*
X13937933Y9093909D01*
X13938258Y9093262D01*
X13938744Y9092453D01*
X13939714Y9091482D01*
X13940038Y9091321D01*
X13940685Y9090997D01*
X13941817Y9090673D01*
X13943274Y9090512D01*
X13943921D01*
X13944568Y9090673D01*
X13945538Y9090835D01*
X13946832Y9090997D01*
X13948289Y9091321D01*
X13950069Y9091806D01*
X13952011Y9092453D01*
X13953952Y9075788D01*
X13953790D01*
X13953629Y9075626D01*
X13952658Y9075303D01*
X13951041Y9074817D01*
X13948936Y9074332D01*
X13946510Y9073685D01*
X13943597Y9073199D01*
X13940361Y9072876D01*
X13936963Y9072714D01*
X13935992D01*
X13934860Y9072876D01*
X13933405Y9073037D01*
X13931786Y9073199D01*
X13930006Y9073523D01*
X13928226Y9074008D01*
X13926447Y9074655D01*
X13926285Y9074817D01*
X13925638Y9074979D01*
X13924829Y9075464D01*
X13923859Y9075950D01*
X13921593Y9077568D01*
X13920461Y9078539D01*
X13919489Y9079671D01*
X13919328Y9079833D01*
X13919167Y9080318D01*
X13918842Y9080966D01*
X13918356Y9081936D01*
X13917871Y9083069D01*
X13917386Y9084525D01*
X13916901Y9086143D01*
X13916577Y9087923D01*
Y9088085D01*
X13916415Y9088732D01*
Y9089703D01*
X13916254Y9091321D01*
X13916092Y9093424D01*
Y9096013D01*
X13915930Y9097469D01*
Y9099249D01*
Y9101029D01*
Y9103132D01*
Y9138566D01*
X13906059D01*
Y9155716D01*
X13915930D01*
Y9171896D01*
X13937450Y9184516D01*
Y9155716D01*
D02*
G37*
G36*
X13859138Y9157334D02*
X13860757Y9157172D01*
X13862537Y9156849D01*
X13864639Y9156525D01*
X13866743Y9156040D01*
X13869170Y9155393D01*
X13871597Y9154584D01*
X13874023Y9153613D01*
X13876613Y9152480D01*
X13879202Y9151024D01*
X13881628Y9149406D01*
X13884056Y9147626D01*
X13886320Y9145523D01*
X13886482Y9145361D01*
X13886806Y9145038D01*
X13887453Y9144229D01*
X13888100Y9143420D01*
X13889072Y9142125D01*
X13890042Y9140831D01*
X13891174Y9139051D01*
X13892307Y9137271D01*
X13893279Y9135168D01*
X13894411Y9132903D01*
X13895381Y9130314D01*
X13896352Y9127725D01*
X13896999Y9124813D01*
X13897647Y9121900D01*
X13897971Y9118665D01*
X13898132Y9115267D01*
Y9115105D01*
Y9114458D01*
Y9113487D01*
X13897971Y9112193D01*
X13897807Y9110575D01*
X13897485Y9108795D01*
X13897160Y9106691D01*
X13896677Y9104588D01*
X13896030Y9102161D01*
X13895219Y9099734D01*
X13894249Y9097145D01*
X13893117Y9094557D01*
X13891660Y9091968D01*
X13890042Y9089541D01*
X13888261Y9087114D01*
X13886159Y9084687D01*
X13885997Y9084525D01*
X13885674Y9084202D01*
X13885027Y9083554D01*
X13884056Y9082745D01*
X13882922Y9081936D01*
X13881467Y9080966D01*
X13879849Y9079833D01*
X13878069Y9078700D01*
X13875966Y9077568D01*
X13873700Y9076435D01*
X13871274Y9075464D01*
X13868523Y9074655D01*
X13865771Y9073846D01*
X13862698Y9073199D01*
X13859624Y9072876D01*
X13856226Y9072714D01*
X13855093D01*
X13854285Y9072876D01*
X13853314D01*
X13852180Y9073037D01*
X13849431Y9073361D01*
X13846033Y9074008D01*
X13842473Y9074817D01*
X13838753Y9076112D01*
X13834869Y9077730D01*
X13834708D01*
X13834384Y9077891D01*
X13833897Y9078215D01*
X13833250Y9078700D01*
X13831471Y9079833D01*
X13829205Y9081451D01*
X13826779Y9083554D01*
X13824190Y9086143D01*
X13821764Y9089055D01*
X13819498Y9092453D01*
Y9092615D01*
X13819336Y9092939D01*
X13819012Y9093424D01*
X13818689Y9094233D01*
X13818365Y9095204D01*
X13817880Y9096336D01*
X13817395Y9097631D01*
X13816908Y9099087D01*
X13816425Y9100705D01*
X13815939Y9102485D01*
X13815131Y9106530D01*
X13814482Y9111222D01*
X13814320Y9116238D01*
Y9116399D01*
Y9116723D01*
Y9117370D01*
X13814482Y9118017D01*
Y9118988D01*
X13814644Y9120121D01*
X13814967Y9122871D01*
X13815614Y9125945D01*
X13816586Y9129343D01*
X13817719Y9133065D01*
X13819498Y9136786D01*
Y9136948D01*
X13819823Y9137271D01*
X13819984Y9137757D01*
X13820470Y9138404D01*
X13821764Y9140184D01*
X13823381Y9142449D01*
X13825485Y9144876D01*
X13828073Y9147465D01*
X13830986Y9149892D01*
X13834384Y9152157D01*
X13834544D01*
X13834869Y9152318D01*
X13835355Y9152642D01*
X13836163Y9152966D01*
X13836972Y9153451D01*
X13838104Y9153775D01*
X13839400Y9154260D01*
X13840694Y9154907D01*
X13843930Y9155878D01*
X13847652Y9156687D01*
X13851695Y9157334D01*
X13856064Y9157496D01*
X13857845D01*
X13859138Y9157334D01*
D02*
G37*
G36*
X13163570Y9155716D02*
X13178293D01*
Y9138565D01*
X13163570D01*
Y9105720D01*
Y9105559D01*
Y9105235D01*
Y9104750D01*
Y9104102D01*
Y9102484D01*
Y9100543D01*
X13163731Y9098601D01*
Y9096660D01*
Y9095204D01*
X13163893Y9094556D01*
Y9094233D01*
X13164053Y9093909D01*
X13164378Y9093262D01*
X13164864Y9092453D01*
X13165834Y9091482D01*
X13166158Y9091320D01*
X13166805Y9090997D01*
X13167938Y9090673D01*
X13169394Y9090511D01*
X13170041D01*
X13170688Y9090673D01*
X13171658Y9090835D01*
X13172952Y9090997D01*
X13174409Y9091320D01*
X13176189Y9091806D01*
X13178131Y9092453D01*
X13180072Y9075788D01*
X13179910D01*
X13179749Y9075626D01*
X13178778Y9075302D01*
X13177161Y9074817D01*
X13175056Y9074332D01*
X13172630Y9073684D01*
X13169717Y9073199D01*
X13166481Y9072875D01*
X13163084Y9072714D01*
X13162112D01*
X13160980Y9072875D01*
X13159525Y9073037D01*
X13157906Y9073199D01*
X13156126Y9073523D01*
X13154347Y9074008D01*
X13152567Y9074655D01*
X13152405Y9074817D01*
X13151758Y9074979D01*
X13150949Y9075464D01*
X13149979Y9075950D01*
X13147713Y9077568D01*
X13146581Y9078538D01*
X13145609Y9079671D01*
X13145448Y9079833D01*
X13145287Y9080318D01*
X13144962Y9080965D01*
X13144476Y9081936D01*
X13143991Y9083069D01*
X13143506Y9084525D01*
X13143021Y9086143D01*
X13142697Y9087923D01*
Y9088084D01*
X13142535Y9088732D01*
Y9089702D01*
X13142374Y9091320D01*
X13142212Y9093424D01*
Y9096013D01*
X13142050Y9097469D01*
Y9099249D01*
Y9101028D01*
Y9103132D01*
Y9138565D01*
X13132179D01*
Y9155716D01*
X13142050D01*
Y9171896D01*
X13163570Y9184516D01*
Y9155716D01*
D02*
G37*
G36*
X13085258Y9157334D02*
X13086877Y9157172D01*
X13088657Y9156849D01*
X13090759Y9156525D01*
X13092863Y9156040D01*
X13095290Y9155392D01*
X13097717Y9154583D01*
X13100143Y9153613D01*
X13102733Y9152480D01*
X13105322Y9151024D01*
X13107748Y9149406D01*
X13110176Y9147626D01*
X13112440Y9145523D01*
X13112604Y9145361D01*
X13112926Y9145037D01*
X13113573Y9144228D01*
X13114221Y9143419D01*
X13115192Y9142125D01*
X13116162Y9140831D01*
X13117294Y9139051D01*
X13118427Y9137271D01*
X13119398Y9135168D01*
X13120531Y9132902D01*
X13121503Y9130314D01*
X13122472Y9127725D01*
X13123120Y9124813D01*
X13123767Y9121900D01*
X13124091Y9118664D01*
X13124252Y9115267D01*
Y9115105D01*
Y9114458D01*
Y9113487D01*
X13124091Y9112192D01*
X13123929Y9110574D01*
X13123605Y9108795D01*
X13123280Y9106691D01*
X13122797Y9104588D01*
X13122150Y9102161D01*
X13121339Y9099734D01*
X13120369Y9097145D01*
X13119237Y9094556D01*
X13117780Y9091968D01*
X13116162Y9089541D01*
X13114381Y9087114D01*
X13112279Y9084687D01*
X13112117Y9084525D01*
X13111794Y9084201D01*
X13111147Y9083554D01*
X13110176Y9082745D01*
X13109042Y9081936D01*
X13107587Y9080965D01*
X13105969Y9079833D01*
X13104189Y9078700D01*
X13102086Y9077568D01*
X13099821Y9076435D01*
X13097394Y9075464D01*
X13094643Y9074655D01*
X13091893Y9073846D01*
X13088818Y9073199D01*
X13085744Y9072875D01*
X13082346Y9072714D01*
X13081213D01*
X13080405Y9072875D01*
X13079434D01*
X13078302Y9073037D01*
X13075551Y9073361D01*
X13072153Y9074008D01*
X13068594Y9074817D01*
X13064873Y9076111D01*
X13060989Y9077729D01*
X13060828D01*
X13060504Y9077891D01*
X13060017Y9078215D01*
X13059370Y9078700D01*
X13057591Y9079833D01*
X13055325Y9081451D01*
X13052899Y9083554D01*
X13050310Y9086143D01*
X13047884Y9089055D01*
X13045618Y9092453D01*
Y9092615D01*
X13045457Y9092938D01*
X13045132Y9093424D01*
X13044809Y9094233D01*
X13044485Y9095204D01*
X13044000Y9096336D01*
X13043515Y9097631D01*
X13043030Y9099087D01*
X13042545Y9100705D01*
X13042059Y9102484D01*
X13041251Y9106529D01*
X13040604Y9111222D01*
X13040440Y9116237D01*
Y9116399D01*
Y9116723D01*
Y9117370D01*
X13040604Y9118017D01*
Y9118988D01*
X13040764Y9120120D01*
X13041087Y9122871D01*
X13041734Y9125945D01*
X13042706Y9129343D01*
X13043839Y9133064D01*
X13045618Y9136786D01*
Y9136947D01*
X13045943Y9137271D01*
X13046104Y9137756D01*
X13046590Y9138404D01*
X13047884Y9140183D01*
X13049501Y9142449D01*
X13051605Y9144876D01*
X13054195Y9147464D01*
X13057106Y9149891D01*
X13060504Y9152156D01*
X13060666D01*
X13060989Y9152318D01*
X13061475Y9152642D01*
X13062283Y9152965D01*
X13063092Y9153451D01*
X13064224Y9153774D01*
X13065520Y9154260D01*
X13066814Y9154907D01*
X13070050Y9155878D01*
X13073772Y9156687D01*
X13077815Y9157334D01*
X13082185Y9157496D01*
X13083965D01*
X13085258Y9157334D01*
D02*
G37*
G36*
X13015846Y9155716D02*
X13030571D01*
Y9138565D01*
X13015846D01*
Y9105720D01*
Y9105559D01*
Y9105235D01*
Y9104750D01*
Y9104102D01*
Y9102484D01*
Y9100543D01*
X13016010Y9098601D01*
Y9096660D01*
Y9095204D01*
X13016171Y9094556D01*
Y9094233D01*
X13016333Y9093909D01*
X13016656Y9093262D01*
X13017142Y9092453D01*
X13018114Y9091482D01*
X13018436Y9091320D01*
X13019083Y9090997D01*
X13020216Y9090673D01*
X13021672Y9090511D01*
X13022319D01*
X13022968Y9090673D01*
X13023936Y9090835D01*
X13025232Y9090997D01*
X13026688Y9091320D01*
X13028468Y9091806D01*
X13030409Y9092453D01*
X13032352Y9075788D01*
X13032188D01*
X13032027Y9075626D01*
X13031056Y9075302D01*
X13029439Y9074817D01*
X13027335Y9074332D01*
X13024908Y9073684D01*
X13021996Y9073199D01*
X13018761Y9072875D01*
X13015363Y9072714D01*
X13014391D01*
X13013258Y9072875D01*
X13011803Y9073037D01*
X13010185Y9073199D01*
X13008405Y9073523D01*
X13006625Y9074008D01*
X13004845Y9074655D01*
X13004683Y9074817D01*
X13004036Y9074979D01*
X13003227Y9075464D01*
X13002255Y9075950D01*
X12999991Y9077568D01*
X12998859Y9078538D01*
X12997888Y9079671D01*
X12997726Y9079833D01*
X12997565Y9080318D01*
X12997241Y9080965D01*
X12996754Y9081936D01*
X12996271Y9083069D01*
X12995786Y9084525D01*
X12995299Y9086143D01*
X12994975Y9087923D01*
Y9088084D01*
X12994814Y9088732D01*
Y9089702D01*
X12994652Y9091320D01*
X12994490Y9093424D01*
Y9096013D01*
X12994328Y9097469D01*
Y9099249D01*
Y9101028D01*
Y9103132D01*
Y9138565D01*
X12984459D01*
Y9155716D01*
X12994328D01*
Y9171896D01*
X13015846Y9184516D01*
Y9155716D01*
D02*
G37*
G36*
X12940126Y9157334D02*
X12941582Y9157172D01*
X12943362Y9156849D01*
X12945303Y9156525D01*
X12947408Y9156040D01*
X12949672Y9155392D01*
X12951936Y9154583D01*
X12954364Y9153613D01*
X12956792Y9152318D01*
X12959056Y9151024D01*
X12961322Y9149406D01*
X12963586Y9147464D01*
X12965527Y9145361D01*
X12965691Y9145199D01*
X12966014Y9144876D01*
X12966499Y9144067D01*
X12967146Y9143096D01*
X12967955Y9141801D01*
X12968764Y9140345D01*
X12969736Y9138404D01*
X12970706Y9136300D01*
X12971677Y9133873D01*
X12972647Y9131123D01*
X12973456Y9128210D01*
X12974265Y9124813D01*
X12974913Y9121253D01*
X12975398Y9117370D01*
X12975722Y9113325D01*
Y9108795D01*
X12922005D01*
Y9108633D01*
Y9108309D01*
Y9107824D01*
X12922166Y9107177D01*
X12922328Y9105559D01*
X12922652Y9103293D01*
X12923299Y9101028D01*
X12924271Y9098440D01*
X12925401Y9096013D01*
X12927020Y9093909D01*
X12927182Y9093747D01*
X12927991Y9093100D01*
X12928963Y9092291D01*
X12930418Y9091320D01*
X12932198Y9090350D01*
X12934464Y9089541D01*
X12936890Y9088893D01*
X12939479Y9088732D01*
X12940288D01*
X12941258Y9088893D01*
X12942390Y9089055D01*
X12943686Y9089379D01*
X12945142Y9089864D01*
X12946597Y9090511D01*
X12947893Y9091482D01*
X12948055Y9091644D01*
X12948540Y9091968D01*
X12949187Y9092615D01*
X12949834Y9093586D01*
X12950806Y9094880D01*
X12951614Y9096336D01*
X12952423Y9098278D01*
X12953232Y9100381D01*
X12974590Y9096822D01*
Y9096660D01*
X12974426Y9096336D01*
X12974104Y9095689D01*
X12973779Y9094880D01*
X12973296Y9093909D01*
X12972809Y9092777D01*
X12971353Y9090188D01*
X12969572Y9087275D01*
X12967308Y9084201D01*
X12964558Y9081451D01*
X12961482Y9078862D01*
X12961322D01*
X12961160Y9078538D01*
X12960513Y9078377D01*
X12959865Y9077891D01*
X12959056Y9077406D01*
X12957924Y9076920D01*
X12956792Y9076435D01*
X12955334Y9075788D01*
X12952100Y9074655D01*
X12948378Y9073684D01*
X12944009Y9073037D01*
X12939317Y9072714D01*
X12938345D01*
X12937375Y9072875D01*
X12935919D01*
X12934138Y9073199D01*
X12932036Y9073523D01*
X12929771Y9073846D01*
X12927505Y9074493D01*
X12924918Y9075141D01*
X12922328Y9076111D01*
X12919739Y9077244D01*
X12917151Y9078538D01*
X12914561Y9080156D01*
X12912135Y9081936D01*
X12910033Y9084039D01*
X12907928Y9086466D01*
X12907767Y9086628D01*
X12907605Y9086952D01*
X12907281Y9087599D01*
X12906635Y9088408D01*
X12906148Y9089541D01*
X12905501Y9090835D01*
X12904692Y9092291D01*
X12904045Y9094071D01*
X12903236Y9096013D01*
X12902589Y9098116D01*
X12901781Y9100381D01*
X12901294Y9102970D01*
X12900809Y9105559D01*
X12900323Y9108309D01*
X12900162Y9111383D01*
X12900000Y9114458D01*
Y9114619D01*
Y9115267D01*
Y9116399D01*
X12900162Y9117855D01*
X12900323Y9119473D01*
X12900487Y9121415D01*
X12900809Y9123518D01*
X12901294Y9125945D01*
X12902589Y9130961D01*
X12903398Y9133550D01*
X12904369Y9136300D01*
X12905663Y9138889D01*
X12907120Y9141316D01*
X12908737Y9143743D01*
X12910516Y9146008D01*
X12910680Y9146170D01*
X12911002Y9146494D01*
X12911650Y9147141D01*
X12912459Y9147788D01*
X12913429Y9148597D01*
X12914725Y9149568D01*
X12916180Y9150700D01*
X12917798Y9151833D01*
X12919579Y9152804D01*
X12921681Y9153936D01*
X12923784Y9154907D01*
X12926212Y9155716D01*
X12928638Y9156363D01*
X12931389Y9157010D01*
X12934138Y9157334D01*
X12937051Y9157496D01*
X12938832D01*
X12940126Y9157334D01*
D02*
G37*
G36*
X14071255Y9188238D02*
X14071579Y9187590D01*
X14072227Y9186781D01*
X14073036Y9185487D01*
X14074007Y9184031D01*
X14075139Y9182251D01*
X14076273Y9180148D01*
X14077567Y9177883D01*
X14079022Y9175294D01*
X14080478Y9172543D01*
X14081934Y9169793D01*
X14083391Y9166719D01*
X14086304Y9160247D01*
X14088892Y9153451D01*
Y9153289D01*
X14089215Y9152642D01*
X14089539Y9151671D01*
X14089864Y9150215D01*
X14090347Y9148597D01*
X14090994Y9146656D01*
X14091481Y9144390D01*
X14092128Y9141802D01*
X14092775Y9139213D01*
X14093260Y9136300D01*
X14093909Y9133065D01*
X14094392Y9129829D01*
X14095039Y9123195D01*
X14095364Y9116076D01*
Y9115914D01*
Y9115429D01*
Y9114458D01*
Y9113325D01*
X14095203Y9111869D01*
X14095039Y9110089D01*
X14094878Y9107986D01*
X14094717Y9105721D01*
X14094556Y9103294D01*
X14094069Y9100705D01*
X14093745Y9097793D01*
X14093260Y9094880D01*
X14091966Y9088570D01*
X14090347Y9081775D01*
Y9081613D01*
X14090024Y9080804D01*
X14089700Y9079833D01*
X14089215Y9078377D01*
X14088568Y9076435D01*
X14087759Y9074332D01*
X14086951Y9071905D01*
X14085818Y9069154D01*
X14084523Y9066242D01*
X14083229Y9063006D01*
X14081612Y9059770D01*
X14079993Y9056210D01*
X14078052Y9052651D01*
X14076109Y9048930D01*
X14074007Y9045208D01*
X14071579Y9041487D01*
X14056694D01*
Y9041649D01*
X14057018Y9042134D01*
X14057341Y9042781D01*
X14057664Y9043752D01*
X14058311Y9044885D01*
X14058797Y9046179D01*
X14060254Y9049253D01*
X14061710Y9052651D01*
X14063165Y9056210D01*
X14064461Y9059608D01*
X14065593Y9062521D01*
Y9062682D01*
X14065755Y9062844D01*
X14066078Y9063815D01*
X14066563Y9065271D01*
X14067210Y9067213D01*
X14067857Y9069640D01*
X14068668Y9072552D01*
X14069476Y9075626D01*
X14070285Y9079024D01*
Y9079186D01*
X14070447Y9079509D01*
Y9079995D01*
X14070609Y9080642D01*
X14071094Y9082422D01*
X14071579Y9084849D01*
X14072066Y9087599D01*
X14072713Y9090673D01*
X14073683Y9096984D01*
Y9097145D01*
Y9097307D01*
X14073845Y9097793D01*
Y9098440D01*
X14074007Y9100220D01*
X14074330Y9102323D01*
X14074492Y9105073D01*
X14074654Y9107986D01*
X14074815Y9111222D01*
Y9114458D01*
Y9114620D01*
Y9115267D01*
Y9116238D01*
Y9117532D01*
X14074654Y9119150D01*
Y9121091D01*
X14074492Y9123195D01*
X14074330Y9125622D01*
X14074168Y9128211D01*
X14073845Y9130961D01*
X14073036Y9136786D01*
X14072066Y9142772D01*
X14070770Y9148921D01*
Y9149083D01*
X14070609Y9149730D01*
X14070285Y9150539D01*
X14069962Y9151833D01*
X14069638Y9153451D01*
X14068991Y9155231D01*
X14068343Y9157496D01*
X14067534Y9159923D01*
X14066563Y9162674D01*
X14065593Y9165748D01*
X14064461Y9168984D01*
X14063165Y9172381D01*
X14061710Y9176103D01*
X14060092Y9179986D01*
X14058475Y9184193D01*
X14056532Y9188399D01*
X14071094D01*
X14071255Y9188238D01*
D02*
G37*
G36*
X13367920Y9188076D02*
X13367596Y9187428D01*
X13367111Y9186134D01*
X13366464Y9184516D01*
X13365492Y9182574D01*
X13364522Y9180148D01*
X13363551Y9177559D01*
X13362419Y9174808D01*
X13361124Y9171734D01*
X13359991Y9168498D01*
X13357565Y9161864D01*
X13355461Y9155231D01*
X13354491Y9151995D01*
X13353682Y9148920D01*
Y9148759D01*
X13353520Y9148273D01*
X13353358Y9147303D01*
X13353035Y9146170D01*
X13352711Y9144552D01*
X13352386Y9142772D01*
X13352065Y9140831D01*
X13351740Y9138565D01*
X13351418Y9136138D01*
X13351093Y9133388D01*
X13350769Y9130637D01*
X13350446Y9127563D01*
X13349960Y9121253D01*
X13349799Y9114458D01*
Y9114296D01*
Y9113972D01*
Y9113163D01*
Y9112354D01*
Y9111222D01*
X13349960Y9109765D01*
Y9108309D01*
X13350122Y9106529D01*
X13350284Y9102646D01*
X13350769Y9098278D01*
X13351254Y9093586D01*
X13352065Y9088732D01*
Y9088570D01*
X13352226Y9088084D01*
Y9087437D01*
X13352550Y9086466D01*
X13352711Y9085334D01*
X13353035Y9084039D01*
X13353358Y9082422D01*
X13353682Y9080804D01*
X13354652Y9076920D01*
X13355623Y9072714D01*
X13356918Y9068345D01*
X13358374Y9063977D01*
Y9063815D01*
X13358536Y9063653D01*
X13358698Y9063168D01*
X13358859Y9062520D01*
X13359183Y9061711D01*
X13359668Y9060741D01*
X13359991Y9059608D01*
X13360638Y9058314D01*
X13361285Y9056696D01*
X13361932Y9055078D01*
X13362743Y9053298D01*
X13363551Y9051194D01*
X13364522Y9049091D01*
X13365492Y9046664D01*
X13366626Y9044237D01*
X13367920Y9041487D01*
X13353197D01*
X13353035Y9041648D01*
X13352711Y9042296D01*
X13352065Y9043266D01*
X13351254Y9044561D01*
X13350284Y9046179D01*
X13349152Y9048120D01*
X13347858Y9050386D01*
X13346564Y9052812D01*
X13345107Y9055401D01*
X13343649Y9058314D01*
X13342194Y9061388D01*
X13340576Y9064462D01*
X13337825Y9071257D01*
X13335237Y9078215D01*
Y9078377D01*
X13334914Y9079024D01*
X13334750Y9080156D01*
X13334267Y9081451D01*
X13333781Y9083230D01*
X13333295Y9085172D01*
X13332809Y9087437D01*
X13332324Y9089864D01*
X13331677Y9092615D01*
X13331192Y9095527D01*
X13330222Y9101675D01*
X13329575Y9108309D01*
X13329250Y9114943D01*
Y9115267D01*
Y9115914D01*
Y9117046D01*
X13329411Y9118664D01*
Y9120606D01*
X13329575Y9123033D01*
X13329897Y9125622D01*
X13330222Y9128534D01*
X13330545Y9131608D01*
X13331030Y9134844D01*
X13332324Y9141963D01*
X13334267Y9149244D01*
X13335399Y9152965D01*
X13336693Y9156687D01*
Y9156849D01*
X13337016Y9157496D01*
X13337340Y9158305D01*
X13337825Y9159599D01*
X13338474Y9161055D01*
X13339282Y9162835D01*
X13340253Y9164938D01*
X13341223Y9167042D01*
X13342355Y9169469D01*
X13343649Y9171896D01*
X13346400Y9177235D01*
X13349799Y9182898D01*
X13353358Y9188399D01*
X13368082D01*
X13367920Y9188076D01*
D02*
G37*
G36*
X16106924Y11104000D02*
X16400000D01*
Y9500000D01*
X16106924D01*
D01*
X15840784D01*
Y11104000D01*
X16106924D01*
D02*
G37*
%LPC*%
G36*
X14963734Y9310945D02*
X14963409D01*
X14962439Y9310784D01*
X14960983Y9310622D01*
X14959364Y9310136D01*
X14957262Y9309489D01*
X14955157Y9308357D01*
X14953055Y9306900D01*
X14950952Y9304797D01*
X14950790Y9304473D01*
X14950143Y9303664D01*
X14949335Y9302208D01*
X14948524Y9300267D01*
X14947554Y9297678D01*
X14946745Y9294604D01*
X14946098Y9290882D01*
X14945937Y9286676D01*
Y9286514D01*
Y9286190D01*
Y9285381D01*
Y9284572D01*
X14946098Y9283440D01*
Y9282307D01*
X14946420Y9279556D01*
X14946745Y9276482D01*
X14947392Y9273246D01*
X14948363Y9270334D01*
X14948848Y9269040D01*
X14949495Y9267907D01*
Y9267745D01*
X14949818Y9267583D01*
X14950465Y9266613D01*
X14951599Y9265318D01*
X14953217Y9263862D01*
X14955321Y9262244D01*
X14957747Y9260950D01*
X14960658Y9259979D01*
X14962277Y9259817D01*
X14963895Y9259655D01*
X14964220D01*
X14965190Y9259817D01*
X14966484Y9259979D01*
X14968263Y9260464D01*
X14970206Y9261112D01*
X14972308Y9262244D01*
X14974413Y9263700D01*
X14976517Y9265804D01*
X14976677Y9266127D01*
X14977325Y9266936D01*
X14978134Y9268392D01*
X14979105Y9270496D01*
X14980075Y9273085D01*
X14980884Y9276321D01*
X14981531Y9280204D01*
X14981693Y9284572D01*
Y9284734D01*
Y9285219D01*
Y9285867D01*
Y9286837D01*
X14981531Y9287970D01*
X14981371Y9289426D01*
X14981046Y9292339D01*
X14980399Y9295736D01*
X14979590Y9298972D01*
X14978294Y9302208D01*
X14977486Y9303503D01*
X14976517Y9304797D01*
X14976353Y9305121D01*
X14975545Y9305768D01*
X14974574Y9306739D01*
X14973119Y9307871D01*
X14971176Y9309004D01*
X14969073Y9309975D01*
X14966484Y9310622D01*
X14963734Y9310945D01*
D02*
G37*
G36*
X13258868Y9310945D02*
X13258543D01*
X13257574Y9310783D01*
X13256117Y9310621D01*
X13254500Y9310136D01*
X13252396Y9309489D01*
X13250293Y9308356D01*
X13248189Y9306900D01*
X13246086Y9304797D01*
X13245924Y9304473D01*
X13245277Y9303664D01*
X13244469Y9302208D01*
X13243658Y9300266D01*
X13242688Y9297678D01*
X13241879Y9294603D01*
X13241232Y9290882D01*
X13241071Y9286675D01*
Y9286514D01*
Y9286190D01*
Y9285381D01*
Y9284572D01*
X13241232Y9283439D01*
Y9282307D01*
X13241556Y9279556D01*
X13241879Y9276482D01*
X13242526Y9273246D01*
X13243497Y9270334D01*
X13243983Y9269039D01*
X13244630Y9267907D01*
Y9267745D01*
X13244952Y9267583D01*
X13245601Y9266612D01*
X13246733Y9265318D01*
X13248351Y9263862D01*
X13250455Y9262244D01*
X13252882Y9260949D01*
X13255794Y9259979D01*
X13257413Y9259817D01*
X13259030Y9259655D01*
X13259354D01*
X13260324Y9259817D01*
X13261620Y9259979D01*
X13263399Y9260464D01*
X13265340Y9261111D01*
X13267442Y9262244D01*
X13269547Y9263700D01*
X13271651Y9265803D01*
X13271812Y9266127D01*
X13272459Y9266936D01*
X13273268Y9268392D01*
X13274239Y9270496D01*
X13275211Y9273084D01*
X13276019Y9276320D01*
X13276666Y9280203D01*
X13276828Y9284572D01*
Y9284734D01*
Y9285219D01*
Y9285866D01*
Y9286837D01*
X13276666Y9287970D01*
X13276505Y9289426D01*
X13276180Y9292338D01*
X13275533Y9295736D01*
X13274724Y9298972D01*
X13273430Y9302208D01*
X13272621Y9303502D01*
X13271651Y9304797D01*
X13271487Y9305120D01*
X13270679Y9305768D01*
X13269708Y9306738D01*
X13268253Y9307871D01*
X13266312Y9309003D01*
X13264207Y9309974D01*
X13261620Y9310621D01*
X13258868Y9310945D01*
D02*
G37*
G36*
X14886394Y9283278D02*
X14886232D01*
X14885585Y9282954D01*
X14884615Y9282792D01*
X14883157Y9282307D01*
X14881378Y9281822D01*
X14878951Y9281174D01*
X14876363Y9280527D01*
X14873128Y9279880D01*
X14872803D01*
X14872318Y9279718D01*
X14871671Y9279556D01*
X14870213Y9279233D01*
X14868272Y9278748D01*
X14866331Y9278262D01*
X14864391Y9277615D01*
X14862772Y9276806D01*
X14861478Y9276159D01*
X14861314Y9275997D01*
X14860831Y9275673D01*
X14860184Y9275026D01*
X14859537Y9274217D01*
X14858727Y9273085D01*
X14858080Y9271790D01*
X14857594Y9270334D01*
X14857433Y9268716D01*
Y9268554D01*
Y9267907D01*
X14857594Y9267098D01*
X14857918Y9266127D01*
X14858241Y9264833D01*
X14858727Y9263538D01*
X14859537Y9262244D01*
X14860667Y9260950D01*
X14860831Y9260788D01*
X14861314Y9260464D01*
X14861963Y9259979D01*
X14863095Y9259332D01*
X14864227Y9258685D01*
X14865685Y9258199D01*
X14867464Y9257876D01*
X14869244Y9257714D01*
X14870213D01*
X14871347Y9257876D01*
X14872803Y9258199D01*
X14874583Y9258685D01*
X14876363Y9259332D01*
X14878465Y9260141D01*
X14880408Y9261435D01*
X14880569Y9261597D01*
X14881055Y9261921D01*
X14881702Y9262568D01*
X14882510Y9263377D01*
X14883321Y9264509D01*
X14884129Y9265642D01*
X14884938Y9267098D01*
X14885423Y9268554D01*
Y9268716D01*
X14885585Y9269040D01*
X14885747Y9269849D01*
X14885909Y9270819D01*
X14886070Y9272276D01*
X14886232Y9274055D01*
X14886394Y9276321D01*
Y9278909D01*
Y9283278D01*
D02*
G37*
G36*
X14181926D02*
X14181764D01*
X14181117Y9282954D01*
X14180145Y9282792D01*
X14178690Y9282307D01*
X14176910Y9281822D01*
X14174483Y9281174D01*
X14171893Y9280527D01*
X14168658Y9279880D01*
X14168335D01*
X14167850Y9279718D01*
X14167203Y9279556D01*
X14165746Y9279233D01*
X14163805Y9278748D01*
X14161864Y9278262D01*
X14159921Y9277615D01*
X14158302Y9276806D01*
X14157008Y9276159D01*
X14156847Y9275997D01*
X14156361Y9275673D01*
X14155714Y9275026D01*
X14155067Y9274217D01*
X14154259Y9273085D01*
X14153612Y9271790D01*
X14153127Y9270334D01*
X14152963Y9268716D01*
Y9268554D01*
Y9267907D01*
X14153127Y9267098D01*
X14153448Y9266127D01*
X14153773Y9264833D01*
X14154259Y9263538D01*
X14155067Y9262244D01*
X14156200Y9260950D01*
X14156361Y9260788D01*
X14156847Y9260464D01*
X14157494Y9259979D01*
X14158627Y9259332D01*
X14159760Y9258685D01*
X14161217Y9258199D01*
X14162994Y9257876D01*
X14164775Y9257714D01*
X14165746D01*
X14166878Y9257876D01*
X14168335Y9258199D01*
X14170114Y9258685D01*
X14171893Y9259332D01*
X14173997Y9260141D01*
X14175938Y9261435D01*
X14176102Y9261597D01*
X14176585Y9261921D01*
X14177234Y9262568D01*
X14178043Y9263377D01*
X14178851Y9264509D01*
X14179660Y9265642D01*
X14180469Y9267098D01*
X14180956Y9268554D01*
Y9268716D01*
X14181117Y9269040D01*
X14181277Y9269849D01*
X14181441Y9270819D01*
X14181602Y9272276D01*
X14181764Y9274055D01*
X14181926Y9276321D01*
Y9278909D01*
Y9283278D01*
D02*
G37*
G36*
X13181529Y9283278D02*
X13181367D01*
X13180721Y9282954D01*
X13179749Y9282792D01*
X13178293Y9282307D01*
X13176514Y9281821D01*
X13174086Y9281174D01*
X13171497Y9280527D01*
X13168262Y9279880D01*
X13167938D01*
X13167451Y9279718D01*
X13166805Y9279556D01*
X13165349Y9279233D01*
X13163406Y9278747D01*
X13161465Y9278262D01*
X13159525Y9277615D01*
X13157906Y9276806D01*
X13156612Y9276158D01*
X13156450Y9275997D01*
X13155965Y9275673D01*
X13155318Y9275026D01*
X13154671Y9274217D01*
X13153860Y9273084D01*
X13153214Y9271790D01*
X13152728Y9270334D01*
X13152567Y9268716D01*
Y9268554D01*
Y9267907D01*
X13152728Y9267098D01*
X13153052Y9266127D01*
X13153375Y9264833D01*
X13153860Y9263538D01*
X13154671Y9262244D01*
X13155803Y9260949D01*
X13155965Y9260788D01*
X13156450Y9260464D01*
X13157097Y9259979D01*
X13158231Y9259331D01*
X13159361Y9258684D01*
X13160818Y9258199D01*
X13162598Y9257875D01*
X13164378Y9257714D01*
X13165349D01*
X13166481Y9257875D01*
X13167938Y9258199D01*
X13169717Y9258684D01*
X13171497Y9259331D01*
X13173601Y9260140D01*
X13175542Y9261435D01*
X13175703Y9261597D01*
X13176189Y9261920D01*
X13176836Y9262567D01*
X13177644Y9263376D01*
X13178455Y9264509D01*
X13179263Y9265642D01*
X13180072Y9267098D01*
X13180557Y9268554D01*
Y9268716D01*
X13180721Y9269039D01*
X13180881Y9269848D01*
X13181042Y9270819D01*
X13181206Y9272275D01*
X13181367Y9274055D01*
X13181529Y9276320D01*
Y9278909D01*
Y9283278D01*
D02*
G37*
G36*
X15526305Y9310946D02*
X15525172D01*
X15523878Y9310622D01*
X15522260Y9310298D01*
X15520480Y9309651D01*
X15518539Y9308842D01*
X15516597Y9307548D01*
X15514818Y9305768D01*
X15514656Y9305606D01*
X15514169Y9304797D01*
X15513361Y9303665D01*
X15512552Y9302047D01*
X15511581Y9300105D01*
X15510934Y9297678D01*
X15510449Y9294928D01*
X15510287Y9291853D01*
X15542323D01*
Y9292015D01*
Y9292339D01*
Y9292662D01*
X15542162Y9293310D01*
X15542000Y9295089D01*
X15541676Y9297031D01*
X15541029Y9299296D01*
X15540221Y9301723D01*
X15538925Y9303988D01*
X15537469Y9305930D01*
X15537308Y9306092D01*
X15536659Y9306739D01*
X15535690Y9307548D01*
X15534395Y9308519D01*
X15532777Y9309328D01*
X15530836Y9310137D01*
X15528732Y9310784D01*
X15526305Y9310946D01*
D02*
G37*
G36*
X15352211D02*
X15351077D01*
X15349783Y9310622D01*
X15348166Y9310298D01*
X15346387Y9309651D01*
X15344444Y9308842D01*
X15342503Y9307548D01*
X15340723Y9305768D01*
X15340561Y9305606D01*
X15340076Y9304797D01*
X15339267Y9303665D01*
X15338458Y9302047D01*
X15337486Y9300105D01*
X15336839Y9297678D01*
X15336354Y9294928D01*
X15336192Y9291853D01*
X15368230D01*
Y9292015D01*
Y9292339D01*
Y9292662D01*
X15368066Y9293310D01*
X15367905Y9295089D01*
X15367581Y9297031D01*
X15366934Y9299296D01*
X15366125Y9301723D01*
X15364832Y9303988D01*
X15363374Y9305930D01*
X15363213Y9306092D01*
X15362566Y9306739D01*
X15361595Y9307548D01*
X15360300Y9308519D01*
X15358682Y9309328D01*
X15356741Y9310137D01*
X15354639Y9310784D01*
X15352211Y9310946D01*
D02*
G37*
G36*
X15056444Y9310945D02*
X15055312D01*
X15054018Y9310622D01*
X15052399Y9310298D01*
X15050620Y9309651D01*
X15048679Y9308842D01*
X15046736Y9307548D01*
X15044955Y9305768D01*
X15044794Y9305606D01*
X15044308Y9304797D01*
X15043500Y9303664D01*
X15042691Y9302046D01*
X15041721Y9300105D01*
X15041074Y9297678D01*
X15040588Y9294927D01*
X15040427Y9291853D01*
X15072462D01*
Y9292015D01*
Y9292339D01*
Y9292662D01*
X15072301Y9293309D01*
X15072137Y9295089D01*
X15071815Y9297031D01*
X15071167Y9299296D01*
X15070358Y9301723D01*
X15069064Y9303988D01*
X15067609Y9305930D01*
X15067445Y9306091D01*
X15066798Y9306739D01*
X15065828Y9307548D01*
X15064534Y9308518D01*
X15062917Y9309327D01*
X15060974Y9310136D01*
X15058871Y9310784D01*
X15056444Y9310945D01*
D02*
G37*
G36*
X14299876D02*
X14298744D01*
X14297449Y9310622D01*
X14295831Y9310298D01*
X14294052Y9309651D01*
X14292110Y9308842D01*
X14290169Y9307548D01*
X14288390Y9305768D01*
X14288226Y9305606D01*
X14287743Y9304797D01*
X14286932Y9303664D01*
X14286124Y9302046D01*
X14285153Y9300105D01*
X14284506Y9297678D01*
X14284019Y9294927D01*
X14283858Y9291853D01*
X14315894D01*
Y9292015D01*
Y9292339D01*
Y9292662D01*
X14315733Y9293309D01*
X14315572Y9295089D01*
X14315247Y9297031D01*
X14314600Y9299296D01*
X14313791Y9301723D01*
X14312497Y9303988D01*
X14311040Y9305930D01*
X14310880Y9306091D01*
X14310231Y9306739D01*
X14309261Y9307548D01*
X14307967Y9308518D01*
X14306348Y9309327D01*
X14304407Y9310136D01*
X14302303Y9310784D01*
X14299876Y9310945D01*
D02*
G37*
G36*
X13821440D02*
X13820306D01*
X13819012Y9310622D01*
X13817395Y9310298D01*
X13815614Y9309651D01*
X13813673Y9308842D01*
X13811732Y9307548D01*
X13809952Y9305768D01*
X13809790Y9305606D01*
X13809305Y9304797D01*
X13808496Y9303664D01*
X13807687Y9302046D01*
X13806715Y9300105D01*
X13806068Y9297678D01*
X13805585Y9294927D01*
X13805421Y9291853D01*
X13837457D01*
Y9292015D01*
Y9292339D01*
Y9292662D01*
X13837296Y9293309D01*
X13837134Y9295089D01*
X13836810Y9297031D01*
X13836163Y9299296D01*
X13835355Y9301723D01*
X13834061Y9303988D01*
X13832603Y9305930D01*
X13832442Y9306091D01*
X13831795Y9306739D01*
X13830824Y9307548D01*
X13829530Y9308518D01*
X13827911Y9309327D01*
X13825970Y9310136D01*
X13823866Y9310784D01*
X13821440Y9310945D01*
D02*
G37*
G36*
X13647345D02*
X13646211D01*
X13644917Y9310622D01*
X13643300Y9310298D01*
X13641521Y9309651D01*
X13639578Y9308842D01*
X13637637Y9307548D01*
X13635857Y9305768D01*
X13635696Y9305606D01*
X13635210Y9304797D01*
X13634401Y9303664D01*
X13633592Y9302046D01*
X13632620Y9300105D01*
X13631973Y9297678D01*
X13631490Y9294927D01*
X13631326Y9291853D01*
X13663364D01*
Y9292015D01*
Y9292339D01*
Y9292662D01*
X13663200Y9293309D01*
X13663039Y9295089D01*
X13662717Y9297031D01*
X13662070Y9299296D01*
X13661259Y9301723D01*
X13659966Y9303988D01*
X13658508Y9305930D01*
X13658347Y9306091D01*
X13657700Y9306739D01*
X13656729Y9307548D01*
X13655435Y9308518D01*
X13653818Y9309327D01*
X13651875Y9310136D01*
X13649773Y9310784D01*
X13647345Y9310945D01*
D02*
G37*
G36*
X13351578Y9310945D02*
X13350446D01*
X13349152Y9310621D01*
X13347533Y9310298D01*
X13345753Y9309651D01*
X13343813Y9308842D01*
X13341870Y9307547D01*
X13340091Y9305768D01*
X13339929Y9305606D01*
X13339442Y9304797D01*
X13338634Y9303664D01*
X13337825Y9302046D01*
X13336855Y9300105D01*
X13336208Y9297678D01*
X13335722Y9294927D01*
X13335561Y9291853D01*
X13367596D01*
Y9292015D01*
Y9292338D01*
Y9292662D01*
X13367435Y9293309D01*
X13367273Y9295089D01*
X13366949Y9297030D01*
X13366302Y9299296D01*
X13365492Y9301723D01*
X13364198Y9303988D01*
X13362743Y9305929D01*
X13362581Y9306091D01*
X13361932Y9306738D01*
X13360963Y9307547D01*
X13359668Y9308518D01*
X13358051Y9309327D01*
X13356110Y9310136D01*
X13354005Y9310783D01*
X13351578Y9310945D01*
D02*
G37*
G36*
X13856226Y9140022D02*
X13855417D01*
X13854770Y9139860D01*
X13853314Y9139698D01*
X13851372Y9139213D01*
X13849107Y9138404D01*
X13846680Y9137271D01*
X13844254Y9135653D01*
X13841988Y9133550D01*
X13841826Y9133226D01*
X13841179Y9132417D01*
X13840208Y9130799D01*
X13839236Y9128858D01*
X13838104Y9126269D01*
X13837296Y9123033D01*
X13836649Y9119312D01*
X13836325Y9115105D01*
Y9114943D01*
Y9114620D01*
Y9113972D01*
X13836487Y9113163D01*
Y9112031D01*
X13836649Y9110898D01*
X13836972Y9108309D01*
X13837781Y9105235D01*
X13838753Y9102161D01*
X13840047Y9099087D01*
X13841988Y9096498D01*
X13842313Y9096175D01*
X13842960Y9095527D01*
X13844254Y9094557D01*
X13846033Y9093424D01*
X13847975Y9092130D01*
X13850401Y9091159D01*
X13853152Y9090512D01*
X13856226Y9090188D01*
X13857034D01*
X13857681Y9090350D01*
X13859138Y9090512D01*
X13861079Y9090997D01*
X13863345Y9091806D01*
X13865771Y9092777D01*
X13868037Y9094395D01*
X13870303Y9096498D01*
X13870625Y9096822D01*
X13871274Y9097631D01*
X13872083Y9099249D01*
X13873215Y9101190D01*
X13874348Y9103941D01*
X13875157Y9107015D01*
X13875804Y9110898D01*
X13876128Y9115105D01*
Y9115267D01*
Y9115590D01*
Y9116238D01*
X13875966Y9117047D01*
Y9118017D01*
X13875804Y9119312D01*
X13875481Y9121900D01*
X13874670Y9124813D01*
X13873700Y9127887D01*
X13872244Y9130961D01*
X13870303Y9133550D01*
X13869978Y9133874D01*
X13869331Y9134521D01*
X13868037Y9135653D01*
X13866420Y9136786D01*
X13864316Y9137918D01*
X13862051Y9139051D01*
X13859300Y9139698D01*
X13856226Y9140022D01*
D02*
G37*
G36*
X13082346Y9140022D02*
X13081537D01*
X13080890Y9139860D01*
X13079434Y9139698D01*
X13077493Y9139213D01*
X13075227Y9138404D01*
X13072800Y9137271D01*
X13070374Y9135653D01*
X13068108Y9133550D01*
X13067946Y9133226D01*
X13067299Y9132417D01*
X13066328Y9130799D01*
X13065358Y9128858D01*
X13064224Y9126269D01*
X13063416Y9123033D01*
X13062769Y9119311D01*
X13062445Y9115105D01*
Y9114943D01*
Y9114619D01*
Y9113972D01*
X13062607Y9113163D01*
Y9112031D01*
X13062769Y9110898D01*
X13063092Y9108309D01*
X13063901Y9105235D01*
X13064873Y9102161D01*
X13066167Y9099087D01*
X13068108Y9096498D01*
X13068433Y9096174D01*
X13069080Y9095527D01*
X13070374Y9094556D01*
X13072153Y9093424D01*
X13074095Y9092129D01*
X13076521Y9091159D01*
X13079272Y9090511D01*
X13082346Y9090188D01*
X13083154D01*
X13083803Y9090350D01*
X13085258Y9090511D01*
X13087199Y9090997D01*
X13089465Y9091806D01*
X13091893Y9092777D01*
X13094157Y9094395D01*
X13096423Y9096498D01*
X13096745Y9096822D01*
X13097394Y9097631D01*
X13098203Y9099249D01*
X13099335Y9101190D01*
X13100468Y9103941D01*
X13101277Y9107015D01*
X13101924Y9110898D01*
X13102248Y9115105D01*
Y9115267D01*
Y9115590D01*
Y9116237D01*
X13102086Y9117046D01*
Y9118017D01*
X13101924Y9119311D01*
X13101601Y9121900D01*
X13100790Y9124813D01*
X13099821Y9127887D01*
X13098364Y9130961D01*
X13096423Y9133550D01*
X13096098Y9133873D01*
X13095451Y9134520D01*
X13094157Y9135653D01*
X13092540Y9136786D01*
X13090436Y9137918D01*
X13088171Y9139051D01*
X13085422Y9139698D01*
X13082346Y9140022D01*
D02*
G37*
G36*
X12938345Y9140992D02*
X12937215D01*
X12935919Y9140669D01*
X12934302Y9140345D01*
X12932523Y9139698D01*
X12930580Y9138889D01*
X12928638Y9137595D01*
X12926859Y9135815D01*
X12926697Y9135653D01*
X12926212Y9134844D01*
X12925401Y9133711D01*
X12924593Y9132093D01*
X12923624Y9130152D01*
X12922975Y9127725D01*
X12922490Y9124974D01*
X12922328Y9121900D01*
X12954364D01*
Y9122062D01*
Y9122386D01*
Y9122709D01*
X12954202Y9123356D01*
X12954041Y9125136D01*
X12953717Y9127078D01*
X12953070Y9129343D01*
X12952261Y9131770D01*
X12950966Y9134035D01*
X12949510Y9135977D01*
X12949348Y9136138D01*
X12948701Y9136786D01*
X12947731Y9137595D01*
X12946436Y9138565D01*
X12944818Y9139374D01*
X12942877Y9140183D01*
X12940773Y9140831D01*
X12938345Y9140992D01*
D02*
G37*
G36*
X16103917Y10958283D02*
X15943793D01*
D01*
X16103917D01*
X16030333Y10915706D01*
X15987756Y10955506D01*
Y10917789D01*
X16028714Y10881923D01*
X15943793D01*
Y10851147D01*
X16103917D01*
Y10895807D01*
Y10881923D01*
X16066895D01*
X16051852Y10895807D01*
X16103917Y10925194D01*
Y10958283D01*
D02*
G37*
G36*
Y10820603D02*
X15943793D01*
Y10789828D01*
X15972253D01*
Y10820603D01*
X15987756D01*
Y10789828D01*
X16103917D01*
Y10820603D01*
D02*
G37*
G36*
Y10776639D02*
X15985213D01*
Y10701667D01*
D01*
Y10756276D01*
X15985443Y10753499D01*
X15985674Y10751185D01*
X15986369Y10748871D01*
X15987064Y10747020D01*
X15987756Y10745400D01*
X15988220Y10744012D01*
X15988683Y10743318D01*
X15988914Y10743086D01*
X15990533Y10740773D01*
X15992848Y10738690D01*
X15995393Y10736376D01*
X15997939Y10734525D01*
X16000484Y10732674D01*
X16002567Y10731285D01*
X16003955Y10730360D01*
X16004185Y10730128D01*
X15987756D01*
Y10701667D01*
X16103917D01*
Y10732674D01*
Y10732442D01*
X16068282D01*
X16062959D01*
X16058101D01*
X16053703Y10732674D01*
X16049771Y10732905D01*
X16046068D01*
X16043060Y10733137D01*
X16040051Y10733368D01*
X16037738Y10733599D01*
X16035657Y10733831D01*
X16033804Y10734062D01*
X16032416Y10734293D01*
X16031259D01*
X16030565Y10734525D01*
X16029871Y10734756D01*
X16029408D01*
X16026167Y10735682D01*
X16023392Y10736839D01*
X16021078Y10737996D01*
X16019458Y10739153D01*
X16018069Y10740078D01*
X16017143Y10741004D01*
X16016681Y10741467D01*
X16016451Y10741698D01*
X16015292Y10743549D01*
X16014368Y10745400D01*
X16013673Y10747252D01*
X16013210Y10748871D01*
X16012979Y10750260D01*
X16012749Y10751648D01*
Y10752574D01*
X16012979Y10755119D01*
X16013441Y10757664D01*
X16014368Y10759978D01*
X16015292Y10762292D01*
X16016219Y10764143D01*
X16017143Y10765532D01*
X16017607Y10766689D01*
X16017838Y10766920D01*
X15991228Y10776639D01*
X15989145Y10772936D01*
X15987756Y10769465D01*
X15986600Y10765994D01*
X15985905Y10762755D01*
X15985443Y10760210D01*
X15985213Y10758127D01*
Y10776639D01*
X16103917D01*
D01*
D02*
G37*
G36*
X16106462Y10677833D02*
X15985213D01*
Y10569541D01*
Y10622530D01*
X15985443Y10618365D01*
X15985905Y10614431D01*
X15986832Y10610498D01*
X15987756Y10607027D01*
X15988914Y10603556D01*
X15990302Y10600548D01*
X15991922Y10597540D01*
X15993311Y10594994D01*
X15994930Y10592680D01*
X15996550Y10590598D01*
X15997939Y10588747D01*
X15999095Y10587358D01*
X16000021Y10586201D01*
X16000946Y10585276D01*
X16001408Y10584813D01*
X16001640Y10584582D01*
X16004880Y10582036D01*
X16008351Y10579722D01*
X16011823Y10577640D01*
X16015524Y10575789D01*
X16019458Y10574400D01*
X16023160Y10573243D01*
X16030333Y10571392D01*
X16033804Y10570698D01*
X16036812Y10570235D01*
X16039589Y10570004D01*
X16041904Y10569772D01*
X16043987Y10569541D01*
X16046762D01*
X16051160Y10569772D01*
X16055556Y10570004D01*
X16059489Y10570698D01*
X16063191Y10571392D01*
X16066895Y10572086D01*
X16070132Y10573243D01*
X16073141Y10574169D01*
X16075919Y10575326D01*
X16078464Y10576251D01*
X16080547Y10577408D01*
X16082397Y10578334D01*
X16084016Y10579028D01*
X16085175Y10579954D01*
X16086099Y10580416D01*
X16086562Y10580648D01*
X16086794Y10580879D01*
X16090263Y10583887D01*
X16093272Y10586896D01*
X16095818Y10590366D01*
X16098132Y10594069D01*
X16099983Y10597771D01*
X16101604Y10601473D01*
X16102991Y10605176D01*
X16103917Y10608878D01*
X16104842Y10612117D01*
X16105305Y10615357D01*
X16105768Y10618365D01*
X16106232Y10620910D01*
Y10622993D01*
X16106462Y10624381D01*
Y10625770D01*
X16106000Y10632480D01*
X16105074Y10638728D01*
X16103685Y10644050D01*
X16102066Y10648678D01*
X16101140Y10650760D01*
X16100446Y10652380D01*
X16099751Y10654000D01*
X16099057Y10655157D01*
X16098363Y10656082D01*
X16098132Y10657008D01*
X16097668Y10657239D01*
Y10657471D01*
X16093967Y10661867D01*
X16090033Y10665801D01*
X16085637Y10669040D01*
X16081471Y10671586D01*
X16077769Y10673668D01*
X16076149Y10674362D01*
X16074760Y10675057D01*
X16073604Y10675519D01*
X16072679Y10675982D01*
X16072215Y10676214D01*
X16071983D01*
X16066895Y10645670D01*
X16069902Y10644513D01*
X16072679Y10643356D01*
X16074760Y10642199D01*
X16076611Y10640810D01*
X16078001Y10639885D01*
X16078926Y10638959D01*
X16079388Y10638265D01*
X16079620Y10638034D01*
X16081009Y10636182D01*
X16081934Y10634100D01*
X16082628Y10632017D01*
X16083092Y10630166D01*
X16083324Y10628546D01*
X16083554Y10627158D01*
Y10626001D01*
X16083324Y10622299D01*
X16082397Y10618828D01*
X16081239Y10615588D01*
X16079852Y10613043D01*
X16078464Y10610960D01*
X16077306Y10609572D01*
X16076381Y10608415D01*
X16076149Y10608184D01*
X16073141Y10605870D01*
X16069670Y10604250D01*
X16065968Y10602862D01*
X16062729Y10601936D01*
X16059489Y10601473D01*
X16057175Y10601242D01*
X16056250Y10601011D01*
X16055556D01*
X16055093D01*
X16054861D01*
Y10677833D01*
X16106462D01*
D01*
D02*
G37*
G36*
X16103917Y10546864D02*
X15943793D01*
Y10516089D01*
X16103917D01*
Y10546864D01*
D02*
G37*
G36*
X16300000Y10581111D02*
X16138950D01*
Y10556120D01*
X16144272Y10553806D01*
X16149130Y10550798D01*
X16153758Y10547559D01*
X16157462Y10544319D01*
X16160469Y10541542D01*
X16162782Y10538997D01*
X16163708Y10538071D01*
X16164403Y10537377D01*
X16164635Y10536914D01*
X16164867Y10536683D01*
X16168568Y10531592D01*
X16171808Y10526733D01*
X16174353Y10522337D01*
X16176204Y10518403D01*
X16177592Y10515163D01*
X16178749Y10512849D01*
X16178981Y10511924D01*
X16179211Y10511230D01*
X16179443Y10510998D01*
Y10510767D01*
X16207211D01*
X16203970Y10519097D01*
X16200500Y10526502D01*
X16198650Y10529973D01*
X16196567Y10533212D01*
X16194716Y10536220D01*
X16192863Y10538997D01*
X16191013Y10541542D01*
X16189394Y10543856D01*
X16188005Y10545707D01*
X16186617Y10547327D01*
X16185460Y10548716D01*
X16184766Y10549641D01*
X16184303Y10550104D01*
X16184071Y10550335D01*
X16300000D01*
Y10510767D01*
D01*
Y10581111D01*
D02*
G37*
G36*
Y10477678D02*
X16269225D01*
Y10446902D01*
X16300000D01*
Y10477678D01*
D02*
G37*
G36*
X16106462Y10492487D02*
X15985213D01*
D01*
X16106462D01*
Y10421912D01*
X16106232Y10425614D01*
X16105768Y10429316D01*
X16105305Y10432556D01*
X16104611Y10435332D01*
X16103917Y10437646D01*
X16103223Y10439498D01*
X16102991Y10440655D01*
X16102760Y10441117D01*
X16101140Y10444357D01*
X16099519Y10447596D01*
X16097438Y10450373D01*
X16095587Y10452918D01*
X16093967Y10455001D01*
X16092578Y10456621D01*
X16091653Y10457546D01*
X16091422Y10458009D01*
X16092348Y10458240D01*
X16093504Y10458703D01*
X16094431Y10458935D01*
X16094661Y10459166D01*
X16094891D01*
X16096976Y10459860D01*
X16098827Y10460323D01*
X16100446Y10460786D01*
X16101604Y10461249D01*
X16102528Y10461711D01*
X16103455Y10461943D01*
X16103685Y10462174D01*
X16103917D01*
Y10492487D01*
X16100909Y10491098D01*
X16098132Y10489941D01*
X16095587Y10489016D01*
X16093272Y10488090D01*
X16091422Y10487627D01*
X16089803Y10487165D01*
X16088876Y10486933D01*
X16088644D01*
X16085637Y10486471D01*
X16081934Y10486239D01*
X16078232Y10485776D01*
X16074530D01*
X16071291Y10485545D01*
X16068513D01*
X16067355D01*
X16066663D01*
X16066200D01*
X16065968D01*
X16030103Y10486008D01*
X16026401D01*
X16023160Y10485776D01*
X16020152Y10485545D01*
X16017375Y10485314D01*
X16014830Y10485082D01*
X16012515Y10484619D01*
X16010434Y10484388D01*
X16008813Y10483925D01*
X16007195Y10483462D01*
X16006036Y10483231D01*
X16003955Y10482537D01*
X16003029Y10482074D01*
X16002567Y10481843D01*
X16000021Y10479991D01*
X15997475Y10477909D01*
X15995393Y10475595D01*
X15993542Y10473050D01*
X15992152Y10470967D01*
X15991228Y10469116D01*
X15990533Y10467959D01*
X15990302Y10467728D01*
Y10467496D01*
X15989377Y10465414D01*
X15988683Y10463331D01*
X15987294Y10458472D01*
X15986369Y10453381D01*
X15985905Y10448522D01*
X15985443Y10443894D01*
Y10442043D01*
X15985213Y10440423D01*
Y10383500D01*
Y10432787D01*
X15985674Y10429085D01*
X15985905Y10425383D01*
X15986600Y10422143D01*
X15987064Y10418903D01*
X15987756Y10416127D01*
X15988683Y10413581D01*
X15989377Y10411267D01*
X15990071Y10409416D01*
X15990996Y10407565D01*
X15991692Y10406177D01*
X15992152Y10404788D01*
X15992848Y10403863D01*
X15993079Y10403169D01*
X15993542Y10402937D01*
Y10402706D01*
X15997012Y10398772D01*
X16000946Y10395533D01*
X16005112Y10392756D01*
X16009045Y10390442D01*
X16012749Y10388822D01*
X16014368Y10388128D01*
X16015756Y10387665D01*
X16016913Y10387202D01*
X16017838Y10386971D01*
X16018301Y10386740D01*
X16018532D01*
X16023624Y10414276D01*
X16020847Y10415433D01*
X16018532Y10416590D01*
X16016451Y10417746D01*
X16014830Y10419135D01*
X16013673Y10420060D01*
X16012979Y10420986D01*
X16012515Y10421449D01*
X16012285Y10421680D01*
X16011128Y10423531D01*
X16010202Y10425614D01*
X16009740Y10427928D01*
X16009277Y10430010D01*
X16009045Y10431862D01*
X16008813Y10433250D01*
Y10434638D01*
X16009045Y10438803D01*
X16009508Y10442274D01*
X16009972Y10445051D01*
X16010664Y10447365D01*
X16011591Y10448985D01*
X16012053Y10450142D01*
X16012515Y10450836D01*
X16012749Y10451067D01*
X16014368Y10452687D01*
X16016219Y10453844D01*
X16018301Y10454538D01*
X16020384Y10455232D01*
X16022466Y10455464D01*
X16024086Y10455695D01*
X16025011D01*
X16025475D01*
X16028482D01*
X16029176Y10454075D01*
X16029871Y10451993D01*
X16031259Y10447596D01*
X16032416Y10442506D01*
X16033572Y10437646D01*
X16034731Y10433019D01*
X16035193Y10430936D01*
X16035423Y10429085D01*
X16035657Y10427696D01*
X16035887Y10426539D01*
X16036118Y10425845D01*
Y10425614D01*
X16037276Y10420060D01*
X16038432Y10414970D01*
X16039589Y10410805D01*
X16040746Y10407334D01*
X16041904Y10404557D01*
X16042596Y10402706D01*
X16043060Y10401549D01*
X16043292Y10401086D01*
X16044911Y10398078D01*
X16046762Y10395533D01*
X16048845Y10393219D01*
X16050696Y10391599D01*
X16052316Y10389979D01*
X16053703Y10389054D01*
X16054630Y10388359D01*
X16055093Y10388128D01*
X16058101Y10386508D01*
X16061108Y10385351D01*
X16063885Y10384657D01*
X16066663Y10384194D01*
X16068976Y10383732D01*
X16070827Y10383500D01*
X16072447D01*
X16075224Y10383732D01*
X16077769Y10383963D01*
X16082628Y10385120D01*
X16086794Y10386740D01*
X16090263Y10388591D01*
X16093040Y10390442D01*
X16095123Y10392062D01*
X16096512Y10393219D01*
X16096744Y10393682D01*
X16096976D01*
X16100214Y10397847D01*
X16102528Y10402474D01*
X16104147Y10407102D01*
X16105305Y10411730D01*
X16106000Y10415664D01*
X16106232Y10417515D01*
Y10418903D01*
X16106462Y10420292D01*
Y10492487D01*
D02*
G37*
G36*
X16300000Y10394376D02*
X16138950D01*
Y10369385D01*
X16144272Y10367071D01*
X16149130Y10364063D01*
X16153758Y10360824D01*
X16157462Y10357584D01*
X16160469Y10354807D01*
X16162782Y10352262D01*
X16163708Y10351336D01*
X16164403Y10350642D01*
X16164635Y10350179D01*
X16164867Y10349948D01*
X16168568Y10344857D01*
X16171808Y10339998D01*
X16174353Y10335602D01*
X16176204Y10331668D01*
X16177592Y10328428D01*
X16178749Y10326114D01*
X16178981Y10325189D01*
X16179211Y10324495D01*
X16179443Y10324263D01*
Y10324032D01*
X16207211D01*
X16203970Y10332362D01*
X16200500Y10339767D01*
X16198650Y10343238D01*
X16196567Y10346477D01*
X16194716Y10349485D01*
X16192863Y10352262D01*
X16191013Y10354807D01*
X16189394Y10357121D01*
X16188005Y10358972D01*
X16186617Y10360592D01*
X16185460Y10361981D01*
X16184766Y10362906D01*
X16184303Y10363369D01*
X16184071Y10363600D01*
X16300000D01*
Y10324032D01*
D01*
Y10394376D01*
D02*
G37*
G36*
Y10290943D02*
X16269225D01*
Y10260167D01*
X16300000D01*
Y10290943D01*
D02*
G37*
G36*
X16103917Y10372625D02*
X15987756D01*
Y10252068D01*
D01*
X16103917Y10298810D01*
Y10326577D01*
X15987756Y10372625D01*
X16103917D01*
D01*
D02*
G37*
G36*
X16300000Y10207641D02*
X16138950D01*
Y10137297D01*
Y10182650D01*
X16144272Y10180336D01*
X16149130Y10177328D01*
X16153758Y10174089D01*
X16157462Y10170849D01*
X16160469Y10168072D01*
X16162782Y10165527D01*
X16163708Y10164601D01*
X16164403Y10163907D01*
X16164635Y10163444D01*
X16164867Y10163213D01*
X16168568Y10158122D01*
X16171808Y10153263D01*
X16174353Y10148867D01*
X16176204Y10144933D01*
X16177592Y10141693D01*
X16178749Y10139380D01*
X16178981Y10138454D01*
X16179211Y10137760D01*
X16179443Y10137528D01*
Y10137297D01*
X16207211D01*
X16203970Y10145627D01*
X16200500Y10153032D01*
X16198650Y10156503D01*
X16196567Y10159742D01*
X16194716Y10162750D01*
X16192863Y10165527D01*
X16191013Y10168072D01*
X16189394Y10170386D01*
X16188005Y10172237D01*
X16186617Y10173857D01*
X16185460Y10175246D01*
X16184766Y10176171D01*
X16184303Y10176634D01*
X16184071Y10176865D01*
X16300000D01*
Y10207641D01*
D02*
G37*
G36*
X16103917Y10166915D02*
X15987756D01*
Y10136140D01*
X16018532D01*
Y10166915D01*
X16073141D01*
Y10136140D01*
X16103917D01*
Y10166915D01*
D02*
G37*
G36*
X16300000Y10104208D02*
X16269225D01*
Y10073432D01*
X16300000D01*
Y10104208D01*
D02*
G37*
G36*
X16103917Y10103282D02*
X15943793D01*
Y9969305D01*
X16103917D01*
Y10029930D01*
X16103685Y10036178D01*
X16103455Y10041963D01*
X16102991Y10046822D01*
X16102296Y10050756D01*
X16101604Y10053995D01*
X16101140Y10056540D01*
X16100909Y10057235D01*
Y10057929D01*
X16100677Y10058160D01*
Y10058392D01*
X16098827Y10063482D01*
X16096744Y10068110D01*
X16094661Y10071812D01*
X16092578Y10075052D01*
X16090727Y10077597D01*
X16089339Y10079448D01*
X16088412Y10080605D01*
X16087952Y10081068D01*
X16083554Y10085002D01*
X16078926Y10088473D01*
X16074068Y10091481D01*
X16069670Y10093795D01*
X16065504Y10095646D01*
X16063885Y10096572D01*
X16062497Y10097034D01*
X16061108Y10097497D01*
X16060184Y10097960D01*
X16059720Y10098191D01*
X16059489D01*
X16053935Y10099811D01*
X16048151Y10101200D01*
X16042596Y10102125D01*
X16037276Y10102588D01*
X16034731Y10102819D01*
X16032416Y10103051D01*
X16030565D01*
X16028714Y10103282D01*
X16103917D01*
D01*
D02*
G37*
G36*
X16300000Y10020906D02*
X16138950D01*
Y9950562D01*
Y9995915D01*
X16144272Y9993601D01*
X16149130Y9990593D01*
X16153758Y9987354D01*
X16157462Y9984114D01*
X16160469Y9981337D01*
X16162782Y9978792D01*
X16163708Y9977867D01*
X16164403Y9977172D01*
X16164635Y9976710D01*
X16164867Y9976478D01*
X16168568Y9971387D01*
X16171808Y9966528D01*
X16174353Y9962132D01*
X16176204Y9958198D01*
X16177592Y9954958D01*
X16178749Y9952645D01*
X16178981Y9951719D01*
X16179211Y9951025D01*
X16179443Y9950793D01*
Y9950562D01*
X16207211D01*
X16203970Y9958892D01*
X16200500Y9966297D01*
X16198650Y9969768D01*
X16196567Y9973007D01*
X16194716Y9976015D01*
X16192863Y9978792D01*
X16191013Y9981337D01*
X16189394Y9983651D01*
X16188005Y9985503D01*
X16186617Y9987122D01*
X16185460Y9988511D01*
X16184766Y9989436D01*
X16184303Y9989899D01*
X16184071Y9990130D01*
X16300000D01*
Y10020906D01*
D02*
G37*
G36*
X16103917Y9938298D02*
X15943793D01*
Y9905903D01*
X16103917D01*
Y9938298D01*
D02*
G37*
G36*
X16300000Y9848749D02*
X16183839D01*
Y9817973D01*
X16214616D01*
Y9848749D01*
X16269225D01*
Y9817973D01*
X16300000D01*
Y9848749D01*
D02*
G37*
G36*
X16106924Y9879524D02*
X15940784D01*
Y9749249D01*
Y9813577D01*
X15941016Y9806866D01*
X15941710Y9800850D01*
X15942635Y9795528D01*
X15943561Y9790900D01*
X15944255Y9788818D01*
X15944717Y9786966D01*
X15945180Y9785578D01*
X15945644Y9784190D01*
X15946106Y9783264D01*
X15946336Y9782570D01*
X15946568Y9782107D01*
Y9781876D01*
X15948883Y9777248D01*
X15951428Y9773314D01*
X15954205Y9769843D01*
X15956750Y9767067D01*
X15959064Y9764753D01*
X15960915Y9763364D01*
X15962305Y9762207D01*
X15962535Y9761976D01*
X15962766D01*
X15966701Y9759662D01*
X15970865Y9758042D01*
X15974799Y9756885D01*
X15978270Y9756191D01*
X15981277Y9755728D01*
X15983592Y9755265D01*
X15984517D01*
X15985213D01*
X15985443D01*
X15985674D01*
X15989145Y9755497D01*
X15992616Y9755960D01*
X15995624Y9756654D01*
X15998631Y9757579D01*
X16004185Y9759893D01*
X16009045Y9762670D01*
X16011128Y9763827D01*
X16012749Y9765215D01*
X16014368Y9766372D01*
X16015756Y9767529D01*
X16016681Y9768455D01*
X16017375Y9769149D01*
X16017838Y9769612D01*
X16018069Y9769843D01*
X16019688Y9771926D01*
X16021309Y9774471D01*
X16022929Y9777017D01*
X16024316Y9780025D01*
X16027094Y9785809D01*
X16029408Y9791826D01*
X16030333Y9794834D01*
X16031259Y9797379D01*
X16031953Y9799925D01*
X16032648Y9802007D01*
X16033110Y9803627D01*
X16033572Y9805015D01*
X16033804Y9805941D01*
Y9806172D01*
X16034731Y9809874D01*
X16035657Y9813114D01*
X16036349Y9816122D01*
X16037044Y9818899D01*
X16037738Y9821213D01*
X16038200Y9823295D01*
X16038895Y9825146D01*
X16039359Y9826766D01*
X16039589Y9828155D01*
X16040051Y9829312D01*
X16040515Y9830931D01*
X16040977Y9831857D01*
Y9832088D01*
X16042136Y9835096D01*
X16043292Y9837410D01*
X16044447Y9839493D01*
X16045605Y9841113D01*
X16046532Y9842270D01*
X16047224Y9842964D01*
X16047688Y9843427D01*
X16047919Y9843658D01*
X16049539Y9844815D01*
X16051160Y9845741D01*
X16052779Y9846203D01*
X16054167Y9846666D01*
X16055556Y9846898D01*
X16056712Y9847129D01*
X16057407D01*
X16057639D01*
X16060876Y9846898D01*
X16063654Y9845972D01*
X16066431Y9844584D01*
X16068745Y9843195D01*
X16070596Y9841575D01*
X16071983Y9840418D01*
X16072910Y9839493D01*
X16073141Y9839030D01*
X16075224Y9835791D01*
X16076843Y9832088D01*
X16078001Y9828155D01*
X16078696Y9824452D01*
X16079158Y9820981D01*
X16079620Y9818205D01*
Y9815659D01*
X16079388Y9810337D01*
X16078464Y9805709D01*
X16077306Y9801776D01*
X16075919Y9798305D01*
X16074530Y9795528D01*
X16073373Y9793677D01*
X16072447Y9792520D01*
X16072215Y9792057D01*
X16068976Y9789049D01*
X16065504Y9786735D01*
X16061572Y9784653D01*
X16057639Y9783264D01*
X16054167Y9782107D01*
X16051390Y9781182D01*
X16050465Y9780950D01*
X16049539D01*
X16049075Y9780719D01*
X16048845D01*
X16051852Y9749249D01*
X16056712Y9749943D01*
X16061340Y9750869D01*
X16065736Y9752257D01*
X16069670Y9753414D01*
X16073373Y9755034D01*
X16076843Y9756654D01*
X16079852Y9758274D01*
X16082628Y9759893D01*
X16084943Y9761513D01*
X16087025Y9763133D01*
X16088876Y9764521D01*
X16090495Y9765910D01*
X16091653Y9766835D01*
X16092348Y9767761D01*
X16092810Y9768224D01*
X16093040Y9768455D01*
X16095587Y9771694D01*
X16097668Y9775165D01*
X16099519Y9778868D01*
X16101140Y9782801D01*
X16102296Y9786504D01*
X16103455Y9790437D01*
X16105074Y9798073D01*
X16105768Y9801544D01*
X16106232Y9804784D01*
X16106462Y9807561D01*
X16106693Y9810106D01*
X16106924Y9812188D01*
Y9815197D01*
X16106693Y9822601D01*
X16106000Y9829312D01*
X16105074Y9835328D01*
X16104611Y9837873D01*
X16103917Y9840418D01*
X16103455Y9842501D01*
X16102991Y9844352D01*
X16102528Y9845972D01*
X16102066Y9847360D01*
X16101604Y9848517D01*
X16101370Y9849211D01*
X16101140Y9849674D01*
Y9849906D01*
X16098595Y9854996D01*
X16095818Y9859161D01*
X16093040Y9863095D01*
X16090033Y9866103D01*
X16087488Y9868417D01*
X16085175Y9870268D01*
X16083784Y9871194D01*
X16083554Y9871657D01*
X16083324D01*
X16078696Y9874202D01*
X16074298Y9876285D01*
X16069902Y9877673D01*
X16065736Y9878598D01*
X16062497Y9879061D01*
X16060876Y9879293D01*
X16059720Y9879524D01*
X16106924D01*
D02*
G37*
G36*
X16300000Y9786041D02*
X16139874D01*
D01*
X16189162D01*
X16182452Y9785578D01*
X16176204Y9784653D01*
X16171114Y9783033D01*
X16166486Y9781413D01*
X16164635Y9780487D01*
X16163016Y9779562D01*
X16161626Y9778868D01*
X16160239Y9777942D01*
X16159312Y9777479D01*
X16158618Y9777017D01*
X16158388Y9776554D01*
X16158154D01*
X16153990Y9772851D01*
X16150519Y9769149D01*
X16147743Y9765215D01*
X16145660Y9761745D01*
X16144272Y9758505D01*
X16143115Y9755960D01*
X16142883Y9755034D01*
X16142651Y9754340D01*
X16142421Y9753877D01*
Y9753646D01*
X16141959Y9751795D01*
X16141495Y9749481D01*
X16141264Y9746704D01*
X16141032Y9743927D01*
X16140569Y9737448D01*
X16140108Y9730969D01*
Y9724953D01*
X16139874Y9722408D01*
Y9663402D01*
X16300000D01*
Y9696029D01*
Y9695797D01*
X16239606D01*
Y9724490D01*
X16239375Y9727961D01*
Y9731201D01*
X16239143Y9734209D01*
X16238911Y9736985D01*
X16238681Y9739531D01*
X16238449Y9741613D01*
Y9743696D01*
X16238219Y9745316D01*
X16237987Y9746935D01*
X16237755Y9748092D01*
Y9749018D01*
X16237524Y9749712D01*
Y9750175D01*
X16236598Y9753414D01*
X16235442Y9756422D01*
X16234283Y9759199D01*
X16232896Y9761745D01*
X16231738Y9763827D01*
X16230814Y9765447D01*
X16230119Y9766372D01*
X16229887Y9766835D01*
X16227574Y9769843D01*
X16225027Y9772389D01*
X16222252Y9774934D01*
X16219939Y9776785D01*
X16217624Y9778405D01*
X16215771Y9779562D01*
X16214616Y9780256D01*
X16214153Y9780487D01*
X16210219Y9782339D01*
X16206055Y9783727D01*
X16201657Y9784653D01*
X16197723Y9785347D01*
X16194484Y9785809D01*
X16192863D01*
X16191708Y9786041D01*
X16300000D01*
D01*
D02*
G37*
G36*
X16106924Y9730275D02*
X15940784D01*
Y9600000D01*
Y9664328D01*
X15941016Y9657617D01*
X15941710Y9651601D01*
X15942635Y9646279D01*
X15943561Y9641651D01*
X15944255Y9639568D01*
X15944717Y9637717D01*
X15945180Y9636329D01*
X15945644Y9634941D01*
X15946106Y9634015D01*
X15946336Y9633321D01*
X15946568Y9632858D01*
Y9632627D01*
X15948883Y9627999D01*
X15951428Y9624065D01*
X15954205Y9620594D01*
X15956750Y9617817D01*
X15959064Y9615504D01*
X15960915Y9614115D01*
X15962305Y9612958D01*
X15962535Y9612727D01*
X15962766D01*
X15966701Y9610413D01*
X15970865Y9608793D01*
X15974799Y9607636D01*
X15978270Y9606942D01*
X15981277Y9606479D01*
X15983592Y9606016D01*
X15984517D01*
X15985213D01*
X15985443D01*
X15985674D01*
X15989145Y9606248D01*
X15992616Y9606711D01*
X15995624Y9607405D01*
X15998631Y9608330D01*
X16004185Y9610644D01*
X16009045Y9613421D01*
X16011128Y9614578D01*
X16012749Y9615966D01*
X16014368Y9617123D01*
X16015756Y9618280D01*
X16016681Y9619206D01*
X16017375Y9619900D01*
X16017838Y9620363D01*
X16018069Y9620594D01*
X16019688Y9622677D01*
X16021309Y9625222D01*
X16022929Y9627767D01*
X16024316Y9630776D01*
X16027094Y9636560D01*
X16029408Y9642577D01*
X16030333Y9645585D01*
X16031259Y9648130D01*
X16031953Y9650675D01*
X16032648Y9652758D01*
X16033110Y9654378D01*
X16033572Y9655766D01*
X16033804Y9656692D01*
Y9656923D01*
X16034731Y9660625D01*
X16035657Y9663865D01*
X16036349Y9666873D01*
X16037044Y9669650D01*
X16037738Y9671964D01*
X16038200Y9674046D01*
X16038895Y9675897D01*
X16039359Y9677517D01*
X16039589Y9678905D01*
X16040051Y9680062D01*
X16040515Y9681682D01*
X16040977Y9682608D01*
Y9682839D01*
X16042136Y9685847D01*
X16043292Y9688161D01*
X16044447Y9690244D01*
X16045605Y9691864D01*
X16046532Y9693020D01*
X16047224Y9693715D01*
X16047688Y9694177D01*
X16047919Y9694409D01*
X16049539Y9695566D01*
X16051160Y9696491D01*
X16052779Y9696954D01*
X16054167Y9697417D01*
X16055556Y9697648D01*
X16056712Y9697880D01*
X16057407D01*
X16057639D01*
X16060876Y9697648D01*
X16063654Y9696723D01*
X16066431Y9695334D01*
X16068745Y9693946D01*
X16070596Y9692326D01*
X16071983Y9691169D01*
X16072910Y9690244D01*
X16073141Y9689781D01*
X16075224Y9686541D01*
X16076843Y9682839D01*
X16078001Y9678905D01*
X16078696Y9675203D01*
X16079158Y9671732D01*
X16079620Y9668956D01*
Y9666410D01*
X16079388Y9661088D01*
X16078464Y9656460D01*
X16077306Y9652527D01*
X16075919Y9649056D01*
X16074530Y9646279D01*
X16073373Y9644428D01*
X16072447Y9643271D01*
X16072215Y9642808D01*
X16068976Y9639800D01*
X16065504Y9637486D01*
X16061572Y9635403D01*
X16057639Y9634015D01*
X16054167Y9632858D01*
X16051390Y9631932D01*
X16050465Y9631701D01*
X16049539D01*
X16049075Y9631470D01*
X16048845D01*
X16051852Y9600000D01*
X16056712Y9600694D01*
X16061340Y9601620D01*
X16065736Y9603008D01*
X16069670Y9604165D01*
X16073373Y9605785D01*
X16076843Y9607405D01*
X16079852Y9609024D01*
X16082628Y9610644D01*
X16084943Y9612264D01*
X16087025Y9613884D01*
X16088876Y9615272D01*
X16090495Y9616660D01*
X16091653Y9617586D01*
X16092348Y9618512D01*
X16092810Y9618974D01*
X16093040Y9619206D01*
X16095587Y9622445D01*
X16097668Y9625916D01*
X16099519Y9629619D01*
X16101140Y9633552D01*
X16102296Y9637255D01*
X16103455Y9641188D01*
X16105074Y9648824D01*
X16105768Y9652295D01*
X16106232Y9655535D01*
X16106462Y9658311D01*
X16106693Y9660857D01*
X16106924Y9662939D01*
Y9665947D01*
X16106693Y9673352D01*
X16106000Y9680062D01*
X16105074Y9686079D01*
X16104611Y9688624D01*
X16103917Y9691169D01*
X16103455Y9693252D01*
X16102991Y9695103D01*
X16102528Y9696723D01*
X16102066Y9698111D01*
X16101604Y9699268D01*
X16101370Y9699962D01*
X16101140Y9700425D01*
Y9700656D01*
X16098595Y9705747D01*
X16095818Y9709912D01*
X16093040Y9713846D01*
X16090033Y9716854D01*
X16087488Y9719168D01*
X16085175Y9721019D01*
X16083784Y9721945D01*
X16083554Y9722408D01*
X16083324D01*
X16078696Y9724953D01*
X16074298Y9727035D01*
X16069902Y9728424D01*
X16065736Y9729349D01*
X16062497Y9729812D01*
X16060876Y9730044D01*
X16059720Y9730275D01*
X16106924D01*
D02*
G37*
G36*
X16300000Y9632395D02*
X16139874D01*
Y9600000D01*
X16300000D01*
Y9632395D01*
D02*
G37*
%LPD*%
G36*
X16042596Y10677371D02*
X16037044Y10676676D01*
X16031953Y10675751D01*
X16027094Y10674594D01*
X16022929Y10673437D01*
X16018996Y10672049D01*
X16015524Y10670660D01*
X16012515Y10669272D01*
X16009740Y10667883D01*
X16007657Y10666726D01*
X16005806Y10665569D01*
X16004417Y10664644D01*
X16003259Y10663950D01*
X16002798Y10663487D01*
X16002567Y10663256D01*
X15999557Y10660479D01*
X15996780Y10657239D01*
X15994467Y10654000D01*
X15992616Y10650760D01*
X15990765Y10647289D01*
X15989377Y10643818D01*
X15988220Y10640579D01*
X15987294Y10637339D01*
X15986600Y10634331D01*
X15986137Y10631555D01*
X15985674Y10629009D01*
X15985443Y10626927D01*
X15985213Y10625076D01*
Y10677833D01*
X16048383D01*
X16042596Y10677371D01*
D02*
G37*
G36*
X16036118Y10601473D02*
X16031721Y10601705D01*
X16027788Y10602399D01*
X16024316Y10603324D01*
X16021539Y10604713D01*
X16019228Y10605870D01*
X16017607Y10607027D01*
X16016451Y10607721D01*
X16016219Y10607952D01*
X16013673Y10610498D01*
X16011823Y10613274D01*
X16010664Y10616051D01*
X16009740Y10618596D01*
X16009277Y10620910D01*
X16008813Y10622762D01*
Y10624381D01*
X16009045Y10627852D01*
X16009972Y10630860D01*
X16011128Y10633637D01*
X16012285Y10635951D01*
X16013673Y10637802D01*
X16014830Y10639191D01*
X16015756Y10640116D01*
X16015987Y10640348D01*
X16018764Y10642430D01*
X16022003Y10644281D01*
X16025475Y10645438D01*
X16028714Y10646364D01*
X16031490Y10646827D01*
X16034036Y10647058D01*
X16034961Y10647289D01*
X16035423D01*
X16035887D01*
X16036118D01*
Y10601473D01*
D02*
G37*
G36*
X16061572Y10455464D02*
X16064117Y10455232D01*
X16066200Y10455001D01*
X16067587Y10454770D01*
X16068745Y10454538D01*
X16069208Y10454307D01*
X16069440D01*
X16071523Y10453613D01*
X16073604Y10452456D01*
X16075224Y10451299D01*
X16076843Y10450142D01*
X16078001Y10448985D01*
X16078926Y10448059D01*
X16079388Y10447365D01*
X16079620Y10447134D01*
X16081471Y10444357D01*
X16082628Y10441349D01*
X16083554Y10438803D01*
X16084248Y10436258D01*
X16084711Y10434175D01*
X16084943Y10432556D01*
Y10431167D01*
X16084711Y10428622D01*
X16084248Y10426077D01*
X16083554Y10423994D01*
X16082628Y10422374D01*
X16081703Y10420755D01*
X16081009Y10419829D01*
X16080547Y10419135D01*
X16080315Y10418903D01*
X16078464Y10417284D01*
X16076611Y10416127D01*
X16074760Y10415433D01*
X16072910Y10414970D01*
X16071523Y10414507D01*
X16070364Y10414276D01*
X16069440D01*
X16069208D01*
X16066895Y10414507D01*
X16064812Y10415201D01*
X16062959Y10416127D01*
X16061340Y10417284D01*
X16060184Y10418209D01*
X16059258Y10419135D01*
X16058795Y10419829D01*
X16058565Y10420060D01*
X16057639Y10421912D01*
X16056480Y10424226D01*
X16055556Y10427002D01*
X16054861Y10429779D01*
X16054167Y10432556D01*
X16053703Y10434638D01*
X16053473Y10435564D01*
X16053241Y10436258D01*
Y10436721D01*
X16052316Y10441349D01*
X16051390Y10445051D01*
X16050465Y10448522D01*
X16049771Y10451067D01*
X16049075Y10453150D01*
X16048845Y10454538D01*
X16048383Y10455464D01*
Y10455695D01*
X16054630D01*
X16058331D01*
X16061572Y10455464D01*
D02*
G37*
G36*
X16047224Y10318941D02*
X16050696Y10317553D01*
X16053935Y10316627D01*
X16055093Y10316165D01*
X16056018Y10315933D01*
X16056712Y10315702D01*
X16056944D01*
X16058101Y10315470D01*
X16059489Y10315008D01*
X16062959Y10313851D01*
X16064348Y10313388D01*
X16065736Y10312925D01*
X16066663Y10312694D01*
X16066895Y10312462D01*
X16047224Y10306215D01*
X15987756Y10284232D01*
Y10341155D01*
X16047224Y10318941D01*
D02*
G37*
G36*
X16017375Y10103051D02*
X16010202Y10102356D01*
X16006731Y10102125D01*
X16003723Y10101662D01*
X16000716Y10101200D01*
X15998170Y10100737D01*
X15995856Y10100043D01*
X15993773Y10099580D01*
X15991922Y10099117D01*
X15990533Y10098886D01*
X15989377Y10098423D01*
X15988451Y10098191D01*
X15987988Y10097960D01*
X15987756D01*
X15982204Y10095877D01*
X15977113Y10093332D01*
X15972716Y10090787D01*
X15969014Y10088241D01*
X15966006Y10086159D01*
X15963692Y10084308D01*
X15962305Y10083151D01*
X15961841Y10082919D01*
Y10082688D01*
X15958139Y10078754D01*
X15955130Y10074821D01*
X15952585Y10070655D01*
X15950504Y10066953D01*
X15948883Y10063714D01*
X15947726Y10060937D01*
X15947495Y10060011D01*
X15947263Y10059317D01*
X15947032Y10058854D01*
Y10058623D01*
X15945876Y10054227D01*
X15945180Y10049367D01*
X15944485Y10044277D01*
X15944255Y10039417D01*
X15944023Y10035021D01*
X15943793Y10033170D01*
Y10103282D01*
X16025475D01*
X16017375Y10103051D01*
D02*
G37*
G36*
X16030565Y10069730D02*
X16036581Y10069499D01*
X16041440Y10068804D01*
X16045605Y10068342D01*
X16049075Y10067647D01*
X16050465Y10067416D01*
X16051390Y10066953D01*
X16052316Y10066722D01*
X16053011D01*
X16053241Y10066490D01*
X16053473D01*
X16057175Y10065102D01*
X16060416Y10063945D01*
X16062959Y10062325D01*
X16065044Y10061168D01*
X16066663Y10060011D01*
X16067819Y10059086D01*
X16068513Y10058392D01*
X16068745Y10058160D01*
X16070364Y10056078D01*
X16071753Y10053995D01*
X16072910Y10051913D01*
X16073836Y10049830D01*
X16074530Y10047979D01*
X16074992Y10046591D01*
X16075455Y10045665D01*
Y10045202D01*
X16075919Y10042657D01*
X16076149Y10039649D01*
X16076611Y10036409D01*
Y10033170D01*
X16076843Y10030162D01*
Y10001700D01*
X15970865D01*
Y10022757D01*
X15971097Y10025765D01*
Y10028542D01*
X15971329Y10030856D01*
Y10032938D01*
X15971559Y10035021D01*
Y10036641D01*
X15972021Y10039186D01*
X15972253Y10041037D01*
X15972485Y10042194D01*
Y10042425D01*
X15973412Y10045665D01*
X15974567Y10048442D01*
X15975723Y10050987D01*
X15977113Y10053301D01*
X15978270Y10054921D01*
X15979195Y10056309D01*
X15979890Y10057003D01*
X15980121Y10057235D01*
X15982436Y10059317D01*
X15984979Y10061168D01*
X15987526Y10062788D01*
X15989839Y10064176D01*
X15992152Y10065102D01*
X15994005Y10065796D01*
X15995161Y10066259D01*
X15995393Y10066490D01*
X15995624D01*
X15999789Y10067647D01*
X16004185Y10068573D01*
X16009045Y10069036D01*
X16013673Y10069499D01*
X16017607Y10069730D01*
X16019458Y10069961D01*
X16021078D01*
X16022235D01*
X16023160D01*
X16023854D01*
X16024086D01*
X16030565Y10069730D01*
D02*
G37*
G36*
X16051852Y9879293D02*
X16046994Y9878598D01*
X16042596Y9877442D01*
X16038895Y9876285D01*
X16035887Y9875128D01*
X16033804Y9873971D01*
X16032416Y9873276D01*
X16031953Y9873045D01*
X16028252Y9870500D01*
X16025011Y9867492D01*
X16022235Y9864483D01*
X16019920Y9861707D01*
X16018069Y9859161D01*
X16016681Y9857079D01*
X16015756Y9855690D01*
X16015524Y9855459D01*
Y9855228D01*
X16014368Y9852914D01*
X16013210Y9850600D01*
X16011128Y9845046D01*
X16009277Y9839261D01*
X16007425Y9833708D01*
X16006731Y9831163D01*
X16006036Y9828617D01*
X16005344Y9826303D01*
X16004880Y9824452D01*
X16004417Y9822833D01*
X16004185Y9821676D01*
X16003955Y9820750D01*
Y9820519D01*
X16002798Y9816353D01*
X16001872Y9812651D01*
X16000946Y9809180D01*
X16000021Y9805941D01*
X15999095Y9803395D01*
X15998170Y9800850D01*
X15997244Y9798768D01*
X15996550Y9796916D01*
X15995856Y9795297D01*
X15995161Y9794140D01*
X15994699Y9792983D01*
X15994237Y9792289D01*
X15993542Y9791132D01*
X15993311Y9790900D01*
X15991692Y9789280D01*
X15990071Y9788123D01*
X15988451Y9787429D01*
X15986832Y9786966D01*
X15985674Y9786504D01*
X15984517Y9786272D01*
X15983823D01*
X15983592D01*
X15981277Y9786504D01*
X15979427Y9786966D01*
X15977576Y9787892D01*
X15976187Y9788818D01*
X15975031Y9789743D01*
X15974336Y9790669D01*
X15973872Y9791132D01*
X15973642Y9791363D01*
X15971559Y9794602D01*
X15970171Y9798073D01*
X15969014Y9801776D01*
X15968320Y9805247D01*
X15967857Y9808255D01*
X15967625Y9810800D01*
Y9813114D01*
X15967857Y9817973D01*
X15968552Y9822138D01*
X15969476Y9825609D01*
X15970403Y9828386D01*
X15971329Y9830700D01*
X15972253Y9832320D01*
X15972948Y9833245D01*
X15973180Y9833477D01*
X15975493Y9835791D01*
X15978270Y9837873D01*
X15981047Y9839493D01*
X15984055Y9840650D01*
X15986600Y9841575D01*
X15988683Y9842038D01*
X15990302Y9842501D01*
X15990533D01*
X15990765D01*
X15989607Y9874896D01*
X15985443Y9874665D01*
X15981741Y9873971D01*
X15978038Y9873045D01*
X15974799Y9871888D01*
X15971559Y9870731D01*
X15968552Y9869343D01*
X15966006Y9867954D01*
X15963461Y9866566D01*
X15961378Y9864946D01*
X15959528Y9863558D01*
X15957907Y9862170D01*
X15956519Y9861013D01*
X15955592Y9860087D01*
X15954900Y9859393D01*
X15954436Y9858930D01*
X15954205Y9858699D01*
X15951891Y9855690D01*
X15949808Y9852451D01*
X15947957Y9848980D01*
X15946336Y9845278D01*
X15945180Y9841575D01*
X15944023Y9837873D01*
X15942404Y9830469D01*
X15941940Y9826998D01*
X15941478Y9823989D01*
X15941248Y9820981D01*
X15941016Y9818436D01*
X15940784Y9816353D01*
Y9879524D01*
X16057407D01*
X16051852Y9879293D01*
D02*
G37*
G36*
X16192403Y9752489D02*
X16194716Y9752257D01*
X16196799Y9751563D01*
X16198650Y9750869D01*
X16200269Y9750175D01*
X16201427Y9749712D01*
X16202119Y9749249D01*
X16202351Y9749018D01*
X16204202Y9747629D01*
X16205823Y9745778D01*
X16207211Y9744159D01*
X16208368Y9742539D01*
X16209062Y9741150D01*
X16209756Y9739993D01*
X16209988Y9739068D01*
X16210219Y9738837D01*
X16210683Y9737448D01*
X16210913Y9735828D01*
X16211607Y9732126D01*
X16212070Y9727961D01*
X16212302Y9723796D01*
Y9719631D01*
X16212534Y9718011D01*
Y9695797D01*
X16166948D01*
Y9719862D01*
X16167180Y9722176D01*
Y9724259D01*
X16167410Y9726341D01*
Y9729349D01*
X16167644Y9731663D01*
X16167874Y9733283D01*
X16168105Y9734209D01*
Y9734440D01*
X16168800Y9737217D01*
X16169725Y9739762D01*
X16170882Y9742076D01*
X16172270Y9743927D01*
X16173427Y9745316D01*
X16174353Y9746473D01*
X16175047Y9747167D01*
X16175279Y9747398D01*
X16177592Y9749249D01*
X16179906Y9750406D01*
X16182452Y9751332D01*
X16184766Y9752026D01*
X16186848Y9752489D01*
X16188467Y9752720D01*
X16189394D01*
X16189856D01*
X16192403Y9752489D01*
D02*
G37*
G36*
X16051852Y9730044D02*
X16046994Y9729349D01*
X16042596Y9728192D01*
X16038895Y9727035D01*
X16035887Y9725878D01*
X16033804Y9724721D01*
X16032416Y9724027D01*
X16031953Y9723796D01*
X16028252Y9721251D01*
X16025011Y9718242D01*
X16022235Y9715234D01*
X16019920Y9712458D01*
X16018069Y9709912D01*
X16016681Y9707830D01*
X16015756Y9706441D01*
X16015524Y9706210D01*
Y9705979D01*
X16014368Y9703665D01*
X16013210Y9701351D01*
X16011128Y9695797D01*
X16009277Y9690012D01*
X16007425Y9684459D01*
X16006731Y9681914D01*
X16006036Y9679368D01*
X16005344Y9677054D01*
X16004880Y9675203D01*
X16004417Y9673583D01*
X16004185Y9672426D01*
X16003955Y9671501D01*
Y9671269D01*
X16002798Y9667104D01*
X16001872Y9663402D01*
X16000946Y9659931D01*
X16000021Y9656692D01*
X15999095Y9654146D01*
X15998170Y9651601D01*
X15997244Y9649518D01*
X15996550Y9647667D01*
X15995856Y9646048D01*
X15995161Y9644891D01*
X15994699Y9643734D01*
X15994237Y9643039D01*
X15993542Y9641882D01*
X15993311Y9641651D01*
X15991692Y9640031D01*
X15990071Y9638874D01*
X15988451Y9638180D01*
X15986832Y9637717D01*
X15985674Y9637255D01*
X15984517Y9637023D01*
X15983823D01*
X15983592D01*
X15981277Y9637255D01*
X15979427Y9637717D01*
X15977576Y9638643D01*
X15976187Y9639568D01*
X15975031Y9640494D01*
X15974336Y9641420D01*
X15973872Y9641882D01*
X15973642Y9642114D01*
X15971559Y9645353D01*
X15970171Y9648824D01*
X15969014Y9652527D01*
X15968320Y9655997D01*
X15967857Y9659006D01*
X15967625Y9661551D01*
Y9663865D01*
X15967857Y9668724D01*
X15968552Y9672889D01*
X15969476Y9676360D01*
X15970403Y9679137D01*
X15971329Y9681451D01*
X15972253Y9683071D01*
X15972948Y9683996D01*
X15973180Y9684228D01*
X15975493Y9686541D01*
X15978270Y9688624D01*
X15981047Y9690244D01*
X15984055Y9691401D01*
X15986600Y9692326D01*
X15988683Y9692789D01*
X15990302Y9693252D01*
X15990533D01*
X15990765D01*
X15989607Y9725647D01*
X15985443Y9725416D01*
X15981741Y9724721D01*
X15978038Y9723796D01*
X15974799Y9722639D01*
X15971559Y9721482D01*
X15968552Y9720094D01*
X15966006Y9718705D01*
X15963461Y9717317D01*
X15961378Y9715697D01*
X15959528Y9714309D01*
X15957907Y9712920D01*
X15956519Y9711763D01*
X15955592Y9710838D01*
X15954900Y9710144D01*
X15954436Y9709681D01*
X15954205Y9709449D01*
X15951891Y9706441D01*
X15949808Y9703202D01*
X15947957Y9699731D01*
X15946336Y9696029D01*
X15945180Y9692326D01*
X15944023Y9688624D01*
X15942404Y9681219D01*
X15941940Y9677748D01*
X15941478Y9674740D01*
X15941248Y9671732D01*
X15941016Y9669187D01*
X15940784Y9667104D01*
Y9730275D01*
X16057407D01*
X16051852Y9730044D01*
D02*
G37*
D10*
X26162000Y2412962D02*
Y2235200D01*
Y2412962D02*
X26238184D01*
X26263577Y2404497D01*
X26272043Y2396032D01*
X26280508Y2379102D01*
Y2362173D01*
X26272043Y2345243D01*
X26263577Y2336778D01*
X26238184Y2328313D01*
X26162000D02*
X26238184D01*
X26263577Y2319849D01*
X26272043Y2311384D01*
X26280508Y2294454D01*
Y2269059D01*
X26272043Y2252130D01*
X26263577Y2243665D01*
X26238184Y2235200D01*
X26162000D01*
X26430338Y2412962D02*
X26320294D01*
Y2235200D01*
X26430338D01*
X26320294Y2328313D02*
X26388013D01*
X26578470Y2387567D02*
X26561542Y2404497D01*
X26536148Y2412962D01*
X26502286D01*
X26476892Y2404497D01*
X26459964Y2387567D01*
Y2370638D01*
X26468427Y2353708D01*
X26476892Y2345243D01*
X26493823Y2336778D01*
X26544611Y2319849D01*
X26561542Y2311384D01*
X26570007Y2302919D01*
X26578470Y2285989D01*
Y2260595D01*
X26561542Y2243665D01*
X26536148Y2235200D01*
X26502286D01*
X26476892Y2243665D01*
X26459964Y2260595D01*
X26677509Y2412962D02*
Y2235200D01*
X26618256Y2412962D02*
X26736765D01*
X26757925D02*
Y2285989D01*
X26766391Y2260595D01*
X26783319Y2243665D01*
X26808716Y2235200D01*
X26825644D01*
X26851038Y2243665D01*
X26867969Y2260595D01*
X26876434Y2285989D01*
Y2412962D01*
X27035574D02*
X26925531D01*
Y2235200D01*
X27035574D01*
X26925531Y2328313D02*
X26993250D01*
X27192172Y2370638D02*
X27183707Y2387567D01*
X27166779Y2404497D01*
X27149847Y2412962D01*
X27115988D01*
X27099060Y2404497D01*
X27082129Y2387567D01*
X27073666Y2370638D01*
X27065201Y2345243D01*
Y2302919D01*
X27073666Y2277524D01*
X27082129Y2260595D01*
X27099060Y2243665D01*
X27115988Y2235200D01*
X27149847D01*
X27166779Y2243665D01*
X27183707Y2260595D01*
X27192172Y2277524D01*
X27242114Y2412962D02*
Y2235200D01*
X27360623Y2412962D02*
X27242114Y2294454D01*
X27284439Y2336778D02*
X27360623Y2235200D01*
X27408875Y2252130D02*
X27400409Y2243665D01*
X27408875Y2235200D01*
X27417337Y2243665D01*
X27408875Y2252130D01*
X27655200Y2412962D02*
Y2235200D01*
X27595947Y2412962D02*
X27714453D01*
X27786404D02*
X27769476Y2404497D01*
X27752545Y2387567D01*
X27744080Y2370638D01*
X27735617Y2345243D01*
Y2302919D01*
X27744080Y2277524D01*
X27752545Y2260595D01*
X27769476Y2243665D01*
X27786404Y2235200D01*
X27820264D01*
X27837195Y2243665D01*
X27854123Y2260595D01*
X27862589Y2277524D01*
X27871054Y2302919D01*
Y2345243D01*
X27862589Y2370638D01*
X27854123Y2387567D01*
X27837195Y2404497D01*
X27820264Y2412962D01*
X27786404D01*
X27912531Y2319849D02*
X27988715D01*
X28014111Y2328313D01*
X28022574Y2336778D01*
X28031039Y2353708D01*
Y2379102D01*
X28022574Y2396032D01*
X28014111Y2404497D01*
X27988715Y2412962D01*
X27912531D01*
Y2235200D01*
X26246649Y888962D02*
X26162000Y770454D01*
X26288974D01*
X26246649Y888962D02*
Y711200D01*
D16*
X15367000Y10541000D02*
X15621001D01*
Y9525000D02*
Y10541000D01*
X15367000Y9525000D02*
Y10541000D01*
Y9525000D02*
X15621001D01*
X14859000Y10541000D02*
X15113000D01*
Y9525000D02*
Y10541000D01*
X14859000Y9525000D02*
Y10541000D01*
Y9525000D02*
X15113000D01*
D17*
X12816000Y9533000D02*
X14616000D01*
Y11803000D01*
X14166000D02*
X14616000D01*
X12816000Y9533000D02*
Y11803000D01*
X13266000Y11933000D02*
X14166000D01*
Y11803000D02*
Y11933000D01*
X13266000Y11803000D02*
Y11933000D01*
X12816000Y11803000D02*
X13266000D01*
D18*
X13512801Y10800080D02*
Y10952431D01*
X13563583Y10901647D01*
X13614368Y10952431D01*
Y10800080D01*
X13766718Y10927039D02*
X13741325Y10952431D01*
X13690543D01*
X13665150Y10927039D01*
Y10825472D01*
X13690543Y10800080D01*
X13741325D01*
X13766718Y10825472D01*
X13817500Y10952431D02*
Y10825472D01*
X13842892Y10800080D01*
X13893677D01*
X13919069Y10825472D01*
Y10952431D01*
X13233366Y10667951D02*
X13131799D01*
Y10515600D01*
X13233366D01*
X13131799Y10591775D02*
X13182584D01*
X13385718Y10642559D02*
X13360326Y10667951D01*
X13309543D01*
X13284151Y10642559D01*
Y10617167D01*
X13309543Y10591775D01*
X13360326D01*
X13385718Y10566383D01*
Y10540992D01*
X13360326Y10515600D01*
X13309543D01*
X13284151Y10540992D01*
X13436501Y10515600D02*
Y10667951D01*
X13512677D01*
X13538069Y10642559D01*
Y10591775D01*
X13512677Y10566383D01*
X13436501D01*
X13588852Y10642559D02*
X13614244Y10667951D01*
X13665028D01*
X13690419Y10642559D01*
Y10617167D01*
X13665028Y10591775D01*
X13639636D01*
X13665028D01*
X13690419Y10566383D01*
Y10540992D01*
X13665028Y10515600D01*
X13614244D01*
X13588852Y10540992D01*
X13842770Y10515600D02*
X13741203D01*
X13842770Y10617167D01*
Y10642559D01*
X13817378Y10667951D01*
X13766595D01*
X13741203Y10642559D01*
X13893555Y10591775D02*
X13995120D01*
X14147472Y10642559D02*
X14122079Y10667951D01*
X14071297D01*
X14045905Y10642559D01*
Y10540992D01*
X14071297Y10515600D01*
X14122079D01*
X14147472Y10540992D01*
X14198254Y10642559D02*
X14223647Y10667951D01*
X14274429D01*
X14299821Y10642559D01*
Y10617167D01*
X14274429Y10591775D01*
X14249039D01*
X14274429D01*
X14299821Y10566383D01*
Y10540992D01*
X14274429Y10515600D01*
X14223647D01*
X14198254Y10540992D01*
D19*
X14897128Y10692948D02*
Y10642164D01*
Y10667556D01*
X15024088D01*
X15049480Y10642164D01*
Y10616773D01*
X15024088Y10591381D01*
X15074870Y10743732D02*
Y10845299D01*
X14922520Y10997650D02*
X14897128Y10972258D01*
Y10921474D01*
X14922520Y10896082D01*
X14947913D01*
X14973305Y10921474D01*
Y10972258D01*
X14998695Y10997650D01*
X15024088D01*
X15049480Y10972258D01*
Y10921474D01*
X15024088Y10896082D01*
X14897128Y11048433D02*
X15049480D01*
X14973305D01*
Y11150000D01*
X14897128D01*
X15049480D01*
Y11200784D02*
Y11251567D01*
Y11226176D01*
X14897128D01*
X14922520Y11200784D01*
X15049480Y11327743D02*
Y11378526D01*
Y11353135D01*
X14897128D01*
X14922520Y11327743D01*
Y11454701D02*
X14897128Y11480093D01*
Y11530877D01*
X14922520Y11556269D01*
X15024088D01*
X15049480Y11530877D01*
Y11480093D01*
X15024088Y11454701D01*
X14922520D01*
X14897128Y11708619D02*
X14922520Y11657836D01*
X14973305Y11607052D01*
X15024088D01*
X15049480Y11632444D01*
Y11683228D01*
X15024088Y11708619D01*
X14998695D01*
X14973305Y11683228D01*
Y11607052D01*
X15405128Y10687556D02*
Y10636772D01*
Y10662164D01*
X15532088D01*
X15557478Y10636772D01*
Y10611381D01*
X15532088Y10585989D01*
X15582870Y10738340D02*
Y10839907D01*
X15405128Y10890690D02*
X15557478D01*
Y10966866D01*
X15532088Y10992258D01*
X15506696D01*
X15481303Y10966866D01*
Y10890690D01*
Y10966866D01*
X15455911Y10992258D01*
X15430521D01*
X15405128Y10966866D01*
Y10890690D01*
X15557478Y11043041D02*
X15405128D01*
X15455911Y11093825D01*
X15405128Y11144608D01*
X15557478D01*
X15405128Y11296959D02*
Y11195392D01*
X15557478D01*
Y11296959D01*
X15481303Y11195392D02*
Y11246175D01*
X15557478Y11449310D02*
Y11347743D01*
X15455911Y11449310D01*
X15430521D01*
X15405128Y11423918D01*
Y11373134D01*
X15430521Y11347743D01*
Y11500093D02*
X15405128Y11525485D01*
Y11576269D01*
X15430521Y11601661D01*
X15455911D01*
X15481303Y11576269D01*
X15506696Y11601661D01*
X15532088D01*
X15557478Y11576269D01*
Y11525485D01*
X15532088Y11500093D01*
X15506696D01*
X15481303Y11525485D01*
X15455911Y11500093D01*
X15430521D01*
X15481303Y11525485D02*
Y11576269D01*
X15430521Y11652444D02*
X15405128Y11677836D01*
Y11728619D01*
X15430521Y11754011D01*
X15532088D01*
X15557478Y11728619D01*
Y11677836D01*
X15532088Y11652444D01*
X15430521D01*
%TF.MD5,a9fe043de709fba24aa2a03b399e7525*%
M02*
