%TF.GenerationSoftware,Altium Limited,Altium Designer,24.8.2 (39)*%
G04 Layer_Physical_Order=1*
G04 Layer_Color=255*
%FSLAX45Y45*%
%MOMM*%
%TF.SameCoordinates,AEF890BE-CC7D-4D31-97F1-A5BAF979AF91*%
%TF.FilePolarity,Positive*%
%TF.FileFunction,Copper,L1,Top,Signal*%
%TF.Part,Single*%
G01*
G75*
%TA.AperFunction,NonConductor*%
%ADD10C,0.17780*%
%TA.AperFunction,ViaPad*%
%ADD11C,3.40000*%
%TA.AperFunction,ComponentPad*%
%ADD12C,1.50000*%
%ADD13R,1.50000X1.50000*%
%ADD14C,1.90500*%
D10*
X26162000Y2412962D02*
Y2235200D01*
X26263577D01*
X26418484D02*
X26350766Y2412962D01*
X26283047Y2235200D01*
X26308441Y2294454D02*
X26393091D01*
X26459964Y2412962D02*
X26527682Y2328313D01*
Y2235200D01*
X26595401Y2412962D02*
X26527682Y2328313D01*
X26669046Y2412962D02*
X26652115Y2404497D01*
X26635184Y2387567D01*
X26626721Y2370638D01*
X26618256Y2345243D01*
Y2302919D01*
X26626721Y2277524D01*
X26635184Y2260595D01*
X26652115Y2243665D01*
X26669046Y2235200D01*
X26702905D01*
X26719833Y2243665D01*
X26736765Y2260595D01*
X26745227Y2277524D01*
X26753693Y2302919D01*
Y2345243D01*
X26745227Y2370638D01*
X26736765Y2387567D01*
X26719833Y2404497D01*
X26702905Y2412962D01*
X26669046D01*
X26795172D02*
Y2285989D01*
X26803635Y2260595D01*
X26820566Y2243665D01*
X26845959Y2235200D01*
X26862891D01*
X26888284Y2243665D01*
X26905215Y2260595D01*
X26913678Y2285989D01*
Y2412962D01*
X27022028D02*
Y2235200D01*
X26962775Y2412962D02*
X27081284D01*
X27301370D02*
Y2235200D01*
X27242114Y2412962D02*
X27360623D01*
X27432574D02*
X27415646Y2404497D01*
X27398715Y2387567D01*
X27390250Y2370638D01*
X27381784Y2345243D01*
Y2302919D01*
X27390250Y2277524D01*
X27398715Y2260595D01*
X27415646Y2243665D01*
X27432574Y2235200D01*
X27466434D01*
X27483362Y2243665D01*
X27500293Y2260595D01*
X27508759Y2277524D01*
X27517224Y2302919D01*
Y2345243D01*
X27508759Y2370638D01*
X27500293Y2387567D01*
X27483362Y2404497D01*
X27466434Y2412962D01*
X27432574D01*
X27558701Y2319849D02*
X27634885D01*
X27660278Y2328313D01*
X27668744Y2336778D01*
X27677209Y2353708D01*
Y2379102D01*
X27668744Y2396032D01*
X27660278Y2404497D01*
X27634885Y2412962D01*
X27558701D01*
Y2235200D01*
X26170465Y846638D02*
Y855102D01*
X26178931Y872032D01*
X26187396Y880497D01*
X26204324Y888962D01*
X26238184D01*
X26255112Y880497D01*
X26263577Y872032D01*
X26272043Y855102D01*
Y838173D01*
X26263577Y821243D01*
X26246649Y795849D01*
X26162000Y711200D01*
X26280508D01*
D11*
X16200000Y9200000D02*
D03*
X12300000D02*
D03*
Y11500000D02*
D03*
D12*
X15494000Y9652000D02*
D03*
Y9906000D02*
D03*
Y10160000D02*
D03*
X14986000Y9652000D02*
D03*
Y9906000D02*
D03*
Y10160000D02*
D03*
D13*
X15494000Y10414000D02*
D03*
X14986000D02*
D03*
D14*
X12953999Y11658000D02*
D03*
Y11404000D02*
D03*
Y11150000D02*
D03*
Y10896000D02*
D03*
Y10642000D02*
D03*
Y10388000D02*
D03*
Y10134000D02*
D03*
Y9880000D02*
D03*
X14478000D02*
D03*
Y10134000D02*
D03*
Y10388000D02*
D03*
Y10642000D02*
D03*
Y10896000D02*
D03*
Y11150000D02*
D03*
Y11404000D02*
D03*
Y11658000D02*
D03*
%TF.MD5,fe47a70abba4d625a44ba48136092712*%
M02*
